<svg xmlns="http://www.w3.org/2000/svg" xmlns:xlink="http://www.w3.org/1999/xlink" width="806" height="422.928" viewBox="0 0 806 422.928">
  <defs>
    <linearGradient id="linear-gradient" x1="0.5" y1="1" x2="0.5" gradientUnits="objectBoundingBox">
      <stop offset="0" stop-color="gray" stop-opacity="0.251"/>
      <stop offset="0.54" stop-color="gray" stop-opacity="0.122"/>
      <stop offset="1" stop-color="gray" stop-opacity="0.102"/>
    </linearGradient>
    <linearGradient id="linear-gradient-2" x1="0.5" y1="1" x2="0.5" y2="-0.001" xlink:href="#linear-gradient"/>
  </defs>
  <g id="ContactUs" transform="translate(0 0.359)">
    <g id="Group_6" data-name="Group 6" transform="translate(312.655 29.057)" opacity="0.1">
      <ellipse id="Ellipse_115" data-name="Ellipse 115" cx="8.369" cy="10.957" rx="8.369" ry="10.957" transform="translate(31.542 226.194)" fill="#3f3d56"/>
      <path id="Path_421" data-name="Path 421" d="M535.024,454.647a13.237,13.237,0,0,0,1.75-6.7c0-6.052-3.75-10.958-8.376-10.958s-8.4,4.92-8.4,10.972a13.237,13.237,0,0,0,1.75,6.7,13.686,13.686,0,0,0,0,13.392,13.686,13.686,0,0,0,0,13.392,13.192,13.192,0,0,0-1.75,6.7c0,6.045,3.75,10.957,8.369,10.957s8.376-4.912,8.376-10.957a13.193,13.193,0,0,0-1.75-6.7,13.686,13.686,0,0,0,0-13.392,13.686,13.686,0,0,0,0-13.392Z" transform="translate(-488.487 -264.377)" fill="#3f3d56"/>
      <ellipse id="Ellipse_116" data-name="Ellipse 116" cx="8.369" cy="10.957" rx="8.369" ry="10.957" transform="translate(31.542 159.236)" fill="#3f3d56"/>
      <ellipse id="Ellipse_117" data-name="Ellipse 117" cx="8.369" cy="10.957" rx="8.369" ry="10.957" transform="translate(31.542 145.844)" fill="#3f3d56"/>
      <path id="Path_422" data-name="Path 422" d="M485.732,267.42a39.037,39.037,0,0,1-3.118-4.589L504.6,259.22l-23.783.176a40.168,40.168,0,0,1-.735-31.769l31.909,16.554-29.416-21.635A40.1,40.1,0,1,1,548.763,267.4a40.108,40.108,0,0,1,4.574,7.31l-28.556,14.87L555.22,279.37a40.1,40.1,0,0,1-6.464,37.652,40.094,40.094,0,1,1-63.024,0,40.094,40.094,0,0,1,0-49.581Z" transform="translate(-477.149 -202.271)" fill="#64b5f6"/>
      <path id="Path_423" data-name="Path 423" d="M557.338,324.357a39.909,39.909,0,0,1-8.582,24.79,40.094,40.094,0,1,1-63.024,0C480.356,342.323,557.338,319.857,557.338,324.357Z" transform="translate(-477.149 -234.419)" opacity="0.1"/>
    </g>
    <g id="Group_7" data-name="Group 7" transform="translate(420.444 65.704)" opacity="0.1">
      <ellipse id="Ellipse_118" data-name="Ellipse 118" cx="6.258" cy="8.185" rx="6.258" ry="8.185" transform="translate(23.569 168.89)" fill="#3f3d56"/>
      <path id="Path_424" data-name="Path 424" d="M666.967,440.513a9.876,9.876,0,0,0,1.3-5c0-4.523-2.8-8.192-6.251-8.192s-6.258,3.677-6.258,8.192a9.8,9.8,0,0,0,1.309,5,10.222,10.222,0,0,0,0,10.009,10.222,10.222,0,0,0,0,10.009,9.8,9.8,0,0,0-1.309,5c0,4.523,2.8,8.192,6.258,8.192s6.251-3.677,6.251-8.192a9.876,9.876,0,0,0-1.3-5,10.3,10.3,0,0,0,0-10.009A10.3,10.3,0,0,0,666.967,440.513Z" transform="translate(-632.198 -298.465)" fill="#3f3d56"/>
      <ellipse id="Ellipse_119" data-name="Ellipse 119" cx="6.258" cy="8.185" rx="6.258" ry="8.185" transform="translate(23.569 118.853)" fill="#3f3d56"/>
      <ellipse id="Ellipse_120" data-name="Ellipse 120" cx="6.258" cy="8.185" rx="6.258" ry="8.185" transform="translate(23.569 108.844)" fill="#3f3d56"/>
      <path id="Path_425" data-name="Path 425" d="M630.133,300.645a28.677,28.677,0,0,1-2.331-3.427l16.436-2.7-17.775.132a30.034,30.034,0,0,1-.574-23.746l23.849,12.377-22-16.179a29.968,29.968,0,1,1,49.485,33.534,30.306,30.306,0,0,1,3.42,5.464l-21.327,11.082,22.746-7.633a29.975,29.975,0,0,1-4.832,28.136,29.96,29.96,0,1,1-47.066,0,29.96,29.96,0,0,1,0-37.05Z" transform="translate(-623.72 -252.103)" fill="#64b5f6"/>
      <path id="Path_426" data-name="Path 426" d="M683.646,343.141a29.836,29.836,0,0,1-6.413,18.525,29.96,29.96,0,1,1-47.066,0C626.137,356.57,683.646,339.781,683.646,343.141Z" transform="translate(-623.725 -276.075)" opacity="0.1"/>
    </g>
    <g id="Group_8" data-name="Group 8" transform="translate(723.298 -0.359)" opacity="0.1">
      <ellipse id="Ellipse_121" data-name="Ellipse 121" cx="8.369" cy="10.957" rx="8.369" ry="10.957" transform="translate(32.107 226.194)" fill="#3f3d56"/>
      <path id="Path_427" data-name="Path 427" d="M1080.94,414.647a13.236,13.236,0,0,1-1.75-6.7c0-6.052,3.751-10.957,8.376-10.957s8.369,4.905,8.369,10.958a13.237,13.237,0,0,1-1.75,6.7,13.686,13.686,0,0,1,0,13.392,13.686,13.686,0,0,1,0,13.392,13.193,13.193,0,0,1,1.75,6.7c0,6.045-3.75,10.957-8.369,10.957s-8.376-4.912-8.376-10.957a13.193,13.193,0,0,1,1.75-6.7,13.686,13.686,0,0,1,0-13.392A13.686,13.686,0,0,1,1080.94,414.647Z" transform="translate(-1047.09 -224.377)" fill="#3f3d56"/>
      <ellipse id="Ellipse_122" data-name="Ellipse 122" cx="8.369" cy="10.957" rx="8.369" ry="10.957" transform="translate(32.107 159.236)" fill="#3f3d56"/>
      <ellipse id="Ellipse_123" data-name="Ellipse 123" cx="8.369" cy="10.957" rx="8.369" ry="10.957" transform="translate(32.107 145.844)" fill="#3f3d56"/>
      <path id="Path_428" data-name="Path 428" d="M1107.345,227.42a39.023,39.023,0,0,0,3.118-4.589l-21.989-3.611,23.783.176a40.168,40.168,0,0,0,.735-31.769l-31.909,16.554,29.416-21.636a40.1,40.1,0,1,0-66.186,44.859,40.115,40.115,0,0,0-4.574,7.31l28.556,14.87-30.438-10.215a40.1,40.1,0,0,0,6.464,37.653,40.094,40.094,0,1,0,63.024,0,40.094,40.094,0,0,0,0-49.581Z" transform="translate(-1035.541 -162.271)" fill="#64b5f6"/>
      <path id="Path_429" data-name="Path 429" d="M1035.81,284.357a39.91,39.91,0,0,0,8.582,24.79,40.094,40.094,0,1,0,63.024,0C1112.792,302.323,1035.81,279.857,1035.81,284.357Z" transform="translate(-1035.612 -194.419)" opacity="0.1"/>
    </g>
    <g id="Group_9" data-name="Group 9" transform="translate(652.857 61.291)" opacity="0.1">
      <ellipse id="Ellipse_124" data-name="Ellipse 124" cx="6.258" cy="8.185" rx="6.258" ry="8.185" transform="translate(23.866 168.89)" fill="#3f3d56"/>
      <path id="Path_430" data-name="Path 430" d="M973.531,434.513a9.876,9.876,0,0,1-1.3-5c0-4.523,2.8-8.192,6.251-8.192s6.258,3.677,6.258,8.192a9.8,9.8,0,0,1-1.309,5,10.222,10.222,0,0,1,0,10.009,10.222,10.222,0,0,1,0,10.009,9.8,9.8,0,0,1,1.309,5c0,4.523-2.8,8.192-6.258,8.192s-6.251-3.677-6.251-8.192a9.875,9.875,0,0,1,1.3-5,10.3,10.3,0,0,1,0-10.009,10.3,10.3,0,0,1,0-10.009Z" transform="translate(-948.349 -292.465)" fill="#3f3d56"/>
      <ellipse id="Ellipse_125" data-name="Ellipse 125" cx="6.258" cy="8.185" rx="6.258" ry="8.185" transform="translate(23.866 118.853)" fill="#3f3d56"/>
      <ellipse id="Ellipse_126" data-name="Ellipse 126" cx="6.258" cy="8.185" rx="6.258" ry="8.185" transform="translate(23.866 108.845)" fill="#3f3d56"/>
      <path id="Path_431" data-name="Path 431" d="M993.3,294.645a28.66,28.66,0,0,0,2.331-3.427l-16.436-2.7,17.775.132a30.033,30.033,0,0,0,.574-23.746L973.69,277.282l22-16.179A29.968,29.968,0,1,0,946.2,294.637a30.3,30.3,0,0,0-3.42,5.464l21.327,11.083-22.7-7.626a29.975,29.975,0,0,0,4.832,28.136,29.96,29.96,0,1,0,47.066,0,29.96,29.96,0,0,0,0-37.05Z" transform="translate(-939.756 -246.103)" fill="#64b5f6"/>
      <path id="Path_432" data-name="Path 432" d="M939.794,337.141a29.836,29.836,0,0,0,6.413,18.525,29.96,29.96,0,1,0,47.066,0C997.3,350.57,939.794,333.781,939.794,337.141Z" transform="translate(-939.762 -270.075)" opacity="0.1"/>
    </g>
    <g id="Group_10" data-name="Group 10" transform="translate(5.375 -0.236)" opacity="0.1">
      <ellipse id="Ellipse_127" data-name="Ellipse 127" cx="8.369" cy="10.957" rx="8.369" ry="10.957" transform="translate(31.549 226.071)" fill="#3f3d56"/>
      <path id="Path_433" data-name="Path 433" d="M117.2,414.647a13.237,13.237,0,0,0,1.75-6.7c0-6.052-3.751-10.958-8.369-10.958s-8.369,4.905-8.369,10.958a13.237,13.237,0,0,0,1.743,6.7,13.73,13.73,0,0,0,0,13.392,13.73,13.73,0,0,0,0,13.392,13.186,13.186,0,0,0-1.743,6.7c0,6.045,3.743,10.957,8.369,10.957s8.391-4.9,8.391-10.943a13.193,13.193,0,0,0-1.75-6.7,13.686,13.686,0,0,0,0-13.392,13.686,13.686,0,0,0,0-13.392Z" transform="translate(-70.66 -224.501)" fill="#3f3d56"/>
      <ellipse id="Ellipse_128" data-name="Ellipse 128" cx="8.369" cy="10.957" rx="8.369" ry="10.957" transform="translate(31.549 159.112)" fill="#3f3d56"/>
      <ellipse id="Ellipse_129" data-name="Ellipse 129" cx="8.369" cy="10.957" rx="8.369" ry="10.957" transform="translate(31.549 145.721)" fill="#3f3d56"/>
      <path id="Path_434" data-name="Path 434" d="M67.907,227.464a39.954,39.954,0,0,1-3.118-4.589l22-3.611-23.8.213a40.168,40.168,0,0,1-.735-31.769L94.16,204.262,64.744,182.626a40.094,40.094,0,1,1,66.186,44.859,40.107,40.107,0,0,1,4.574,7.31l-28.563,14.833,30.446-10.215a40.146,40.146,0,0,1-6.472,37.653,40.094,40.094,0,1,1-63.024,0,40.094,40.094,0,0,1,0-49.581Z" transform="translate(-59.309 -162.439)" fill="#64b5f6"/>
      <path id="Path_435" data-name="Path 435" d="M139.5,284.357a39.91,39.91,0,0,1-8.582,24.79,40.094,40.094,0,1,1-63.024,0C62.516,302.323,139.5,279.857,139.5,284.357Z" transform="translate(-59.309 -194.542)" opacity="0.1"/>
    </g>
    <g id="Group_11" data-name="Group 11" transform="translate(96.25 61.291)" opacity="0.1">
      <ellipse id="Ellipse_130" data-name="Ellipse 130" cx="6.258" cy="8.185" rx="6.258" ry="8.185" transform="translate(23.569 168.89)" fill="#3f3d56"/>
      <path id="Path_436" data-name="Path 436" d="M226.137,434.513a9.876,9.876,0,0,0,1.3-5c0-4.523-2.795-8.192-6.251-8.192s-6.258,3.677-6.258,8.192a9.876,9.876,0,0,0,1.309,5,10.222,10.222,0,0,0,0,10.009,10.222,10.222,0,0,0,0,10.009,9.877,9.877,0,0,0-1.309,5c0,4.523,2.8,8.192,6.258,8.192s6.251-3.677,6.251-8.192a9.877,9.877,0,0,0-1.3-5,10.3,10.3,0,0,0,0-10.009,10.3,10.3,0,0,0,0-10.009Z" transform="translate(-191.36 -292.465)" fill="#3f3d56"/>
      <ellipse id="Ellipse_131" data-name="Ellipse 131" cx="6.258" cy="8.185" rx="6.258" ry="8.185" transform="translate(23.569 118.853)" fill="#3f3d56"/>
      <ellipse id="Ellipse_132" data-name="Ellipse 132" cx="6.258" cy="8.185" rx="6.258" ry="8.185" transform="translate(23.569 108.845)" fill="#3f3d56"/>
      <path id="Path_437" data-name="Path 437" d="M189.293,294.645a29.565,29.565,0,0,1-2.331-3.427l16.436-2.7-17.775.132a30.034,30.034,0,0,1-.574-23.746L208.9,277.282l-22-16.179a29.968,29.968,0,1,1,49.485,33.534,29.505,29.505,0,0,1,3.42,5.464l-21.327,11.083,22.746-7.633a29.975,29.975,0,0,1-4.832,28.137,29.96,29.96,0,1,1-47.066,0,29.96,29.96,0,0,1,0-37.05Z" transform="translate(-182.88 -246.103)" fill="#64b5f6"/>
      <path id="Path_438" data-name="Path 438" d="M242.806,337.141a29.835,29.835,0,0,1-6.413,18.525,29.96,29.96,0,1,1-47.066,0C185.283,350.57,242.806,333.781,242.806,337.141Z" transform="translate(-182.885 -270.075)" opacity="0.1"/>
    </g>
    <ellipse id="Ellipse_133" data-name="Ellipse 133" cx="403" cy="6.516" rx="403" ry="6.516" transform="translate(0 356.038)" fill="#64b5f6" opacity="0.1"/>
    <ellipse id="Ellipse_134" data-name="Ellipse 134" cx="403" cy="6.516" rx="403" ry="6.516" transform="translate(0 409.538)" fill="#64b5f6" opacity="0.1"/>
    <ellipse id="Ellipse_135" data-name="Ellipse 135" cx="403" cy="6.516" rx="403" ry="6.516" transform="translate(0 244.382)" fill="#64b5f6" opacity="0.1"/>
    <ellipse id="Ellipse_136" data-name="Ellipse 136" cx="403" cy="6.516" rx="403" ry="6.516" transform="translate(0 300.206)" fill="#64b5f6" opacity="0.1"/>
    <path id="Path_439" data-name="Path 439" d="M846.282,266.554a13.458,13.458,0,0,0-7.8.853,11.509,11.509,0,0,1-9.369,0,13.149,13.149,0,0,0-11.031.213,6.8,6.8,0,0,1-3.17.794c-4.471,0-8.185-4.5-8.957-10.435a8.736,8.736,0,0,0,2.206-2.4c2.618-4.221,6.67-6.935,11.23-6.935s8.56,2.677,11.178,6.854a8.589,8.589,0,0,0,7.42,4.074h.118C841.708,259.531,844.789,262.385,846.282,266.554Z" transform="translate(-251.497 -185.483)" fill="#64b5f6" opacity="0.1"/>
    <path id="Path_440" data-name="Path 440" d="M859.889,241.937l-7.222,4.574,4.412-7.972a7.134,7.134,0,0,0-4.368-1.552h-.118a8.348,8.348,0,0,1-1.471-.11l-2.486,1.552,1.052-1.912a8.671,8.671,0,0,1-4.288-3.25l-4.412,2.78,2.765-5.03a12.815,12.815,0,0,0-9.81-4.957c-4.559,0-8.611,2.706-11.237,6.927a8.391,8.391,0,0,1-7.42,4h-.243c-5.03,0-9.1,5.7-9.1,12.73s4.074,12.737,9.1,12.737a6.9,6.9,0,0,0,3.17-.794,13.134,13.134,0,0,1,11.031-.221,11.435,11.435,0,0,0,9.369,0,13.178,13.178,0,0,1,10.928.213,6.84,6.84,0,0,0,3.133.779c5.03,0,9.1-5.707,9.1-12.737a16.127,16.127,0,0,0-1.89-7.758Z" transform="translate(-251.491 -179.508)" fill="#64b5f6" opacity="0.1"/>
    <path id="Path_441" data-name="Path 441" d="M433.11,263.079a9.443,9.443,0,0,0-5.464.6,8.03,8.03,0,0,1-6.552,0,9.178,9.178,0,0,0-7.714.154,4.869,4.869,0,0,1-2.206.552c-3.125,0-5.729-3.148-6.273-7.3a6.118,6.118,0,0,0,1.566-1.684c1.831-2.942,4.67-4.854,7.861-4.854a9.365,9.365,0,0,1,7.825,4.795,6.023,6.023,0,0,0,5.2,2.853h.081C429.9,258.173,432.058,260.174,433.11,263.079Z" transform="translate(-145.377 -185.986)" fill="#64b5f6" opacity="0.1"/>
    <path id="Path_442" data-name="Path 442" d="M442.628,245.859l-5.052,3.206,3.067-5.582a4.964,4.964,0,0,0-3.052-1.088H437.5a5.509,5.509,0,0,1-1.044-.081l-1.713,1.088.735-1.338a6.1,6.1,0,0,1-3-2.272l-3.067,1.941,1.941-3.515a8.979,8.979,0,0,0-6.869-3.478,9.406,9.406,0,0,0-7.861,4.854,5.883,5.883,0,0,1-5.2,2.8h-.169c-3.523,0-6.376,3.986-6.376,8.913s2.853,8.913,6.376,8.913a4.78,4.78,0,0,0,2.206-.559,9.193,9.193,0,0,1,7.707-.147,7.9,7.9,0,0,0,6.56.044,9.222,9.222,0,0,1,7.648.147,4.765,4.765,0,0,0,2.206.544c3.515,0,6.369-3.993,6.369-8.913a11.274,11.274,0,0,0-1.324-5.479Z" transform="translate(-145.372 -181.805)" fill="#64b5f6" opacity="0.1"/>
    <path id="Path_443" data-name="Path 443" d="M321.59,341.489a9.428,9.428,0,0,1,5.457.6,8.045,8.045,0,0,0,6.56,0,9.207,9.207,0,0,1,7.714.147,4.758,4.758,0,0,0,2.206.559c3.125,0,5.729-3.155,6.266-7.31a5.993,5.993,0,0,1-1.559-1.684c-1.838-2.942-4.677-4.846-7.861-4.846a9.38,9.38,0,0,0-7.832,4.795,6.023,6.023,0,0,1-5.192,2.853h-.081C324.789,336.613,322.627,338.606,321.59,341.489Z" transform="translate(-123.333 -206.733)" fill="#64b5f6" opacity="0.1"/>
    <path id="Path_444" data-name="Path 444" d="M308.161,324.3l5.06,3.206-3.074-5.574a4.993,4.993,0,0,1,3.059-1.1h.081a6.278,6.278,0,0,0,1.052-.074l1.714,1.081-.735-1.331a6.1,6.1,0,0,0,2.993-2.272l3.067,1.942-1.912-3.523a8.972,8.972,0,0,1,6.869-3.471,9.416,9.416,0,0,1,7.861,4.854,5.883,5.883,0,0,0,5.192,2.8h.176c3.515,0,6.369,3.993,6.369,8.913s-2.853,8.913-6.369,8.913a4.773,4.773,0,0,1-2.206-.552,9.178,9.178,0,0,0-7.714-.154,7.987,7.987,0,0,1-3.295.735,8.089,8.089,0,0,1-3.265-.691,9.207,9.207,0,0,0-7.641.147,4.765,4.765,0,0,1-2.206.544c-3.523,0-6.376-3.986-6.376-8.913a11.355,11.355,0,0,1,1.3-5.486Z" transform="translate(-119.435 -202.563)" fill="#64b5f6" opacity="0.1"/>
    <path id="Path_445" data-name="Path 445" d="M713.341,624.716c1.919-3.559-.257-7.913-2.758-11.083s-5.56-6.471-5.493-10.509c.1-5.8,6.258-9.237,11.178-12.311a54.644,54.644,0,0,0,10.038-8.089,14.8,14.8,0,0,0,3.081-4.133c1.022-2.265.993-4.854.927-7.354q-.316-12.421-1.228-24.827" transform="translate(-224.806 -264.273)" fill="none" stroke="#3f3d56" stroke-miterlimit="10" stroke-width="4"/>
    <path id="Path_446" data-name="Path 446" d="M743.939,542.743a9.053,9.053,0,0,0-4.523-7.42l-2.03,4.008.066-4.854a9.053,9.053,0,1,0,6.486,8.266Z" transform="translate(-230.298 -261.017)" fill="#64b5f6"/>
    <path id="Path_447" data-name="Path 447" d="M722.336,624.451a9.053,9.053,0,0,1-17.091-3.677,8.825,8.825,0,0,1,.588-3.677,9.06,9.06,0,0,1,16.914.1l-5.655,4.6,6.221-1.471A9,9,0,0,1,722.336,624.451Z" transform="translate(-224.844 -281.451)" fill="#64b5f6"/>
    <path id="Path_448" data-name="Path 448" d="M719,598.757A9.053,9.053,0,0,1,716.131,581l-.051,3.728,2.052-4.059h0a9.055,9.055,0,0,1,.846,18.091Z" transform="translate(-225.979 -273.334)" fill="#64b5f6"/>
    <path id="Path_449" data-name="Path 449" d="M748.874,578.87a9.053,9.053,0,1,1,4-16.914l-1.6,4.412,3.258-3.221a9.053,9.053,0,0,1-5.692,15.715Z" transform="translate(-233.873 -268.074)" fill="#64b5f6"/>
    <path id="Path_450" data-name="Path 450" d="M742.713,546.942c-2.089.228-4.118.875-6.222,1.008s-4.412-.375-5.721-2a29.035,29.035,0,0,1-1.677-2.942,6.443,6.443,0,0,0-2.28-2.147,9.053,9.053,0,1,0,16.914,6.016C743.4,546.883,743.051,546.9,742.713,546.942Z" transform="translate(-230.293 -262.804)" opacity="0.1"/>
    <path id="Path_451" data-name="Path 451" d="M748.889,580.734a9.053,9.053,0,0,1-8.612-12.914,6.7,6.7,0,0,1,1.817,1.824,30.664,30.664,0,0,0,1.794,2.993c1.412,1.655,3.824,2.206,6.008,2.1s4.295-.735,6.471-.919c.3,0,.6-.044.912-.051A9.053,9.053,0,0,1,748.889,580.734Z" transform="translate(-233.887 -269.938)" opacity="0.1"/>
    <path id="Path_452" data-name="Path 452" d="M719,600.685a9.053,9.053,0,0,1-8.685-12.744,7.354,7.354,0,0,1,1.919,1.838,30.3,30.3,0,0,0,1.964,3.052c1.522,1.7,4.1,2.3,6.405,2.206s4.412-.6,6.619-.735A9.067,9.067,0,0,1,719,600.685Z" transform="translate(-225.98 -275.261)" opacity="0.1"/>
    <path id="Path_453" data-name="Path 453" d="M722.336,626.524a9.053,9.053,0,0,1-17.091-3.677,8.825,8.825,0,0,1,.588-3.677,9.037,9.037,0,0,1,1.986,1.772c.86,1.044,1.427,2.206,2.427,3.214,1.846,1.816,4.839,2.567,7.494,2.633A38.023,38.023,0,0,0,722.336,626.524Z" transform="translate(-224.844 -283.525)" opacity="0.1"/>
    <path id="Path_454" data-name="Path 454" d="M103.341,552.716c1.919-3.559-.257-7.913-2.758-11.083s-5.56-6.486-5.493-10.509c.1-5.8,6.258-9.237,11.178-12.311a54.642,54.642,0,0,0,10.038-8.089,14.8,14.8,0,0,0,3.081-4.133c1.022-2.265.993-4.854.927-7.354q-.324-12.421-1.228-24.827" transform="translate(-63.401 -245.221)" fill="none" stroke="#3f3d56" stroke-miterlimit="10" stroke-width="4"/>
    <path id="Path_455" data-name="Path 455" d="M133.939,470.743a9.053,9.053,0,0,0-4.523-7.42l-2.03,4.008.066-4.854a9.053,9.053,0,1,0,6.486,8.266Z" transform="translate(-68.893 -241.966)" fill="#64b5f6"/>
    <path id="Path_456" data-name="Path 456" d="M112.336,552.451a9.053,9.053,0,0,1-17.091-3.677,8.825,8.825,0,0,1,.588-3.677,9.06,9.06,0,0,1,16.914.1l-5.655,4.6,6.222-1.471a9,9,0,0,1-.978,4.126Z" transform="translate(-63.439 -262.4)" fill="#64b5f6"/>
    <path id="Path_457" data-name="Path 457" d="M109,526.757A9.053,9.053,0,0,1,106.131,509l-.051,3.728,2.052-4.059h0a9.055,9.055,0,0,1,.846,18.091Z" transform="translate(-64.574 -254.283)" fill="#64b5f6"/>
    <path id="Path_458" data-name="Path 458" d="M138.875,506.87a9.053,9.053,0,1,1,4-16.914l-1.6,4.412,3.258-3.221a9.053,9.053,0,0,1-5.692,15.716Z" transform="translate(-72.468 -249.023)" fill="#64b5f6"/>
    <path id="Path_459" data-name="Path 459" d="M132.713,474.942c-2.089.228-4.118.875-6.222,1.007s-4.412-.375-5.721-2a29.032,29.032,0,0,1-1.677-2.942,6.442,6.442,0,0,0-2.28-2.147,9.053,9.053,0,1,0,16.914,6.016C133.4,474.883,133.051,474.9,132.713,474.942Z" transform="translate(-68.888 -243.753)" opacity="0.1"/>
    <path id="Path_460" data-name="Path 460" d="M138.889,508.734a9.053,9.053,0,0,1-8.612-12.914,6.7,6.7,0,0,1,1.816,1.824,30.675,30.675,0,0,0,1.794,2.993c1.412,1.655,3.824,2.206,6.008,2.1s4.295-.735,6.472-.919c.3,0,.6-.044.912-.051A9.053,9.053,0,0,1,138.889,508.734Z" transform="translate(-72.482 -250.886)" opacity="0.1"/>
    <path id="Path_461" data-name="Path 461" d="M109,528.684a9.053,9.053,0,0,1-8.685-12.744,7.354,7.354,0,0,1,1.919,1.838,30.326,30.326,0,0,0,1.964,3.052c1.522,1.7,4.1,2.3,6.405,2.206s4.412-.6,6.619-.735A9.068,9.068,0,0,1,109,528.684Z" transform="translate(-64.575 -256.21)" opacity="0.1"/>
    <path id="Path_462" data-name="Path 462" d="M112.336,554.524a9.053,9.053,0,0,1-17.091-3.677,8.825,8.825,0,0,1,.588-3.677,9.039,9.039,0,0,1,1.986,1.772c.86,1.044,1.427,2.206,2.427,3.214,1.846,1.816,4.839,2.567,7.494,2.633a38.012,38.012,0,0,0,4.6-.265Z" transform="translate(-63.439 -264.474)" opacity="0.1"/>
    <path id="Path_463" data-name="Path 463" d="M506.4,470.351c-1.919-3.552.257-7.906,2.765-11.075s5.552-6.472,5.486-10.509c-.088-5.81-6.251-9.237-11.178-12.311a54.419,54.419,0,0,1-10.031-8.089,14.545,14.545,0,0,1-3.089-4.126c-1.015-2.272-.985-4.854-.927-7.354q.331-12.421,1.228-24.827" transform="translate(-167.737 -223.432)" fill="none" stroke="#3f3d56" stroke-miterlimit="10" stroke-width="4"/>
    <path id="Path_464" data-name="Path 464" d="M478.386,388.383a9.046,9.046,0,0,1,4.515-7.42l2.03,4.008-.059-4.854a9.281,9.281,0,0,1,2.978-.36,9.053,9.053,0,1,1-9.465,8.626Z" transform="translate(-164.819 -220.174)" fill="#64b5f6"/>
    <path id="Path_465" data-name="Path 465" d="M499.98,470.064a9.053,9.053,0,1,0-.434-7.288l5.655,4.6-6.221-1.471a9,9,0,0,0,1,4.155Z" transform="translate(-170.27 -240.582)" fill="#64b5f6"/>
    <path id="Path_466" data-name="Path 466" d="M503.315,444.4a9.053,9.053,0,0,0,2.875-17.76l.044,3.729-2.052-4.059h0a9.053,9.053,0,0,0-9.487,8.6,8.942,8.942,0,0,0,.39,3.089,9.045,9.045,0,0,0,8.229,6.405Z" transform="translate(-169.134 -232.49)" fill="#64b5f6"/>
    <path id="Path_467" data-name="Path 467" d="M473.427,424.49a9.053,9.053,0,1,0-4.008-16.914l1.6,4.412-3.295-3.155a8.979,8.979,0,0,0-2.942,6.251,8.755,8.755,0,0,0,.228,2.493,9.045,9.045,0,0,0,8.413,6.913Z" transform="translate(-161.219 -227.225)" fill="#64b5f6"/>
    <path id="Path_468" data-name="Path 468" d="M479.685,392.582c2.089.228,4.118.875,6.214,1.008s4.412-.375,5.729-2a28.971,28.971,0,0,0,1.669-2.942,6.463,6.463,0,0,1,2.287-2.147,9.053,9.053,0,1,1-16.914,6.008C479,392.516,479.339,392.545,479.685,392.582Z" transform="translate(-164.896 -221.961)" opacity="0.1"/>
    <path id="Path_469" data-name="Path 469" d="M473.521,426.354a9.06,9.06,0,0,0,8.612-12.914,6.729,6.729,0,0,0-1.824,1.824,30.681,30.681,0,0,1-1.794,2.993c-1.4,1.655-3.817,2.206-6,2.1s-4.295-.735-6.472-.919c-.3,0-.61-.044-.912-.051a9.045,9.045,0,0,0,8.391,6.972Z" transform="translate(-161.314 -229.089)" opacity="0.1"/>
    <path id="Path_470" data-name="Path 470" d="M503.462,446.324a9.045,9.045,0,0,0,8.685-12.744,7.228,7.228,0,0,0-1.912,1.839,30.337,30.337,0,0,1-1.964,3.052c-1.53,1.7-4.1,2.3-6.413,2.206s-4.412-.6-6.619-.735a9.045,9.045,0,0,0,8.222,6.383Z" transform="translate(-169.281 -234.418)" opacity="0.1"/>
    <path id="Path_471" data-name="Path 471" d="M500.34,472.164a9.053,9.053,0,0,0,16.51-7.354,8.694,8.694,0,0,0-1.986,1.772c-.86,1.044-1.471,2.206-2.427,3.214-1.853,1.816-4.839,2.567-7.5,2.633A39.692,39.692,0,0,1,500.34,472.164Z" transform="translate(-170.63 -242.681)" opacity="0.1"/>
    <circle id="Ellipse_137" data-name="Ellipse 137" cx="73.511" cy="73.511" r="73.511" transform="translate(499.904 101.552)" fill="#3f3d56"/>
    <path id="Path_472" data-name="Path 472" d="M851.231,407.713c-2.559-2.559-8.714-6.42-11.766-7.861-3.523-1.691-4.817-1.662-7.31.14-2.074,1.471-3.42,2.89-5.8,2.368s-7.1-4.081-11.671-8.634-8.112-9.244-8.619-11.663.89-3.736,2.375-5.81c1.794-2.493,1.846-3.787.14-7.31-1.471-3.052-5.288-9.193-7.869-11.766s-3.14-2.008-4.552-1.471a26.326,26.326,0,0,0-4.17,2.206c-2.559,1.713-3.993,3.14-5,5.288s-2.147,6.133,3.714,16.569a92.433,92.433,0,0,0,16.252,21.672h0A92.57,92.57,0,0,0,828.7,417.722c10.428,5.883,14.421,4.714,16.569,3.714s3.574-2.42,5.28-5a25.974,25.974,0,0,0,2.206-4.17C853.239,410.853,853.812,410.28,851.231,407.713Z" transform="translate(-246.26 -213.691)" fill="#64b5f6"/>
    <path id="Path_473" data-name="Path 473" d="M805.257,300.86a73.54,73.54,0,1,0,73.5,73.516A73.54,73.54,0,0,0,805.257,300.86Zm0,137.241a63.737,63.737,0,1,1,63.737-63.737A63.737,63.737,0,0,1,805.257,438.1Z" transform="translate(-231.842 -199.3)" opacity="0.1"/>
    <circle id="Ellipse_138" data-name="Ellipse 138" cx="73.511" cy="73.511" r="73.511" transform="translate(331.019 213.208)" fill="#3f3d56"/>
    <path id="Path_474" data-name="Path 474" d="M628.583,522.384l-22.011,22.393a.4.4,0,0,0,0,.574l15.443,16.422a2.657,2.657,0,1,1-3.758,3.758L602.9,549.167a.419.419,0,0,0-.588,0l-3.743,3.78A16.452,16.452,0,0,1,586.8,557.9a16.811,16.811,0,0,1-11.972-5.089l-3.6-3.677a.419.419,0,0,0-.588,0l-15.326,16.326a2.657,2.657,0,1,1-3.758-3.758l15.384-16.385a.441.441,0,0,0,0-.574l-22.011-22.393a.4.4,0,0,0-.691.287v44.808a6.56,6.56,0,0,0,6.538,6.538h71.974a6.56,6.56,0,0,0,6.538-6.538V522.671a.4.4,0,0,0-.706-.287Z" transform="translate(-182.246 -257.874)" fill="#64b5f6"/>
    <path id="Path_475" data-name="Path 475" d="M587.678,550.04a11.134,11.134,0,0,0,8.031-3.309l32.056-32.63a6.4,6.4,0,0,0-4.045-1.471H551.695a6.354,6.354,0,0,0-4.045,1.471l32.063,32.63A11.09,11.09,0,0,0,587.678,550.04Z" transform="translate(-183.148 -255.334)" fill="#64b5f6"/>
    <path id="Path_476" data-name="Path 476" d="M574.347,452.69a73.54,73.54,0,1,0,73.5,73.516A73.54,73.54,0,0,0,574.347,452.69Zm0,137.241a63.737,63.737,0,1,1,63.737-63.737,63.737,63.737,0,0,1-63.737,63.737Z" transform="translate(-170.744 -239.474)" opacity="0.1"/>
    <circle id="Ellipse_139" data-name="Ellipse 139" cx="73.511" cy="73.511" r="73.511" transform="translate(156.56 158.311)" fill="#3f3d56"/>
    <path id="Path_477" data-name="Path 477" d="M354.306,430.16,325,497.773l2.736,2.736,26.577-11.722,26.577,11.722,2.736-2.736Z" transform="translate(-124.235 -233.513)" fill="#64b5f6"/>
    <!-- <path id="Path_478" data-name="Path 478" d="M338.377,378a73.5,73.5,0,1,0,.012,0Zm0,137.241a52.483,52.483,0,1,1,.007.029Z" transform="translate(-108.307 -219.712)" opacity="0.1"/> -->
    <path id="Path_479" data-name="Path 479" d="M828.3,592.391q-1-2.442-2.052-4.868a14.449,14.449,0,0,0-2.508-4.332,4.589,4.589,0,0,0-1.471-1.1,6.274,6.274,0,0,0-1.919-.383,15.325,15.325,0,0,0-3.015-.081c-.39-.118-.831-.272-1.265-.449a10.5,10.5,0,0,0,7.825-9.744c0-.147,0-.3,0-.449a10.479,10.479,0,0,0-10.435-10.524,10.3,10.3,0,0,0-5.479,1.566,9.832,9.832,0,0,0-11.031,5.317,12.156,12.156,0,0,0-3.751,9.045v.463c.191,5.714,3.883,10.3,8.545,10.759a4.9,4.9,0,0,0-1.353.9c-1.427,1.375-1.662,3.559-1.816,5.545l-.11,1.471-2.471.883a.456.456,0,0,0-.11.8l2.361,1.684v.419a1.838,1.838,0,0,0,.044.478,3.376,3.376,0,0,0-.912,1.3,6.014,6.014,0,0,0-.213,2.383l.088,2.052a16.109,16.109,0,0,0,.625,4.567c.309.912,1.647,3.111,2.611,3.126-.89,4.045-1.125,12.575-1.125,12.575-.11.11.2.213.735.3.529,4.059,2.258,15.443,5.324,20.451a43.149,43.149,0,0,1,1.155,4.971s.875,10.818,2.03,14.031c.985,2.736,1.765,9.487,1.978,11.443a1.125,1.125,0,0,0-.816.838c-.581,1.75-4.346,4.412-4.346,4.412a18.211,18.211,0,0,0-3.25,2.081c-1.184,1.066-1.14,2.03,4.118,1.427,10.149-1.169,11.884-4.412,11.884-4.412s-.162-.544-.4-1.25a13.576,13.576,0,0,0-1.331-3.14c-.147-.14-.294.1-.471.463a62.964,62.964,0,0,1-.691-14.2s.287-4.971-1.162-8.479a16.051,16.051,0,0,1,0-5.552c.581-2.339-2.317-13.745-2.317-13.745l-1.662-8.4a2.412,2.412,0,0,1,.463.978l.044.169.044.243a.457.457,0,0,0,.118.228c1.133,4.707,4.236,17.745,4.236,19.657,0,2.339,2.9,8.185,2.9,8.185s1.155,9.648,3.184,13.443c1.544,2.89,1.581,7.126,1.508,8.994h0s-.346,2.4-.927,2.986a7.1,7.1,0,0,0-1.1,1.9l-.066.14s-.868,1.758-.287,2.052a14.244,14.244,0,0,0,6.957.875s1.162-1.471,1.162-2.044a9.23,9.23,0,0,0-.132-1.044c-.213-1.382-.61-3.559-.618-3.581.243-.941-.735-3.559-.735-3.559l-.294-8.185a37.786,37.786,0,0,0-2.03-16.377s-1.471-5.258-1.155-6.722-.581-16.958-.581-16.958l-.088-.221a16.759,16.759,0,0,1,.088-3.287c.287-3.508-.868-10.818-1.162-11.1a9.638,9.638,0,0,1-.412-2.419c.066-.61.265-2.4.537-4.618a83.032,83.032,0,0,0,8.545-.735,1.066,1.066,0,0,0,.735-.294,1.03,1.03,0,0,0,.169-.6C831.58,600.745,829.969,596.465,828.3,592.391Zm-5.832,9.273c.3-2.1.625-4.126.949-5.633l.044.132a40.916,40.916,0,0,1,1.4,4.633A15.778,15.778,0,0,1,822.468,601.665Z" transform="translate(-248.119 -267.99)" fill="url(#linear-gradient)"/>
    <path id="Path_480" data-name="Path 480" d="M802.37,648.474s1.736,15.612,5.493,21.68a42.078,42.078,0,0,1,1.155,4.913s.868,10.693,2.022,13.87,2.022,11.855,2.022,11.855,4.045,4.618,5.493.868a60.909,60.909,0,0,1-.868-15.031s.287-4.913-1.155-8.384a15.679,15.679,0,0,1,0-5.486c.574-2.317-2.317-13.583-2.317-13.583L811.908,647.9Z" transform="translate(-250.547 -291.127)" fill="#be6f72"/>
    <path id="Path_481" data-name="Path 481" d="M821.164,723.353s-1.736,3.177-11.847,4.332c-5.251.6-5.288-.353-4.1-1.412a18.307,18.307,0,0,1,3.236-2.059s3.758-2.6,4.332-4.332,2.6-.287,2.6-.287c2.89,4.332,3.471-1.162,4.045-.581a13.042,13.042,0,0,1,1.331,3.1C821,722.809,821.164,723.353,821.164,723.353Z" transform="translate(-251.132 -309.932)" fill="#ff6f61"/>
    <path id="Path_482" data-name="Path 482" d="M821.164,724.483s-1.736,3.177-11.847,4.332c-5.251.6-5.288-.353-4.1-1.412.824.522,2.486.735,5.832-.61,4.817-1.971,8.31-3.111,9.715-3.552C821,723.939,821.164,724.483,821.164,724.483Z" transform="translate(-251.132 -311.061)" opacity="0.1"/>
    <path id="Path_483" data-name="Path 483" d="M820.4,686.626s.287-4.913-1.155-8.384a15.675,15.675,0,0,1,0-5.486c.574-2.317-2.316-13.583-2.316-13.583L814.62,647.9l-2,.118,2.287,11.156s2.89,11.266,2.317,13.583a15.677,15.677,0,0,0,0,5.486c1.471,3.471,1.155,8.384,1.155,8.384a60.906,60.906,0,0,0,.868,15.032,2.53,2.53,0,0,1-.838,1.191,1.889,1.889,0,0,0,2.861-1.191A60.907,60.907,0,0,1,820.4,686.626Z" transform="translate(-253.259 -291.127)" opacity="0.1"/>
    <path id="Path_484" data-name="Path 484" d="M813.36,562.42a10.3,10.3,0,0,0-5.457,1.552,9.818,9.818,0,0,0-11.031,5.258,11.972,11.972,0,0,0-3.743,8.942c0,6.148,4.14,11.127,9.244,11.127,3.677,0,6.9-2.618,8.376-6.405a10.149,10.149,0,0,0,2.6.338,10.406,10.406,0,1,0,0-20.812Z" transform="translate(-248.101 -268.509)" fill="#3f3d56"/>
    <path id="Path_485" data-name="Path 485" d="M828.065,650.65l.868,2.309s.868,15.318.574,16.767,1.162,6.619,1.162,6.619a37,37,0,0,1,2.022,16.179l.287,8.089s1.155,3.177.581,3.758-4.935-.515-4.935-.515.581-6.067-1.471-9.825-3.177-13.3-3.177-13.3-2.89-5.78-2.89-8.089-4.626-21.1-4.626-21.1Z" transform="translate(-254.275 -291.854)" fill="#be6f72"/>
    <path id="Path_486" data-name="Path 486" d="M801.572,643.714s.294-10.406,1.471-13.583a21.57,21.57,0,0,0,1.287-4.611s17.5,3.162,18.944,2.008c0,0,.287,4.045.581,4.331s1.471,7.516,1.155,10.987,0,3.464,0,3.464-11.855,1.736-12.141,0-1.155-1.728-1.155-1.728S801,644.258,801.572,643.714Z" transform="translate(-250.33 -285.205)" fill="#3f3d56"/>
    <g id="Group_12" data-name="Group 12" transform="translate(551.242 342.323)" opacity="0.1">
      <path id="Path_487" data-name="Path 487" d="M811.118,650.046s-7.31-.2-9.516-.6v.6c-.574.574,10.119.868,10.119.868a.736.736,0,0,1,.4.162C811.728,650.046,811.118,650.046,811.118,650.046Z" transform="translate(-801.58 -633.859)"/>
      <path id="Path_488" data-name="Path 488" d="M827.865,632.581c-.294-.287-.581-4.331-.581-4.331a1.243,1.243,0,0,1-.493.176,14.613,14.613,0,0,0,.493,3.287,45.9,45.9,0,0,1,1.155,10.987c-.316,3.471,0,3.464,0,3.464s-9.376,1.375-11.649.456a3.481,3.481,0,0,0,.088.412c.287,1.736,12.141,0,12.141,0s-.294,0,0-3.464A42.968,42.968,0,0,0,827.865,632.581Z" transform="translate(-805.604 -628.25)"/>
      <path id="Path_489" data-name="Path 489" d="M811.118,650.046s-7.31-.2-9.516-.6v.6c-.574.574,10.119.868,10.119.868a.736.736,0,0,1,.4.162C811.728,650.046,811.118,650.046,811.118,650.046Z" transform="translate(-801.58 -633.859)"/>
      <path id="Path_490" data-name="Path 490" d="M827.865,632.581c-.294-.287-.581-4.331-.581-4.331a1.243,1.243,0,0,1-.493.176,14.613,14.613,0,0,0,.493,3.287,45.9,45.9,0,0,1,1.155,10.987c-.316,3.471,0,3.464,0,3.464s-9.376,1.375-11.649.456a3.481,3.481,0,0,0,.088.412c.287,1.736,12.141,0,12.141,0s-.294,0,0-3.464A42.968,42.968,0,0,0,827.865,632.581Z" transform="translate(-805.604 -628.25)"/>
    </g>
    <path id="Path_491" data-name="Path 491" d="M816.661,586.111a3.831,3.831,0,0,0,1.1,1.427,2.47,2.47,0,0,0,1.037.449c-.647.375-1.353.655-2,1.03a35.571,35.571,0,0,0-2.942,2.206,5.985,5.985,0,0,1-3.375,1.309,4.133,4.133,0,0,0,.471-4.111,3.838,3.838,0,0,1-.515-1.427,2.563,2.563,0,0,1,1.419-1.912c.552-.375,1.118-.735,1.692-1.1.448-.279,1.125-.868,1.691-.846s.632.522.735,1.037A8.151,8.151,0,0,0,816.661,586.111Z" transform="translate(-252.682 -273.991)" fill="#be6f72"/>
    <path id="Path_492" data-name="Path 492" d="M816.661,586.111a3.831,3.831,0,0,0,1.1,1.427,2.47,2.47,0,0,0,1.037.449c-.647.375-1.353.655-2,1.03a35.571,35.571,0,0,0-2.942,2.206,5.985,5.985,0,0,1-3.375,1.309,4.133,4.133,0,0,0,.471-4.111,3.838,3.838,0,0,1-.515-1.427,2.563,2.563,0,0,1,1.419-1.912c.552-.375,1.118-.735,1.692-1.1.448-.279,1.125-.868,1.691-.846s.632.522.735,1.037A8.151,8.151,0,0,0,816.661,586.111Z" transform="translate(-252.682 -273.991)" opacity="0.1"/>
    <circle id="Ellipse_140" data-name="Ellipse 140" cx="6.648" cy="6.648" r="6.648" transform="translate(564.104 315.878)" fill="#be6f72"/>
    <path id="Path_493" data-name="Path 493" d="M837.9,727.166c0,.581-1.155,2.022-1.155,2.022a14.312,14.312,0,0,1-6.935-.868c-.581-.287.287-2.022.287-2.022l.066-.14a7.014,7.014,0,0,1,1.1-1.883c.574-.574.919-2.942.919-2.942,1.794-2.942,4.979,1.272,4.979,1.272s.4,2.206.618,3.545A10.076,10.076,0,0,1,837.9,727.166Z" transform="translate(-257.754 -310.281)" fill="#ff6f61"/>
    <path id="Path_494" data-name="Path 494" d="M837.9,729.27c0,.581-1.155,2.022-1.155,2.022a14.31,14.31,0,0,1-6.935-.868c-.581-.287.287-2.022.287-2.022l.066-.14a13.974,13.974,0,0,0,6.3,1.294l1.316-1.316C837.846,728.733,837.9,729.122,837.9,729.27Z" transform="translate(-257.754 -312.385)" opacity="0.1"/>
    <circle id="Ellipse_141" data-name="Ellipse 141" cx="6.501" cy="6.501" r="6.501" transform="translate(550.955 302.148)" fill="#be6f72"/>
    <path id="Path_495" data-name="Path 495" d="M802.142,599.514c-1.427,1.36-1.662,3.515-1.809,5.479l-.221,2.875a14.511,14.511,0,0,0-.051,2.331c0,.478.118.963.162,1.471s.059,1.147.066,1.728v4.251a5.016,5.016,0,0,0,.471,2.552,1.735,1.735,0,0,0,2.206.794,2.515,2.515,0,0,0,.912-1.412,21.951,21.951,0,0,0,1.471-5.383c.059-.64.066-1.28.125-1.919s.169-1.309.265-1.956c.412-2.706.6-5.442.78-8.17.051-.809.78-3.993-.279-4.346-.515-.169-1.581.36-2.074.537a5.84,5.84,0,0,0-2.022,1.169Z" transform="translate(-249.929 -277.864)" fill="#be6f72"/>
    <path id="Path_496" data-name="Path 496" d="M802.142,599.514c-1.427,1.36-1.662,3.515-1.809,5.479l-.221,2.875a14.511,14.511,0,0,0-.051,2.331c0,.478.118.963.162,1.471s.059,1.147.066,1.728v4.251a5.016,5.016,0,0,0,.471,2.552,1.735,1.735,0,0,0,2.206.794,2.515,2.515,0,0,0,.912-1.412,21.951,21.951,0,0,0,1.471-5.383c.059-.64.066-1.28.125-1.919s.169-1.309.265-1.956c.412-2.706.6-5.442.78-8.17.051-.809.78-3.993-.279-4.346-.515-.169-1.581.36-2.074.537a5.84,5.84,0,0,0-2.022,1.169Z" transform="translate(-249.929 -277.864)" opacity="0.1"/>
    <path id="Path_497" data-name="Path 497" d="M816.8,588.16s-4.912,3.758-7.8,4.626c0,0-1.714,1.956-2.008,2.427s-.883,5.663-1.471,6.825-2.022,3.758,0,6.354a11.019,11.019,0,0,1,.287,3.471c-.287.868-1.339,4.045-.383,4.192s3.854,2.162,6.45,1.589,12.288,2.206,12.288,2.206,1.6-14.892,2.765-17.525l-2.6-.868s-7.222-4.331-2.89-10.98C821.421,590.476,817.362,589.609,816.8,588.16Z" transform="translate(-251.102 -275.319)" fill="#ff6f61"/>
    <path id="Path_498" data-name="Path 498" d="M796.774,611.156l5.971,4.229a.441.441,0,0,0,.522,0l1.618-1.213a.456.456,0,0,0,0-.691l-4.6-4.081a.441.441,0,0,0-.449-.088l-2.949,1.059a.449.449,0,0,0-.118.787Z" transform="translate(-249.017 -280.909)" fill="#3f3d56"/>
    <path id="Path_499" data-name="Path 499" d="M799.3,625.056a16.009,16.009,0,0,1-.625-4.508l-.088-2.037a5.883,5.883,0,0,1,.213-2.353,3.846,3.846,0,0,1,2.478-2.169,8.561,8.561,0,0,1,3.375-.243.866.866,0,0,1,.434.118.808.808,0,0,1,.235.4,2.663,2.663,0,0,1,.132,2.125,2.206,2.206,0,0,1-.677.7c-.8.574-1.736.956-2.493,1.581a.9.9,0,0,0-.338.427.994.994,0,0,0,0,.463,7.425,7.425,0,0,0,.382,1.184,1.17,1.17,0,0,0,.331.5c.14.118.323.162.471.272.316.257.978.6.941,1-.11,1.471-.993,3.118-1.338,4.574C802.073,629.931,799.727,626.3,799.3,625.056Z" transform="translate(-249.536 -282.071)" fill="#be6f72"/>
    <g id="Group_13" data-name="Group 13" transform="translate(558.891 326.57)" opacity="0.1">
      <path id="Path_500" data-name="Path 500" d="M812.142,628.225h-.162a4.948,4.948,0,0,0,1.89,0h.184A6.625,6.625,0,0,0,812.142,628.225Z" transform="translate(-811.98 -612.473)"/>
      <path id="Path_501" data-name="Path 501" d="M831.809,606.83c-1.037,2.331-2.567,14.958-2.839,17.466,1.015.265,1.684.456,1.684.456s1.589-14.855,2.75-17.488Z" transform="translate(-816.476 -606.83)"/>
    </g>
    <path id="Path_502" data-name="Path 502" d="M824.051,598.757a2.206,2.206,0,0,0,.949,1.434,12.728,12.728,0,0,1,1.684,1.706,12.082,12.082,0,0,1,1.669,3.346,40.974,40.974,0,0,1,1.39,4.574c-3.677,1.706-7.854,1.625-11.767,2.75a9.391,9.391,0,0,0-4.412,2.611,6.081,6.081,0,0,0-1.625,4.787.625.625,0,0,0,.088.287.618.618,0,0,0,.515.206,4.413,4.413,0,0,0,2.7-.927,12.845,12.845,0,0,0,2.067-2.03,3.322,3.322,0,0,1,1.471-1.088,24.07,24.07,0,0,1,6.619-.647,83.412,83.412,0,0,0,9.862-.78.794.794,0,0,0,.883-.883c.324-4.339-1.287-8.575-2.942-12.6q-.993-2.419-2.044-4.817a14.269,14.269,0,0,0-2.5-4.28,4.412,4.412,0,0,0-1.471-1.088,6.221,6.221,0,0,0-1.971-.368,13.972,13.972,0,0,0-3.228-.059,6.88,6.88,0,0,0-.309,1.669,14.464,14.464,0,0,0,1.78,5.641C823.565,598.478,823.882,598.493,824.051,598.757Z" transform="translate(-253.07 -276.026)" fill="#be6f72"/>
    <path id="Path_503" data-name="Path 503" d="M812.145,606.67a5.391,5.391,0,0,0-.735,2.809,3.779,3.779,0,0,0,.184,1.147,3.721,3.721,0,0,0,2.346,2.206" transform="translate(-252.938 -280.217)" fill="none" stroke="#000" stroke-miterlimit="10" stroke-width="1" opacity="0.1"/>
    <path id="Path_504" data-name="Path 504" d="M812.711,572.987a3.376,3.376,0,0,0-1.066.169c-.963-1.471-3.228-2.486-5.883-2.486-3.515,0-6.361,1.816-6.361,4.052s2.846,4.045,6.361,4.045a8.949,8.949,0,0,0,3.817-.809,3.464,3.464,0,1,0,3.118-4.971Z" transform="translate(-249.761 -270.692)" fill="#3f3d56"/>
    <path id="Path_505" data-name="Path 505" d="M812.992,580.054a3.457,3.457,0,0,1-3.118-1.964,8.951,8.951,0,0,1-3.816.81c-3.508,0-6.354-1.809-6.354-4.045a2.432,2.432,0,0,1,0-.4,2.744,2.744,0,0,0-.324,1.272c0,2.206,2.846,4.045,6.361,4.045a8.95,8.95,0,0,0,3.817-.809,3.464,3.464,0,0,0,6.523-.86,3.449,3.449,0,0,1-3.089,1.956Z" transform="translate(-249.756 -271.692)" opacity="0.1"/>
    <path id="Path_506" data-name="Path 506" d="M796.869,570.936a9.818,9.818,0,0,1,11.031-5.258,10.4,10.4,0,0,1,15.826,7.987V572.8a10.4,10.4,0,0,0-15.863-8.825,9.818,9.818,0,0,0-11.031,5.258,11.972,11.972,0,0,0-3.743,8.942v.868A11.767,11.767,0,0,1,796.869,570.936Z" transform="translate(-248.09 -268.509)" opacity="0.1"/>
    <path id="Path_507" data-name="Path 507" d="M885.421,548.828c1.919-3.552-.257-7.913-2.765-11.083s-5.552-6.464-5.486-10.509c.088-5.8,6.251-9.229,11.178-12.311a54.348,54.348,0,0,0,10.031-8.089,14.654,14.654,0,0,0,3.089-4.126c1.015-2.272.985-4.854.927-7.354q-.324-12.428-1.228-24.827" transform="translate(-270.338 -244.195)" fill="none" stroke="#3f3d56" stroke-miterlimit="10" stroke-width="4"/>
    <path id="Path_508" data-name="Path 508" d="M916.009,466.825a9.038,9.038,0,0,0-4.515-7.413l-2.03,4.008.059-4.854a8.884,8.884,0,0,0-2.978-.36,9.053,9.053,0,1,0,9.465,8.619Z" transform="translate(-275.827 -240.931)" fill="#64b5f6"/>
    <path id="Path_509" data-name="Path 509" d="M894.416,548.513a9.053,9.053,0,1,1,.434-7.3l-5.655,4.6,6.222-1.471a9,9,0,0,1-1,4.162Z" transform="translate(-270.376 -261.338)" fill="#64b5f6"/>
    <path id="Path_510" data-name="Path 510" d="M891.076,522.84a9.053,9.053,0,0,1-2.875-17.76l-.044,3.728,2.052-4.052h0a9.055,9.055,0,1,1,.846,18.091Z" transform="translate(-271.508 -253.249)" fill="#64b5f6"/>
    <path id="Path_511" data-name="Path 511" d="M920.947,502.96a9.053,9.053,0,1,1,4.008-16.914l-1.6,4.412,3.295-3.162a9,9,0,0,1,2.942,6.251,8.74,8.74,0,0,1-.228,2.493A9.053,9.053,0,0,1,920.947,502.96Z" transform="translate(-279.405 -247.988)" fill="#64b5f6"/>
    <path id="Path_512" data-name="Path 512" d="M914.792,471.022c-2.089.235-4.126.882-6.221,1.015s-4.412-.375-5.729-2.008a28.1,28.1,0,0,1-1.669-2.942,6.509,6.509,0,0,0-2.28-2.147,9.053,9.053,0,1,0,16.914,6.008C915.469,470.963,915.13,470.985,914.792,471.022Z" transform="translate(-275.824 -242.716)" opacity="0.1"/>
    <path id="Path_513" data-name="Path 513" d="M920.96,504.824a9.06,9.06,0,0,1-8.612-12.914,6.7,6.7,0,0,1,1.824,1.816,29.008,29.008,0,0,0,1.794,2.993c1.4,1.662,3.817,2.206,6,2.1s4.295-.735,6.472-.919c.3,0,.61-.052.912-.059A9.053,9.053,0,0,1,920.96,504.824Z" transform="translate(-279.418 -249.852)" opacity="0.1"/>
    <path id="Path_514" data-name="Path 514" d="M891.076,524.759A9.045,9.045,0,0,1,882.391,512a7.464,7.464,0,0,1,1.912,1.839c.735.993,1.14,2.14,1.964,3.052,1.53,1.706,4.1,2.3,6.413,2.25s4.412-.6,6.619-.772a9.053,9.053,0,0,1-8.222,6.391Z" transform="translate(-271.508 -255.168)" opacity="0.1"/>
    <path id="Path_515" data-name="Path 515" d="M894.435,550.614a9.06,9.06,0,0,1-16.51-7.354,8.867,8.867,0,0,1,1.986,1.772c.868,1.052,1.434,2.206,2.427,3.221,1.853,1.816,4.839,2.559,7.5,2.633a39.669,39.669,0,0,0,4.6-.272Z" transform="translate(-270.395 -263.439)" opacity="0.1"/>
    <path id="Path_516" data-name="Path 516" d="M1044.421,700.828c1.919-3.552-.257-7.913-2.765-11.083s-5.552-6.464-5.486-10.509c.088-5.8,6.251-9.229,11.178-12.311a54.351,54.351,0,0,0,10.031-8.089,14.658,14.658,0,0,0,3.089-4.126c1.015-2.272.985-4.854.927-7.354q-.316-12.428-1.228-24.827" transform="translate(-312.41 -284.414)" fill="none" stroke="#3f3d56" stroke-miterlimit="10" stroke-width="4"/>
    <path id="Path_517" data-name="Path 517" d="M1075.022,618.826a9.038,9.038,0,0,0-4.516-7.413l-2.03,4.008.059-4.854a8.882,8.882,0,0,0-2.942-.36,9.053,9.053,0,1,0,9.465,8.619Z" transform="translate(-317.912 -281.151)" fill="#64b5f6"/>
    <path id="Path_518" data-name="Path 518" d="M1053.416,700.513a9.053,9.053,0,1,1,.434-7.3l-5.655,4.6,6.221-1.471a9,9,0,0,1-1,4.162Z" transform="translate(-312.447 -301.557)" fill="#64b5f6"/>
    <path id="Path_519" data-name="Path 519" d="M1050.076,674.84a9.053,9.053,0,0,1-2.875-17.76l-.044,3.728,2.052-4.052h0a9.055,9.055,0,1,1,.846,18.091Z" transform="translate(-313.579 -293.467)" fill="#64b5f6"/>
    <path id="Path_520" data-name="Path 520" d="M1079.947,654.96a9.053,9.053,0,1,1,4.008-16.914l-1.6,4.412,3.295-3.162a9,9,0,0,1,2.942,6.251,8.745,8.745,0,0,1-.228,2.493A9.053,9.053,0,0,1,1079.947,654.96Z" transform="translate(-321.476 -288.207)" fill="#64b5f6"/>
    <path id="Path_521" data-name="Path 521" d="M1073.792,623.022c-2.088.235-4.125.882-6.221,1.015s-4.412-.375-5.729-2.008a28.068,28.068,0,0,1-1.669-2.942,6.508,6.508,0,0,0-2.28-2.147,9.053,9.053,0,1,0,16.914,6.008C1074.469,622.963,1074.13,622.985,1073.792,623.022Z" transform="translate(-317.895 -282.935)" opacity="0.1"/>
    <path id="Path_522" data-name="Path 522" d="M1079.96,656.824a9.06,9.06,0,0,1-8.612-12.914,6.7,6.7,0,0,1,1.824,1.816,29.048,29.048,0,0,0,1.794,2.993c1.4,1.662,3.817,2.206,6,2.1s4.295-.735,6.472-.919c.3,0,.61-.052.912-.059A9.052,9.052,0,0,1,1079.96,656.824Z" transform="translate(-321.489 -290.071)" opacity="0.1"/>
    <path id="Path_523" data-name="Path 523" d="M1050.076,676.759A9.046,9.046,0,0,1,1041.391,664a7.46,7.46,0,0,1,1.912,1.838c.735.993,1.14,2.14,1.964,3.052,1.53,1.706,4.1,2.3,6.413,2.25s4.412-.6,6.619-.772A9.052,9.052,0,0,1,1050.076,676.759Z" transform="translate(-313.579 -295.387)" opacity="0.1"/>
    <path id="Path_524" data-name="Path 524" d="M1053.435,702.614a9.06,9.06,0,0,1-16.51-7.354,8.87,8.87,0,0,1,1.985,1.772c.868,1.052,1.471,2.206,2.427,3.221,1.853,1.816,4.839,2.559,7.5,2.633A39.672,39.672,0,0,0,1053.435,702.614Z" transform="translate(-312.466 -303.658)" opacity="0.1"/>
    <path id="Path_525" data-name="Path 525" d="M494.524,580.48a7.214,7.214,0,0,0-2.875-5.824,8.457,8.457,0,0,0-7.067-8.3,8.442,8.442,0,0,0-5.626-6.288h0a7.186,7.186,0,0,0-1.044-.243h-1.243a8.281,8.281,0,0,0-8,7.075c-2.581-.6-4.942.176-5.376,1.809a2.206,2.206,0,0,0,.074,1.309,5.691,5.691,0,0,0,3.795,3.074l.25.074.375.1h.081a6.5,6.5,0,0,0-.618,2.787,6.427,6.427,0,0,0,3.464,5.736l-.169.1a2.3,2.3,0,0,0-.559.78,11.66,11.66,0,0,0-1.081,2.6c-.184.78-.213,1.589-.441,2.361-.426,1.419-1.515,2.618-1.64,4.1-.059.662.051,1.471-.419,1.9a2.29,2.29,0,0,1-.375.265,3.037,3.037,0,0,0-.816.86,2.853,2.853,0,0,1-.574.824c-.427.316-1.125.287-1.331.78s.331,1.074.206,1.61-.581.64-.912.941a3.272,3.272,0,0,0-.787,1.471,4.824,4.824,0,0,1-3.971-1.015,7.421,7.421,0,0,1,.412,1.471,6.442,6.442,0,0,0-2.14-1.074,6.758,6.758,0,0,1-2.28-1.691l1.221-.169-5.391-8.229-1.6-.331,1.427,2.743a.875.875,0,0,0-.485.581,2.492,2.492,0,0,0-.052.934,16.7,16.7,0,0,0,.368,2.206l.412,1.927c.037.176.081.36.132.537a5.065,5.065,0,0,0-1.6.177,13.884,13.884,0,0,0-3.317-.787,1.837,1.837,0,0,0-.735,0,1.9,1.9,0,0,0-.7.566,22.619,22.619,0,0,0-2.464,3.471c-2.942,5.045-6.773,9.45-10.4,14.009-2.5,1.015-5.023,1.978-7.545,2.942l-5.427,2.074a8.229,8.229,0,0,1-3.368.735c-.515,0-1.155-.11-1.471.331a3.1,3.1,0,0,0-.331.735l-.559.059h0a6.427,6.427,0,0,0-1.3-2.4.824.824,0,0,0-.61.471c-.132.243-.213.507-.368.735-.287.427-.794.632-1.155.993s-.588.919-.985,1.287a3.9,3.9,0,0,1-1.846.735,11.649,11.649,0,0,0-2.89,1.1,4.658,4.658,0,0,1-1.066.493,4.007,4.007,0,0,1-1.258.044l-2.868-.213a2.268,2.268,0,0,0-.772.037,1.471,1.471,0,0,0-.912,1.471,2.317,2.317,0,0,0,.912,1.581,5.84,5.84,0,0,0,1.633.846,47.913,47.913,0,0,0,7.648,2.265v.581A13.052,13.052,0,0,0,412,634a.911.911,0,0,0,.441-.081.971.971,0,0,0,.368-.574,23.661,23.661,0,0,0,1.147-5.633h0A2.941,2.941,0,0,0,415,627.45c.985-.272,1.971.4,2.993.515,1.258.14,2.419-.6,3.611-1.044l.515-.169a5.646,5.646,0,0,1-1.191,1.14c-.493.353-1.044.618-1.522.985a10.487,10.487,0,0,1-1.294,1,8.129,8.129,0,0,1-.993.382,6.553,6.553,0,0,0-1.419.735,2.875,2.875,0,0,0-.963.941,1.412,1.412,0,0,0-.081,1.324,1.4,1.4,0,0,0,.949.662,3.891,3.891,0,0,0,1.169,0c1.559-.118,3.111-.257,4.662-.4a12.432,12.432,0,0,0,1.949-.279c.338-.081.677-.191,1.015-.287a9.056,9.056,0,0,1,1.772-.265,1.473,1.473,0,0,1,.515.051c.36.118.618.485.985.559a1.471,1.471,0,0,0,.735-.1,16.4,16.4,0,0,1,3.449-.368,1.424,1.424,0,0,0,1.338-.6c.235-.471-.191-1.228-.382-1.853a5.67,5.67,0,0,1-.162-1.221,7.642,7.642,0,0,0-.853-2.9,7.566,7.566,0,0,1-.64-1.324,33.44,33.44,0,0,0,6.347-3.221,11.346,11.346,0,0,1,3.618-1.743,9.84,9.84,0,0,1,4.545.529,103.406,103.406,0,0,1,10.421,3.633c1.625.669,3.243,1.375,4.92,1.883a7.67,7.67,0,0,0,1.75,1.7,8.089,8.089,0,0,0,3.787,1.037,49.622,49.622,0,0,0,5.332.2,8.993,8.993,0,0,0,3.971-.735,4.081,4.081,0,0,0,.831-.552,3.294,3.294,0,0,0,2.618-.963,6.347,6.347,0,0,0,1.993-3.148c.434-1.677.1-3.677,1.132-5.016.272-.368.632-.662.9-1.03a2.9,2.9,0,0,0,.471-1.7.342.342,0,0,1,.044-.066,6.229,6.229,0,0,0,.441-1.691,9.67,9.67,0,0,1,.478-1.338,41.321,41.321,0,0,0,1.368-3.964,23.148,23.148,0,0,0,.632-2.721c.11-.735.177-1.471.235-2.206a13.7,13.7,0,0,1,.669-3.405,27.709,27.709,0,0,0,1.544-8.148v-.162a5.464,5.464,0,0,0,4.839-5.56,5.8,5.8,0,0,0-.507-2.375,7.353,7.353,0,0,0,.986-3.706Zm-26.313,31.968c.081.287.177.566.272.846-.434-.419-.853-.853-1.287-1.28.169.059.346.11.507.177a2.739,2.739,0,0,1,.485.257Zm-2.081-1.412c-2.544-2.206-5.486-3.92-8.089-6.06,1.419.7,2.8,1.515,4.17,2.294q2.434,1.39,4.935,2.67a4.038,4.038,0,0,1-1.037,1.1Zm1.081-5.56.125-.125v.875l-.684-.235a6.107,6.107,0,0,0,.537-.515Zm-22.378,5.957a21.056,21.056,0,0,0,2.706-3.861c1.008,1.758,2.647,3.03,4.037,4.508C449.333,611.793,447.083,611.551,444.833,611.433Z" transform="translate(-143.002 -267.823)" fill="url(#linear-gradient-2)"/>
    <path id="Path_526" data-name="Path 526" d="M415.35,438.25l1.6.324,5.464,8.082-2.4.324Z" transform="translate(-109.901 -116.055)" fill="#2f2e41"/>
    <path id="Path_527" data-name="Path 527" d="M414.49,645.431a31.457,31.457,0,0,0,1.6,4.17,39.708,39.708,0,0,0,5.332-1.522,16.778,16.778,0,0,0-1.11-1.471,5.485,5.485,0,0,0-1.508-1.155,4.151,4.151,0,0,0-1.831,0C416.152,645.431,415.321,645.446,414.49,645.431Z" transform="translate(-147.914 -290.452)" fill="#fbbebe"/>
    <path id="Path_528" data-name="Path 528" d="M413.871,646.752a3.324,3.324,0,0,1-1.824-2.074,6.678,6.678,0,0,0-1.39-2.478.794.794,0,0,0-.618.463c-.132.235-.213.5-.36.735-.294.419-.809.625-1.177.978s-.588.9-.985,1.265a3.912,3.912,0,0,1-1.861.735,12.06,12.06,0,0,0-2.942,1.081,5.076,5.076,0,0,1-1.081.485,4.286,4.286,0,0,1-1.265,0l-2.9-.206a2.263,2.263,0,0,0-.735,0,1.4,1.4,0,0,0-.919,1.471,2.206,2.206,0,0,0,.919,1.559,6.1,6.1,0,0,0,1.647.838,48.458,48.458,0,0,0,7.766,2.206v.574a13.442,13.442,0,0,0,5.92,1.375,1,1,0,0,0,.441-.073.97.97,0,0,0,.368-.574,22.944,22.944,0,0,0,1.213-6.3,5.014,5.014,0,0,0-.125-1.625c-.162-.522.382-.3-.118-.508" transform="translate(-142.971 -289.618)" fill="#2f2e41"/>
    <path id="Path_529" data-name="Path 529" d="M475.408,632.715c-8.59.515-17.076-2-25.68-2.265a12.541,12.541,0,0,0-3.192.2,16.079,16.079,0,0,0-3.162,1.228c-4.611,2.147-9.384,3.927-14.149,5.7l-5.479,2.037a8.3,8.3,0,0,1-3.39.735c-.522,0-1.162-.11-1.471.324-.89,1.324-.471,3.258.118,4.743.191.478.515,1,1.03,1.052a2.994,2.994,0,0,0,1.044-.265c.993-.265,1.986.4,3.015.515,1.265.132,2.442-.588,3.64-1.03,1.986-.735,4.148-.735,6.236-1.059a27.94,27.94,0,0,0,9.766-4.052,11.4,11.4,0,0,1,3.64-1.721,10.076,10.076,0,0,1,4.582.522,105.164,105.164,0,0,1,10.509,3.574,48.974,48.974,0,0,0,5.486,2.008,19.856,19.856,0,0,0,12.3-.735c1.375-.544,2.868-1.471,2.942-2.986.051-.846-.61-1.588-1.044-2.317-.279-.463-.566-.927-.868-1.375C479.813,635.414,478.019,632.561,475.408,632.715Z" transform="translate(-148.942 -286.502)" fill="#2f2e41"/>
    <path id="Path_530" data-name="Path 530" d="M475.408,632.715c-8.59.515-17.076-2-25.68-2.265a12.541,12.541,0,0,0-3.192.2,16.079,16.079,0,0,0-3.162,1.228c-4.611,2.147-9.384,3.927-14.149,5.7l-5.479,2.037a8.3,8.3,0,0,1-3.39.735c-.522,0-1.162-.11-1.471.324-.89,1.324-.471,3.258.118,4.743.191.478.515,1,1.03,1.052a2.994,2.994,0,0,0,1.044-.265c.993-.265,1.986.4,3.015.515,1.265.132,2.442-.588,3.64-1.03,1.986-.735,4.148-.735,6.236-1.059a27.94,27.94,0,0,0,9.766-4.052,11.4,11.4,0,0,1,3.64-1.721,10.076,10.076,0,0,1,4.582.522,105.164,105.164,0,0,1,10.509,3.574,48.974,48.974,0,0,0,5.486,2.008,19.856,19.856,0,0,0,12.3-.735c1.375-.544,2.868-1.471,2.942-2.986.051-.846-.61-1.588-1.044-2.317-.279-.463-.566-.927-.868-1.375C479.813,635.414,478.019,632.561,475.408,632.715Z" transform="translate(-148.942 -286.502)" opacity="0.1"/>
    <path id="Path_531" data-name="Path 531" d="M436.92,644.713q2.015.684,4.067,1.265c.735-1.258,2.206-2.133,2.522-3.574a.338.338,0,0,0,0-.191.353.353,0,0,0-.154-.14,7.707,7.707,0,0,0-3.192-.934c-.882-.052-1.287.868-1.684,1.515C438.325,642.941,437.28,644.853,436.92,644.713Z" transform="translate(-153.849 -289.337)" fill="#fbbebe"/>
    <path id="Path_532" data-name="Path 532" d="M434.7,644.046a2.942,2.942,0,0,1-1.978-1.3c-.184-.331-.39-.779-.772-.735s-.507.441-.588.787a22.063,22.063,0,0,1-1.11,3.817,7.163,7.163,0,0,1-2.375,3.125c-.5.346-1.052.6-1.544.971a10.605,10.605,0,0,1-1.3.985,7.711,7.711,0,0,1-1,.368,6.93,6.93,0,0,0-1.427.736,2.831,2.831,0,0,0-.978.934,1.346,1.346,0,0,0-.074,1.3,1.39,1.39,0,0,0,.949.647,4.005,4.005,0,0,0,1.184,0c1.566-.11,3.133-.25,4.7-.39a13.558,13.558,0,0,0,1.964-.272l1.022-.279a8.139,8.139,0,0,1,1.787-.265,1.389,1.389,0,0,1,.522.051c.36.118.618.478.993.552a1.662,1.662,0,0,0,.735-.1,16.254,16.254,0,0,1,3.478-.36,1.468,1.468,0,0,0,1.353-.588c.294-.574-.191-1.214-.39-1.831a5.885,5.885,0,0,1-.162-1.2,7.309,7.309,0,0,0-.86-2.853c-.4-.736-.941-1.544-.662-2.324a2.205,2.205,0,0,0,.265-.8C438.319,643.759,435.422,644.208,434.7,644.046Z" transform="translate(-149.748 -289.567)" fill="#2f2e41"/>
    <path id="Path_533" data-name="Path 533" d="M475.816,612.082a6.707,6.707,0,0,1-3.427-3.4c-.14-.324-.257-.669-.4-.993a7.545,7.545,0,0,0-2.044-2.846,1.007,1.007,0,0,0-.735-.316.8.8,0,0,0-.552.6,2.274,2.274,0,0,0-.059.919,16.377,16.377,0,0,0,.368,2.147l.419,1.9a4.16,4.16,0,0,0,.257.846,2.942,2.942,0,0,0,.7.831c.382.353.772.691,1.162,1.03a3.988,3.988,0,0,0,.735.508,4.273,4.273,0,0,0,1.3.382,11.077,11.077,0,0,1,4.883,1.883s0-1.272,0-1.412a1.867,1.867,0,0,0-.368-1.022,6.526,6.526,0,0,0-2.243-1.052Z" transform="translate(-162.226 -279.651)" fill="#fbbebe"/>
    <path id="Path_534" data-name="Path 534" d="M475.816,612.082a6.707,6.707,0,0,1-3.427-3.4c-.14-.324-.257-.669-.4-.993a7.545,7.545,0,0,0-2.044-2.846,1.007,1.007,0,0,0-.735-.316.8.8,0,0,0-.552.6,2.274,2.274,0,0,0-.059.919,16.377,16.377,0,0,0,.368,2.147l.419,1.9a4.16,4.16,0,0,0,.257.846,2.942,2.942,0,0,0,.7.831c.382.353.772.691,1.162,1.03a3.988,3.988,0,0,0,.735.508,4.273,4.273,0,0,0,1.3.382,11.077,11.077,0,0,1,4.883,1.883s0-1.272,0-1.412a1.867,1.867,0,0,0-.368-1.022,6.526,6.526,0,0,0-2.243-1.052Z" transform="translate(-162.226 -279.651)" opacity="0.1"/>
    <ellipse id="Ellipse_142" data-name="Ellipse 142" cx="2.089" cy="2.103" rx="2.089" ry="2.103" transform="translate(328.989 313.708)" fill="#2f2e41"/>
    <path id="Path_535" data-name="Path 535" d="M495.241,590.458a2.258,2.258,0,0,0-1.647.235,2.288,2.288,0,0,0-.566.772,11.213,11.213,0,0,0-1.088,2.559c-.184.735-.213,1.566-.449,2.324-.427,1.4-1.522,2.581-1.647,4.037-.059.654.051,1.419-.427,1.861a2.7,2.7,0,0,1-.375.272,2.825,2.825,0,0,0-.824.846,2.775,2.775,0,0,1-.581.8c-.427.316-1.133.287-1.338.735s.331,1.059.206,1.588-.588.632-.919.927a3.213,3.213,0,0,0-.794,1.471,4.905,4.905,0,0,1-4-.993,12.737,12.737,0,0,1,.625,4.574,1.867,1.867,0,0,1-.368,1.412,25.48,25.48,0,0,1,4.905.853,3.382,3.382,0,0,0,2.14,0,3.57,3.57,0,0,0,.985-.78,6.281,6.281,0,0,0,2.022-3.118,18.323,18.323,0,0,0,.037-2.111,11.9,11.9,0,0,1,.537-2.567,30.54,30.54,0,0,0,.934-5.28c.1-1.1,1.052-1.986,1.552-2.942a14.4,14.4,0,0,0,1.978-5.883C496.167,591.377,495.932,590.531,495.241,590.458Z" transform="translate(-165.457 -275.911)" fill="#2f2e41"/>
    <path id="Path_536" data-name="Path 536" d="M495.241,590.458a2.258,2.258,0,0,0-1.647.235,2.288,2.288,0,0,0-.566.772,11.213,11.213,0,0,0-1.088,2.559c-.184.735-.213,1.566-.449,2.324-.427,1.4-1.522,2.581-1.647,4.037-.059.654.051,1.419-.427,1.861a2.7,2.7,0,0,1-.375.272,2.825,2.825,0,0,0-.824.846,2.775,2.775,0,0,1-.581.8c-.427.316-1.133.287-1.338.735s.331,1.059.206,1.588-.588.632-.919.927a3.213,3.213,0,0,0-.794,1.471,4.905,4.905,0,0,1-4-.993,12.737,12.737,0,0,1,.625,4.574,1.867,1.867,0,0,1-.368,1.412,25.48,25.48,0,0,1,4.905.853,3.382,3.382,0,0,0,2.14,0,3.57,3.57,0,0,0,.985-.78,6.281,6.281,0,0,0,2.022-3.118,18.323,18.323,0,0,0,.037-2.111,11.9,11.9,0,0,1,.537-2.567,30.54,30.54,0,0,0,.934-5.28c.1-1.1,1.052-1.986,1.552-2.942a14.4,14.4,0,0,0,1.978-5.883C496.167,591.377,495.932,590.531,495.241,590.458Z" transform="translate(-165.457 -275.911)" opacity="0.1"/>
    <path id="Path_537" data-name="Path 537" d="M482.347,629.635c-1.787-.853-3.1-2.434-4.545-3.795-2.758-2.6-6.133-4.412-9.038-6.861a63.682,63.682,0,0,0-5.758-4.839,14.389,14.389,0,0,0-6.17-2.155,1.638,1.638,0,0,0-.735,0,1.691,1.691,0,0,0-.7.552,22.227,22.227,0,0,0-2.493,3.42c-3.677,6.251-8.906,11.5-13.237,17.311a1.1,1.1,0,0,0-.213.412,1.023,1.023,0,0,0,.162.64l.882,1.721c.493.971,1.287,2.1,2.346,1.9a2.565,2.565,0,0,0,1.228-.787l3.956-3.787,4.148-3.964c2.427-2.317,4.9-4.692,6.486-7.663,1.235,2.147,3.434,3.552,4.935,5.516.574.735,1.044,1.566,1.559,2.361.816,1.265,1.75,2.456,2.677,3.677l4.758,6.067a9.1,9.1,0,0,0,2.206,2.206,8.419,8.419,0,0,0,3.817,1.022,50.4,50.4,0,0,0,5.376.191,9.266,9.266,0,0,0,4.008-.736,3.633,3.633,0,0,0,2.169-3.228,4.736,4.736,0,0,0-.684-2.008A16.39,16.39,0,0,0,482.347,629.635Z" transform="translate(-154.52 -281.612)" fill="#2f2e41"/>
    <ellipse id="Ellipse_143" data-name="Ellipse 143" cx="1.611" cy="1.618" rx="1.611" ry="1.618" transform="translate(330.754 315.65)" fill="#e8e8f0"/>
    <path id="Path_538" data-name="Path 538" d="M502.676,590.712a3.1,3.1,0,0,1,.177,2.324,9.428,9.428,0,0,1-1.037,2.14,10.187,10.187,0,0,1-1.346,1.912,13.851,13.851,0,0,0,7.075-2.03,10.273,10.273,0,0,0,4.464-3.89,2.059,2.059,0,0,1-1.647-.309,5.884,5.884,0,0,1-1.258-1.169l-1.243-1.4a5.593,5.593,0,0,1-.735-1.007,2.78,2.78,0,0,1-.331-1.625,9.464,9.464,0,0,1-1.647,1.368c-.89.581-1.868,1-2.765,1.574-.309.206-1.015.529-.831.941S502.426,590.271,502.676,590.712Z" transform="translate(-170.664 -274.658)" fill="#fbbebe"/>
    <path id="Path_539" data-name="Path 539" d="M502.676,590.712a3.1,3.1,0,0,1,.177,2.324,9.428,9.428,0,0,1-1.037,2.14,10.187,10.187,0,0,1-1.346,1.912,13.851,13.851,0,0,0,7.075-2.03,10.273,10.273,0,0,0,4.464-3.89,2.059,2.059,0,0,1-1.647-.309,5.884,5.884,0,0,1-1.258-1.169l-1.243-1.4a5.593,5.593,0,0,1-.735-1.007,2.78,2.78,0,0,1-.331-1.625,9.464,9.464,0,0,1-1.647,1.368c-.89.581-1.868,1-2.765,1.574-.309.206-1.015.529-.831.941S502.426,590.271,502.676,590.712Z" transform="translate(-170.664 -274.658)" opacity="0.1"/>
    <path id="Path_540" data-name="Path 540" d="M499.988,592.766a2.1,2.1,0,0,0,0,2.427c.074.088.338.64.449.647a.4.4,0,0,0,.279-.147,18.477,18.477,0,0,0,1.574-1.875,3.5,3.5,0,0,1,2-1.309,4.324,4.324,0,0,1,2.758.86,2.619,2.619,0,0,1,.949.735,2.568,2.568,0,0,1,.309,1.052,50.66,50.66,0,0,1,.28,6.685,26.341,26.341,0,0,1-.316,4.817c-.162.816-.4,1.618-.507,2.449a15.622,15.622,0,0,0-.1,2.206v3.074a8.088,8.088,0,0,0,.118,1.684c.147.669.463,1.294.677,1.949a12.745,12.745,0,0,1,.449,2.3l.419,3.177a4.016,4.016,0,0,1-.375,2.942c-.272.36-.632.655-.912,1.015-1.037,1.353-.735,3.287-1.14,4.942a6.162,6.162,0,0,1-2.015,3.089,3.332,3.332,0,0,1-2.655.949c-1.294-.243-2.066-1.588-2.419-2.861a11.437,11.437,0,0,0-1.243-3.728,9.889,9.889,0,0,0-2.456-2.052,4.243,4.243,0,0,1-1.919-2.493c-.081-.463,0-.941-.081-1.412a3.331,3.331,0,0,0-2.052-2.7c-.662-.257-1.471-.353-1.853-.956a4.464,4.464,0,0,0,1.934-2.6,13.335,13.335,0,0,0,.471-3.28l.221-3.677a12.282,12.282,0,0,1,.875-4.773c.324-.662.735-1.287,1.066-1.942a21.07,21.07,0,0,0,1.14-2.846c.529-1.515,1.059-3.03,1.53-4.56a8.589,8.589,0,0,1,.838-2.125C498.672,593.744,499.245,592.913,499.988,592.766Z" transform="translate(-167.947 -276.469)" fill="#e8e8f0"/>
    <path id="Path_541" data-name="Path 541" d="M492.322,616.53h.978l.206-1.471a3.066,3.066,0,0,1,.206-.86,5.144,5.144,0,0,1,.566-.824c.956-1.361.89-3.162,1.125-4.817a24.511,24.511,0,0,1,2.147-6.295l1.9-4.229a5.838,5.838,0,0,0,.412-1.081,6.487,6.487,0,0,0,.118-1.25c0-.655.206-3.037.228-3.677,0-.243-.537-.11-.647-.324-.235-.471-.559.8-1.008,1.081a2.471,2.471,0,0,0-.875,1.28c-.412,1.059-.662,2.206-1.044,3.258a6.656,6.656,0,0,1-1.772,2.883c-.39.338-.838.61-1.206.978-1.177,1.162-1.294,3.008-1.331,4.67C492.293,606.867,492.1,616.53,492.322,616.53Z" transform="translate(-168.481 -276.23)" fill="#2f2e41"/>
    <path id="Path_542" data-name="Path 542" d="M508.29,590.434a3.339,3.339,0,0,0-1.743,2.39,12.091,12.091,0,0,1-.883,2.942c-1.191,2.074-4.229,2.677-5.074,4.92a9.047,9.047,0,0,0-.338,2.317c-.147,1.611-.677,3.162-.838,4.765a21.226,21.226,0,0,0,.088,3.743l1.066,12.664a16.916,16.916,0,0,1-.316,5.574,5.368,5.368,0,0,0,3.192-.529c.993-.456,1.9-1.081,2.868-1.611a29.543,29.543,0,0,0,4.92-2.765,3.009,3.009,0,0,0,.662-.735,6.356,6.356,0,0,0,.441-1.662,8.988,8.988,0,0,1,.478-1.309,38.555,38.555,0,0,0,1.383-3.912,22.481,22.481,0,0,0,.632-2.677c.118-.735.184-1.471.243-2.206a12.941,12.941,0,0,1,.677-3.346,26.954,26.954,0,0,0,1.552-8.031,4.2,4.2,0,0,0-.081-1.177,6.29,6.29,0,0,0-.647-1.346c-.441-.831-.735-1.743-1.118-2.589a12.73,12.73,0,0,0-4.346-4.567C510.254,590.706,509.254,590.088,508.29,590.434Z" transform="translate(-170.373 -275.895)" fill="#2f2e41"/>
    <path id="Path_543" data-name="Path 543" d="M477.147,617.034a7.667,7.667,0,0,1-2.022-1.537c-.265-.309-.485-.655-.735-.963a5.008,5.008,0,0,0-2.544-1.471,12.425,12.425,0,0,0-2.942-.287,5.337,5.337,0,0,0-1.964.235,2,2,0,0,0-1.3,1.4,2.317,2.317,0,0,0,.993,2.059,4.679,4.679,0,0,0,1.978.956,15.819,15.819,0,0,0,1.787.213c3.515.368,6.655,2.28,9.737,4.023q4.059,2.309,8.281,4.295a17.207,17.207,0,0,0,.14-2.537c0-.632-.052-1.6-.647-1.978a12.982,12.982,0,0,0-2.633-.787,41.427,41.427,0,0,1-5.3-2.147A26.365,26.365,0,0,1,477.147,617.034Z" transform="translate(-161.447 -281.83)" fill="#fbbebe"/>
    <ellipse id="Ellipse_144" data-name="Ellipse 144" cx="6.266" cy="6.302" rx="6.266" ry="6.302" transform="translate(324.812 302.729)" fill="#fbbebe"/>
    <path id="Path_544" data-name="Path 544" d="M508.371,599.893a10.044,10.044,0,0,0-1.213,2.272c-.735,1.589-1.986,2.942-2.6,4.626s-.618,3.846-1.875,5.221a1.832,1.832,0,0,0-.552.794,3.79,3.79,0,0,1-.059.574c-.184.5-1,.522-1.155,1.037-.044.147,0,.309-.074.456-.125.331-.566.382-.853.581-.61.412-.485,1.368-.919,1.964a1.655,1.655,0,0,1-1.566.551,5.512,5.512,0,0,1-1.625-.61,1.569,1.569,0,0,0-.588-.184,1.213,1.213,0,0,0-.677.235,4.17,4.17,0,0,0-1.691,3.567,11.649,11.649,0,0,0,.971,3.993,1.6,1.6,0,0,0,.316.6,1.4,1.4,0,0,0,1.559.118A7.351,7.351,0,0,1,497.3,625c.971-.177,1.919.493,2.9.434a4.037,4.037,0,0,0,1.956-.86,10.811,10.811,0,0,0,2.633-2.206c.427-.566.735-1.206,1.118-1.809a23.2,23.2,0,0,1,1.581-2.111l3.618-4.412a10.169,10.169,0,0,0,.971-1.338,9.432,9.432,0,0,0,.735-2.022,15.488,15.488,0,0,0,.735-3.6,13.821,13.821,0,0,0-.265-3.015,10.659,10.659,0,0,0-.735-2.875C511.762,599.525,509.85,598.172,508.371,599.893Z" transform="translate(-168.667 -278.213)" fill="#2f2e41"/>
    <path id="Path_545" data-name="Path 545" d="M519.7,581.643a7.06,7.06,0,0,0-2.9-5.736,8.391,8.391,0,0,0-7.126-8.17,8.141,8.141,0,0,0-16.039.434c-2.6-.588-4.986.177-5.42,1.78s1.4,3.677,4.148,4.412a7.728,7.728,0,0,0,2.662.265,8.148,8.148,0,0,0,5.6,3.493,8.361,8.361,0,0,0,6.119,6.31,7.024,7.024,0,0,0,1.89,2.611v.61a5.3,5.3,0,1,0,10.6,0,5.662,5.662,0,0,0-.507-2.346A7.089,7.089,0,0,0,519.7,581.643Z" transform="translate(-167.406 -268.185)" fill="#f86d70"/>
    <path id="Path_546" data-name="Path 546" d="M489.979,570.287c.434-1.6,2.817-2.368,5.42-1.78a8.281,8.281,0,0,1,8.089-6.972h.537a7.969,7.969,0,0,0-2.309-.346,8.281,8.281,0,0,0-8.089,6.972c-2.6-.588-4.986.176-5.42,1.78s1.4,3.677,4.148,4.412a8.086,8.086,0,0,0,1.574.272C491.3,573.839,489.546,571.927,489.979,570.287Z" transform="translate(-167.403 -268.183)" opacity="0.1"/>
    <path id="Path_547" data-name="Path 547" d="M512.906,592.891a5.475,5.475,0,0,1,0-.6,6.867,6.867,0,0,1-1.89-2.611,8.339,8.339,0,0,1-6.119-6.317,8.126,8.126,0,0,1-5.611-3.486,7.059,7.059,0,0,1-1.566-.044,8.17,8.17,0,0,0,5.405,3.214,8.362,8.362,0,0,0,6.119,6.31,7.024,7.024,0,0,0,1.89,2.611v.61a5.4,5.4,0,0,0,5.273,5.486A5.486,5.486,0,0,1,512.906,592.891Z" transform="translate(-169.937 -273.115)" opacity="0.1"/>
    <ellipse id="Ellipse_145" data-name="Ellipse 145" cx="0.963" cy="1.287" rx="0.963" ry="1.287" transform="translate(331.629 309.877) rotate(-37.22)" fill="#fbbebe"/>
  </g>
</svg>
