<svg xmlns="http://www.w3.org/2000/svg" width="1921" height="1454" viewBox="0 0 1921 1454">
  <path id="LeftImage" d="M214.112,236H214c-37.917,0-74.409-.485-108.46-1.44C70.148,233.566,36.321,232.033,5,230V-1218c9.968,2.6,20.327,5.766,30.789,9.4,9.81,3.408,20,7.331,30.283,11.661,18.307,7.708,37.755,17.069,57.8,27.823,36.906,19.8,69.575,40.811,95.824,57.7,9.368,6.026,17.458,11.229,24.73,15.729a85.665,85.665,0,0,1,10.485,7.558,56.774,56.774,0,0,1,7.618,7.794,41.2,41.2,0,0,1,5.022,8,35.115,35.115,0,0,1,2.7,8.17,36.512,36.512,0,0,1,.653,8.109,44.687,44.687,0,0,1-1.047,8.215,71.078,71.078,0,0,1-6.186,16.64c-5.6,11.148-13.77,22.417-21.666,33.314-7.688,10.611-14.948,20.63-19.868,30.357a56.725,56.725,0,0,0-5.231,14.19,27.986,27.986,0,0,0,.22,13.272,25.1,25.1,0,0,0,3,6.716A32.358,32.358,0,0,0,225.5-927a50.517,50.517,0,0,0,8.009,5.974,85.324,85.324,0,0,0,10.926,5.556c11.066,4.735,21.5,8.846,31.9,12.568,9.291,3.326,18.365,6.273,27.741,9.008,17.452,5.089,32.813,8.542,49.077,12.2h.01c35.041,7.877,71.276,16.023,130.2,41.6a195.244,195.244,0,0,1,36.593,20.6,158.513,158.513,0,0,1,26.393,23.9,145.409,145.409,0,0,1,28.747,50.232,153.24,153.24,0,0,1,5.633,22.61,152.114,152.114,0,0,1,1.994,18.455,107.756,107.756,0,0,1-.373,17,74.1,74.1,0,0,1,.706,7.722,115.409,115.409,0,0,1-.814,19.656,107.673,107.673,0,0,1-6.733,26.342,94.769,94.769,0,0,1-17.053,27.775c-7.2,8.133-17.067,16.407-29.319,24.591a313.28,313.28,0,0,1-33.719,19.338,403.32,403.32,0,0,1-39.36,17.19c-.027.012-2.805,1.226-7.026,3.573a137.26,137.26,0,0,0-16.547,10.879A118.065,118.065,0,0,0,413.216-511.8a88.563,88.563,0,0,0-15.186,26.207,38.228,38.228,0,0,0-2.413,16.658,37.106,37.106,0,0,0,4.548,14.43c4.919,9.127,13.3,17.642,22.183,26.658l.02.02c6.028,6.123,12.259,12.452,18.125,19.613a114.235,114.235,0,0,1,15.564,24.24c10.1,21.7,38.117,35.486,62.838,47.652l.028.014.015.007c10.216,5.029,19.865,9.778,27.34,14.663a53.683,53.683,0,0,1,9.417,7.5,19.6,19.6,0,0,1,5.016,8.05,13.058,13.058,0,0,1,.312,5.9,18.281,18.281,0,0,1-2.568,6.4,16.834,16.834,0,0,1-4.941,4.965,34.159,34.159,0,0,1-7.655,3.749c-5.608,2.016-12.862,3.5-22.177,4.548-17.393,1.95-39.46,2.053-62.823,2.162h-.073c-57.876.267-123.472.57-145.684,28.926a141.674,141.674,0,0,0-13.794,21.218,113.037,113.037,0,0,0-9.231,23.075,77.268,77.268,0,0,0-2.846,23.312,54.962,54.962,0,0,0,5.362,21.923c6.331,13,18.1,23.2,34.982,30.3a143.941,143.941,0,0,0,32.284,8.869,272.846,272.846,0,0,0,43.809,3.2c5.133,0,10.5-.109,15.937-.324,8.816-.348,18.022-1.188,27.361-2.5,8.912-1.247,18.262-2.965,27.789-5.107a506.861,506.861,0,0,0,56.79-16.635c17.228-6.048,36.293-13.518,58.285-22.838,19.649-8.326,39.955-17.406,59.593-26.187l.01,0,.033-.015.015-.006c45.528-20.36,92.606-41.413,140.2-57.236,12.3-4.09,24.359-7.731,35.834-10.822,12.314-3.316,24.457-6.134,36.094-8.377,12.335-2.379,24.558-4.2,36.328-5.412a358.353,358.353,0,0,1,36.532-1.92c5.065,0,10.17.118,15.172.35,22.124,1.028,42.313,1.528,61.721,1.528,23.049,0,41.65-.728,57.275-1.41l2.713-.119.45-.02,1.445-.064.574-.026h.01l.067,0c14.3-.633,26.646-1.179,39.856-1.179,12.975,0,25.1.538,38.173,1.695,14.76,1.306,30.85,3.434,49.191,6.5,39.715,6.648,92.027,18.077,164.629,35.966,68.381,16.849,142.354,35.183,219.932,55.088,92.589,23.756,169.833,44.5,236.145,63.409,38,10.837,72.375,21.084,102.181,30.458V106.477c-4.389.873-8.932,1.741-13.5,2.582-25.379,4.664-54.645,9.027-86.986,12.967-34.489,4.2-73.507,8.045-115.971,11.427-95.494,7.605-206.1,17.624-323.2,28.23l-.125.011-.044,0c-182.635,16.542-389.639,35.292-592.542,49.688C560.232,227.947,370.671,236,214.112,236Z" transform="translate(-5 1218)" fill="#9be7ff"/>
</svg>
