<svg id="Group_37" data-name="Group 37" xmlns="http://www.w3.org/2000/svg" width="214.924" height="144.439" viewBox="0 0 214.924 144.439">
  <path id="Path_727" data-name="Path 727" d="M359.969,146.218s-2.539,7.227-.977,8.339-5.274,10.192-5.274,10.192l-8.2-2.224,4.492-7.6s.586-7.6.586-8.71S359.969,146.218,359.969,146.218Z" transform="translate(-287.64 -132.794)" fill="#ffb8b8"/>
  <path id="Path_728" data-name="Path 728" d="M359.969,146.218s-2.539,7.227-.977,8.339-5.274,10.192-5.274,10.192l-8.2-2.224,4.492-7.6s.586-7.6.586-8.71S359.969,146.218,359.969,146.218Z" transform="translate(-287.64 -132.794)" opacity="0.1"/>
  <path id="Path_729" data-name="Path 729" d="M313.842,390.058s.741,9.266,0,14.084-1.853,18.16-1.853,18.16,0,25.2-4.077,25.573-7.042.741-7.412-.741,1.853-2.224.741-2.965-1.482-3.336,0-6.3,0-32.985,0-32.985l-7.042,18.9s-.741,15.566-1.482,17.79.741,6.3-1.853,6.671-5.559-1.853-7.042-2.594,2.224-.741,1.483-1.112-2.965-1.482-2.224-1.853,1.482-18.16,1.482-18.16,2.039-37.989,4.633-39.471a3.182,3.182,0,0,1,4.262,1.071Z" transform="translate(-237.252 -325.118)" fill="#2f2e41"/>
  <path id="Path_730" data-name="Path 730" d="M382.827,702.778v2.965s3.336,8.06,0,8.06-5.93.835-5.93-.277V703.519Z" transform="translate(-312.908 -581.304)" fill="#2f2e41"/>
  <path id="Path_731" data-name="Path 731" d="M288.984,701.728v2.965s-3.336,8.06,0,8.06,5.93.835,5.93-.277V702.469Z" transform="translate(-240.931 -580.458)" fill="#2f2e41"/>
  <circle id="Ellipse_171" data-name="Ellipse 171" cx="6.671" cy="6.671" r="6.671" transform="translate(60.469 5.456)" fill="#ffb8b8"/>
  <path id="Path_732" data-name="Path 732" d="M349.927,205.321s-1.853,5.559-4.818,4.447l-2.965-1.112-5.189,35.58s4.077,5.93,10.007,2.224S349.927,205.321,349.927,205.321Z" transform="translate(-280.748 -180.778)" fill="#f2f2f2"/>
  <path id="Path_733" data-name="Path 733" d="M317.171,185.067l-1.668-3.521s-9.822,4.633-11.3,6.115a5.788,5.788,0,0,0-1.482,3.706l2.594,9.266s-.741,20.384-.741,21.125-2.594,4.818-.741,3.336,2.224-2.965,3.706-.741a27.187,27.187,0,0,0,4.818,4.818Z" transform="translate(-253.182 -161.636)" fill="#d0cde1"/>
  <path id="Path_734" data-name="Path 734" d="M288.886,336.562,290,346.939s6.671,5.93,5.189,6.3a2.051,2.051,0,0,1-2.224-1.112s-2.594,2.594-4.077,1.112-5.189-15.566-5.189-15.566Z" transform="translate(-237.868 -286.446)" fill="#ffb8b8"/>
  <path id="Path_735" data-name="Path 735" d="M360.678,93.123a7.419,7.419,0,0,1,4.309.718,6.308,6.308,0,0,1,1.489,1.458c1.214,1.535,2.264,3.467,1.813,5.372l-.524-.2a3.43,3.43,0,0,0,.331,1.47c-.074-.214-.321.132-.255.349l.577,1.893a1.783,1.783,0,0,0-2.273,1.357c-.066-2.2-.294-4.721-2.078-6.009a7.189,7.189,0,0,0-3.134-1.024,6.3,6.3,0,0,0-3.038.015,2.185,2.185,0,0,0-1.573,2.323,1.035,1.035,0,0,0-1.166.575,3.019,3.019,0,0,0-.239,1.382c-.476.336-1.017-.331-1.211-.881a7.951,7.951,0,0,1-.615-4.008,3.057,3.057,0,0,1,2.709-2.636.949.949,0,0,1-.247-.669l1.127-.1a1.246,1.246,0,0,1-.745-.392C356.387,94.615,359.946,93.149,360.678,93.123Z" transform="translate(-293.68 -90.425)" fill="#2f2e41"/>
  <path id="Path_736" data-name="Path 736" d="M374.744,182.408s3.017-2.957,4.1-2.775,2.568,2.775,2.568,2.775,8.895,2.965,8.524,5.93-4.447,17.419-4.447,17.419-3.336,17.419-.371,19.272-14.084,6.671-14.454,4.447-1.112-24.461,0-27.8S374.744,182.408,374.744,182.408Z" transform="translate(-307.419 -160.089)" fill="#d0cde1"/>
  <path id="Path_737" data-name="Path 737" d="M290.272,224.342H285.69s-3.2,14.084-3.571,15.566-1.112,8.524-.741,8.524,7.783-1.482,7.783-.371Z" transform="translate(-235.919 -196.093)" fill="#d0cde1"/>
  <path id="Path_738" data-name="Path 738" d="M128.394,476.138V417.266H11.772v58.872H8.632V480.4h122.9v-4.261Z" transform="translate(-6.95 -335.96)" fill="#3f3d56"/>
  <rect id="Rectangle_53" data-name="Rectangle 53" width="60.105" height="25.343" transform="translate(14.241 96.22)" fill="#64b5f6"/>
  <path id="Path_739" data-name="Path 739" d="M565.858,572.505a11.477,11.477,0,0,0-4.6-1.406v17.337h4.6Z" transform="translate(-461.347 -475.283)" fill="#64b5f6"/>
  <path id="Path_740" data-name="Path 740" d="M527.306,588.436h4.6V571.1a11.476,11.476,0,0,0-4.6,1.406Z" transform="translate(-434.009 -475.283)" fill="#64b5f6"/>
  <path id="Path_741" data-name="Path 741" d="M595.214,585.629v14.505h3.925V594.3A11.522,11.522,0,0,0,595.214,585.629Z" transform="translate(-488.685 -486.982)" fill="#64b5f6"/>
  <path id="Path_742" data-name="Path 742" d="M500.731,585.629a11.522,11.522,0,0,0-3.925,8.674v5.831h3.925Z" transform="translate(-409.452 -486.982)" fill="#64b5f6"/>
  <rect id="Rectangle_54" data-name="Rectangle 54" width="126.265" height="5.607" transform="translate(0 78.503)" fill="#3f3d56"/>
  <path id="Path_743" data-name="Path 743" d="M271.667,685.211a3.816,3.816,0,0,1-1.421,1.923,3.286,3.286,0,0,1,1.163-4.3A3.817,3.817,0,0,1,271.667,685.211Z" transform="translate(-226.752 -565.246)" fill="#3f3d56"/>
  <path id="Path_744" data-name="Path 744" d="M263.611,685.211a3.816,3.816,0,0,0,1.421,1.923,3.286,3.286,0,0,0-1.163-4.3A3.816,3.816,0,0,0,263.611,685.211Z" transform="translate(-221.618 -565.246)" fill="#3f3d56"/>
  <path id="Path_745" data-name="Path 745" d="M257.332,689.88a3.817,3.817,0,0,1,.989,2.177,3.286,3.286,0,0,1-3.192-3.107A3.817,3.817,0,0,1,257.332,689.88Z" transform="translate(-214.866 -570.17)" fill="#3f3d56"/>
  <path id="Path_746" data-name="Path 746" d="M272.5,689.88a3.817,3.817,0,0,0-.989,2.177,3.286,3.286,0,0,0,3.192-3.107A3.817,3.817,0,0,0,272.5,689.88Z" transform="translate(-228.055 -570.17)" fill="#3f3d56"/>
  <path id="Path_747" data-name="Path 747" d="M201.211,645.971h-8.873c-.114-.1-.272-.237-.489-.422-.683-.586.1-1.661.1-1.661v-1.269s.684-4.1,1.367-4.884a1.461,1.461,0,0,1,.286-.256l-.413-.176.073-.7-.441.456-.587-.36-.059-.458-.46.092,1.8-2.934c1.744-2.79,4.035-1.587,4.035-1.587,3.733,0,2.3,3.111,2.3,3.111l-.462.1a1.754,1.754,0,0,1-1.542,2.065,2.13,2.13,0,0,0-.145,1.314l.69.406.879,1.856s.683.293.683,1.563a11.351,11.351,0,0,0,.977,3.419A1.572,1.572,0,0,1,201.211,645.971Z" transform="translate(-163.692 -523.96)" fill="#3f3d56"/>
  <path id="Path_748" data-name="Path 748" d="M306.989,626.27l-.593-1.385-.426.213-.276-.677a.358.358,0,0,0,.243-.25,1.563,1.563,0,0,1,.129-.463c.033-.047.076-.086.105-.136a.559.559,0,0,0,.056-.205c.033-.243.066-.488.1-.732a1.216,1.216,0,0,0,.016-.325c-.044-.35-.372-.616-.414-.966a2.885,2.885,0,0,0-.021-.463.883.883,0,0,0-.22-.33l-.709-.777a1.26,1.26,0,0,0-.418-.344,2.195,2.195,0,0,0-.89-.02,8.1,8.1,0,0,1-.94-.118,1.074,1.074,0,0,0-.885.239c-.075.076-.131.169-.209.242-.321.3-.951.219-1.118.625-.1.253.053.566-.075.808-.081.151-.26.242-.313.406a.415.415,0,0,0,.207.454.722.722,0,0,0,.188.081,2.672,2.672,0,0,0,2.138,3.813l.626,1.1-.258.2.495,1.088c-2.473,1.186-2.175,7.022-2.175,7.022s-.02.179-.053.49h9.024c.086-.85.165-1.833.227-2.963C310.847,627.457,306.989,626.27,306.989,626.27Z" transform="translate(-251.092 -514.072)" fill="#3f3d56"/>
  <path id="Path_749" data-name="Path 749" d="M242.065,573.7c4.087,0,7.4-.753,7.4-1.682h-14.8C234.664,572.951,237.978,573.7,242.065,573.7Z" transform="translate(-198.389 -476.026)" fill="#3f3d56"/>
  <circle id="Ellipse_172" data-name="Ellipse 172" cx="3.476" cy="3.476" r="3.476" transform="translate(95.204 101.042)" fill="#3f3d56"/>
  <path id="Path_750" data-name="Path 750" d="M248.186,356.417l31.28-31.279c-24.613,0-30.317,19.679-31.634,28.185-1.316-8.506-7.021-28.185-31.634-28.185l31.279,31.279c-.033.481-.038.747-.038.747l.392-.392.392.392S248.219,356.9,248.186,356.417Z" transform="translate(-183.521 -277.248)" fill="#3f3d56"/>
  <circle id="Ellipse_173" data-name="Ellipse 173" cx="12.088" cy="12.088" r="12.088" transform="translate(52.222 34.231)" fill="#64b5f6"/>
  <path id="Path_751" data-name="Path 751" d="M392.093,340.085l-5.189,2.224s-10.007,1.482-10.007-2.594,10.007-1.853,10.007-1.853l3.336-1.067Z" transform="translate(-312.908 -286.634)" fill="#ffb8b8"/>
  <path id="Path_752" data-name="Path 752" d="M439.987,212.929l4.447,1.112,3.336,19.643s1.112,5.189-.741,5.559-7.042,3.336-7.042,3.336-.741-5.559-2.224-5.559l3.706-2.965-2.224-12.972Z" transform="translate(-361.913 -186.904)" fill="#d0cde1"/>
  <path id="Path_753" data-name="Path 753" d="M350.242,257.736l-6.195-6.195a1.077,1.077,0,0,1,1.522-1.522l4.57,4.57,14.582-16.628a1.076,1.076,0,1,1,1.619,1.419Z" transform="translate(-286.205 -206.762)" fill="#f2f2f2"/>
  <path id="Path_754" data-name="Path 754" d="M783.5,79.367v71.706h71.706V79.367Zm36.438,70.147a1.949,1.949,0,1,1,1.949-1.949,1.949,1.949,0,0,1-1.949,1.949Z" transform="translate(-640.282 -79.367)" fill="#d0cde1"/>
  <circle id="Ellipse_174" data-name="Ellipse 174" cx="3.232" cy="3.232" r="3.232" transform="translate(151.596 10.803)" fill="#3f3d56"/>
  <circle id="Ellipse_175" data-name="Ellipse 175" cx="3.232" cy="3.232" r="3.232" transform="translate(151.596 25.348)" fill="#3f3d56"/>
  <circle id="Ellipse_176" data-name="Ellipse 176" cx="3.232" cy="3.232" r="3.232" transform="translate(151.596 39.894)" fill="#3f3d56"/>
  <circle id="Ellipse_177" data-name="Ellipse 177" cx="3.232" cy="3.232" r="3.232" transform="translate(151.596 54.439)" fill="#3f3d56"/>
  <rect id="Rectangle_55" data-name="Rectangle 55" width="42.827" height="6.463" rx="3.232" transform="translate(163.718 39.894)" fill="#3f3d56"/>
  <rect id="Rectangle_56" data-name="Rectangle 56" width="42.827" height="6.465" rx="3.233" transform="translate(163.718 54.438)" fill="#3f3d56"/>
  <rect id="Rectangle_57" data-name="Rectangle 57" width="42.827" height="6.463" rx="3.232" transform="translate(163.718 25.349)" fill="#3f3d56"/>
  <rect id="Rectangle_58" data-name="Rectangle 58" width="42.827" height="6.465" rx="3.233" transform="translate(163.718 10.803)" fill="#3f3d56"/>
  <path id="Path_755" data-name="Path 755" d="M915.169,134.807v6.465h-24.9a1.563,1.563,0,0,1-1.559-1.559v-3.348a1.563,1.563,0,0,1,1.559-1.559Z" transform="translate(-724.992 -124.004)" fill="#64b5f6"/>
  <path id="Path_756" data-name="Path 756" d="M908.739,284.107v6.463h-18.47a1.563,1.563,0,0,1-1.559-1.559v-3.346a1.563,1.563,0,0,1,1.559-1.559Z" transform="translate(-724.992 -244.213)" fill="#64b5f6"/>
  <path id="Path_757" data-name="Path 757" d="M898.8,358.747v6.465h-8.533a1.563,1.563,0,0,1-1.559-1.559v-3.348a1.563,1.563,0,0,1,1.559-1.559Z" transform="translate(-724.992 -304.309)" fill="#64b5f6"/>
  <rect id="Rectangle_59" data-name="Rectangle 59" width="42.827" height="6.463" rx="3.232" transform="translate(163.718 25.349)" fill="#64b5f6"/>
  <path id="Path_758" data-name="Path 758" d="M724.372,427.494c-1.8-1.108-3.839.426-4.513,2.128-.848,2.142.568,4.419,1.7,6.152a18.209,18.209,0,0,1,2.927,6.357,8.3,8.3,0,0,1-.945,5.989c-2.222,3.532-7.142,3.549-10.836,3.506a9.89,9.89,0,0,1-5.329-1.158,3.669,3.669,0,0,1,2.723-6.685,6.209,6.209,0,0,1,4.419,3.045,15.333,15.333,0,0,1,1.813,6.158,5.413,5.413,0,0,1-.272,3.264,3.566,3.566,0,0,1-1.939,1.523,11.635,11.635,0,0,1-2.919.595,36.394,36.394,0,0,1-3.766.173,65.857,65.857,0,0,1-7.494-.532c-5.021-.594-10.04-1.467-15.112-1.376a32.619,32.619,0,0,0-3.715.263,6.9,6.9,0,0,0-3.228,1.1c-1.673,1.228-2.278,3.259-2.721,5.193a21.907,21.907,0,0,1-2.123,6.2,9.611,9.611,0,0,1-4.659,4.263,7.069,7.069,0,0,1-2.976.5c-.752-.04-.75,1.13,0,1.169a8.912,8.912,0,0,0,6.212-2.328,13.607,13.607,0,0,0,3.731-5.918,30.083,30.083,0,0,0,.875-3.273,15.46,15.46,0,0,1,.837-2.872,4.523,4.523,0,0,1,1.772-2.158,7.978,7.978,0,0,1,3.335-.821c5.2-.486,10.4.29,15.55.954,2.583.333,5.173.644,7.776.761a32.262,32.262,0,0,0,7.5-.369c2.027-.39,4.091-1.449,4.51-3.659a10.991,10.991,0,0,0-.132-3.62,19.8,19.8,0,0,0-.742-3.327,8.995,8.995,0,0,0-3.792-5.163,6.222,6.222,0,0,0-5.7-.444,4.831,4.831,0,0,0-2.56,5.03,5.232,5.232,0,0,0,3.79,4.109,25.109,25.109,0,0,0,12.3-.4,7.843,7.843,0,0,0,4.534-4.394,10.287,10.287,0,0,0,.123-6.771,17.4,17.4,0,0,0-1.492-3.43c-.588-1.052-1.29-2.029-1.912-3.06a6.59,6.59,0,0,1-1.132-3.106,2.848,2.848,0,0,1,1.066-2.268,1.615,1.615,0,0,1,1.93-.28c.643.395,1.231-.616.59-1.01Z" transform="translate(-544.747 -359.358)" fill="#3f3d56"/>
</svg>
