<svg id="FAQImage" xmlns="http://www.w3.org/2000/svg" xmlns:xlink="http://www.w3.org/1999/xlink" width="669" height="557.635" viewBox="0 0 669 557.635">
  <defs>
    <linearGradient id="linear-gradient" x1="0.5" y1="1" x2="0.5" gradientUnits="objectBoundingBox">
      <stop offset="0" stop-color="gray" stop-opacity="0.251"/>
      <stop offset="0.54" stop-color="gray" stop-opacity="0.122"/>
      <stop offset="1" stop-color="gray" stop-opacity="0.102"/>
    </linearGradient>
  </defs>
  <ellipse id="Ellipse_111" data-name="Ellipse 111" cx="68.347" cy="6.737" rx="68.347" ry="6.737" transform="translate(125.17 544.16)" fill="#64b5f6" opacity="0.1"/>
  <path id="Path_366" data-name="Path 366" d="M474.139,41.4c-30.1-11.189-66.748-1.566-98.043,12.469C277.807,97.958,206.2,181.653,149.309,266.92,128.71,297.8,109.144,330.03,101.4,364.5c-15.767,70.153,25.357,142.779,95.3,168.229,23.784,8.663,49.914,12.215,76.084,14.195,46.536,3.525,94.717,2.126,140.88-10.929,32.921-9.33,64.062-24.337,93.931-40.918,83.415-46.329,159.593-106.493,214.445-179.985,24.057-32.234,44.41-68.574,45-105.766s-23.651-74.565-63.529-80.889c-16.487-2.612-33.927.107-50.941,2.906-25.05,4.125-50.441,8.463-75.2,6.664-25.584-1.873-58.858-11.869-63.522-36.293C508.9,75.487,504.2,52.575,474.139,41.4Z" transform="translate(-98.044 -33.243)" fill="#64b5f6" opacity="0.1"/>
  <path id="Path_367" data-name="Path 367" d="M369.825,800.4s-32.161-1.939-28.369,20.6a5.489,5.489,0,0,0,2.859,5.791s.053-1.673,3.3-1.106a14.526,14.526,0,0,0,3.492.173,7.283,7.283,0,0,0,4.272-1.766h0s9.043-3.732,12.555-18.513c0,0,2.606-3.219,2.5-4.052l-5.425,2.319s1.853,3.919.393,7.171c0,0-.173-7.024-1.22-6.864-.207.033-2.819,1.333-2.819,1.333s3.192,6.818.786,11.776c0,0,.913-8.4-1.779-11.282l-3.825,2.232s3.732,7.044,1.2,12.788c0,0,.666-8.817-2-12.249l-3.465,2.666s3.505,6.944,1.366,11.716c0,0-.273-10.269-2.113-11.042,0,0-3.032,2.666-3.492,3.772,0,0,2.4,5.038.913,7.7,0,0-.913-6.837-1.666-6.871,0,0-3.012,4.532-3.332,7.637a16.491,16.491,0,0,1,2.606-8.07,9.1,9.1,0,0,0-4.625,2.392s.473-3.205,5.365-3.485c0,0,2.492-3.432,3.165-3.645,0,0-4.871-.407-7.824.906,0,0,2.6-3.026,8.717-1.653l3.419-2.786s-6.418-.88-9.13.093c0,0,3.125-2.666,10.049-.726l3.719-2.226s-5.465-1.18-8.723-.753c0,0,3.439-1.853,9.816.153l2.666-1.193s-4-.786-5.178-.913-1.233-.447-1.233-.447a13.876,13.876,0,0,1,7.524.833S369.925,800.786,369.825,800.4Z" transform="translate(136.56 -288.054)" fill="#64b5f6"/>
  <ellipse id="Ellipse_112" data-name="Ellipse 112" cx="22.765" cy="3.845" rx="22.765" ry="3.845" transform="translate(461.469 536.856)" fill="#64b5f6" opacity="0.1"/>
  <path id="Path_368" data-name="Path 368" d="M293.047,777.658s-18.133-1.093-15.994,11.616a3.086,3.086,0,0,0,1.606,3.265s.033-.94,1.859-.62a8.083,8.083,0,0,0,1.966.093,4.038,4.038,0,0,0,2.412-.993h0s5.091-2.113,7.091-10.443c0,0,1.466-1.819,1.413-2.286l-3.065,1.333a5.507,5.507,0,0,1,.227,4.045s-.1-3.965-.666-3.872c-.12,0-1.593.766-1.593.766s1.8,3.845.44,6.664c0,0,.52-4.738-1-6.364l-2.153,1.259s2.1,4,.666,7.211c0,0,.367-4.971-1.126-6.9l-1.953,1.519s2,3.912.766,6.6c0,0-.153-5.791-1.193-6.224a11.878,11.878,0,0,0-1.966,2.126s1.333,2.839.513,4.339c0,0-.513-3.852-.94-3.872a12.741,12.741,0,0,0-1.873,4.305,9.33,9.33,0,0,1,1.466-4.552,5.085,5.085,0,0,0-2.606,1.333s.26-1.806,3.026-1.966a11.779,11.779,0,0,1,1.779-2.053,11.143,11.143,0,0,0-4.412.506s1.466-1.706,4.918-.933l1.926-1.573s-3.619-.493-5.151.053c0,0,1.766-1.506,5.671-.406l2.093-1.26a19.039,19.039,0,0,0-4.911-.42s1.933-1.046,5.531.086l1.5-.666s-2.259-.447-2.919-.513-.7-.253-.7-.253a7.858,7.858,0,0,1,4.245.473S293.1,777.878,293.047,777.658Z" transform="translate(256.421 -280.474)" fill="#64b5f6"/>
  <ellipse id="Ellipse_113" data-name="Ellipse 113" cx="12.835" cy="2.173" rx="12.835" ry="2.173" transform="translate(524.145 510.992)" fill="#64b5f6" opacity="0.1"/>
  <path id="Path_369" data-name="Path 369" d="M965.752,795.985s-21.892-1.333-19.326,13.995a3.759,3.759,0,0,0,1.946,3.945s.04-1.14,2.246-.753a9.868,9.868,0,0,0,2.379.113,4.9,4.9,0,0,0,2.905-1.2h0s6.158-2.539,8.55-12.6c0,0,1.773-2.193,1.7-2.752L962.46,798.3s1.26,2.666.267,4.885c0,0-.12-4.785-.826-4.665-.147,0-1.919.92-1.919.92s2.172,4.665.533,8c0,0,.62-5.718-1.213-7.677l-2.6,1.513s2.539,4.8.813,8.71c0,0,.446-6-1.333-8.337l-2.359,1.839s2.386,4.725.933,8c0,0-.193-6.984-1.446-7.517a14.374,14.374,0,0,0-2.372,2.566s1.633,3.432.62,5.245c0,0-.62-4.665-1.133-4.665,0,0-2.053,3.086-2.266,5.2a11.2,11.2,0,0,1,1.766-5.491,6.191,6.191,0,0,0-3.145,1.626s.32-2.179,3.659-2.372a14.2,14.2,0,0,1,2.146-2.479,13.477,13.477,0,0,0-5.331.613s1.773-2.053,5.938-1.12l2.326-1.9s-4.365-.6-6.218.06c0,0,2.133-1.819,6.844-.493l2.532-1.513a23.067,23.067,0,0,0-5.938-.513s2.339-1.26,6.664.107l1.813-.813s-2.726-.54-3.525-.62-.84-.307-.84-.307a9.463,9.463,0,0,1,5.118.567S965.818,796.239,965.752,795.985Z" transform="translate(-862.387 -286.586)" fill="#64b5f6"/>
  <ellipse id="Ellipse_114" data-name="Ellipse 114" cx="15.494" cy="2.619" rx="15.494" ry="2.619" transform="translate(72.796 526.087)" fill="#64b5f6" opacity="0.1"/>
  <path id="Path_370" data-name="Path 370" d="M676.329,500.453a47.546,47.546,0,0,0,.726-7.1c0-2.859,3.885-5.391,3.885-5.391s2.4-5.551,4-6.371,6.538-8.084,6.538-8.084a6.6,6.6,0,0,1,1.486-3.919,56.332,56.332,0,0,0,4.045-6.1h0c.666-.813.333-1.386,1.333-6.124.053-.247.113-.486.187-.713a.936.936,0,0,1,.107-.307,8,8,0,0,1-1.886-8.284,3.333,3.333,0,0,1,.946-1.466c1.126-.92,2.926-.54,4.085-1.413l-1.233-5.451c-.293-1.333-.447-3.019.72-3.739a6.05,6.05,0,0,1,1.373-.46c2-.666,3.159-2.779,3.679-4.811a16.485,16.485,0,0,0,.4-6c-.227-1.933-.793-3.812-1-5.751a15.793,15.793,0,0,1,2.446-10.223,7.87,7.87,0,0,1,3.232-3.052c1.233-.553,2.666-.666,3.818-1.333,2.479-1.579,2.352-5.331,4.332-7.484s5.485-2.146,8.37-1.406,5.758,2,8.717,1.686c1.906-.213,3.692-1.08,5.6-1.28a5.906,5.906,0,0,1,1.639.073v-.06a3.556,3.556,0,0,1,3.045,2.379,3.633,3.633,0,0,1,.093.973c0,.78-.187,1.593-.2,2.339a2.226,2.226,0,0,0,.54,1.646c.38.406.94.62,1.333,1.04a1.666,1.666,0,0,1,.486,1.226c0,1.186-1.479,2.233-2.472,2.712h-.04c.267.267.533.546.78.833a17.554,17.554,0,0,1,4.412,11.656,17.793,17.793,0,0,1-10.823,16.247l.14.433a24.872,24.872,0,0,0,.98,2.519,4.992,4.992,0,0,1,4.185.466c1.906,1.333,5.631,1.226,6.624.98s11.329-1.553,12.162-1.226,2.479-1.14,3.552.82,1.573,3.019,2.666,3.512,2.979,2.039,2.726,2.366,2.732,2.286,2.732,2.286,2.566,2.666,4.052,3.019a23.794,23.794,0,0,1,4.632,2.372l3.645,2.852s2.726.413,1.9-1.466,1.493-4.245,1.493-4.245,4.632-9.39,4.632-11.329,3.805-10.209,3.805-10.209l.466-.047.213-.606c.7-1.966,1.606-4.378,2.3-5.791,1.333-2.7,2.153-2.979,2.153-2.979s16.047-12.049,26.47-8.377S813.53,426.9,810.885,428.047c-.926.4-1.593,1.693-2.059,3.205a13.714,13.714,0,0,1,5.7,5.125s-6.371,14.121-6.538,17.633-4.385,13.328-4.385,13.328-1.573,7.271-10.089,6.857c0,0-11.749,2.159-14.315,0s-4.878-3.852-6.124-4.1a4.831,4.831,0,0,1-2.312-1.633s3.885,24.491,5.791,26.617,18.746,29.622,12.7,34.54a120.76,120.76,0,0,1-15.134,10c-.513.253-2.052-2.312-4.252-4.132v1.419c-.04,9.783-1.333,24.657-3.119,27.989-2.666,4.9-1.573,14.368-1.573,14.368a11.328,11.328,0,0,1-4.472,1.073c-.08.32-.173.666-.26,1-1.459,5.511-3.825,14.035-5.031,16.3-1.819,3.432-3.139,14.295-3.139,14.295s-1.08,10.663-.666,12.162c.16.566-.54,5-1.639,10.663h0c.666,7.657,1.933,22.418,2.146,27.756h0v.387a1.608,1.608,0,0,0,0,.18v.327h0a4.99,4.99,0,0,1-.04,1.006,3.265,3.265,0,0,0,.113,1.519,26.535,26.535,0,0,0,1.793,4.278,20.385,20.385,0,0,1,.8,2.066,3.733,3.733,0,0,1,1.933,2.746c.826,3.185,2.066,12,2.066,12s.5,5.391,1.486,6.617,2,8.9-5.045,9.876-10.09-3.732-10.09-3.732l.247-21.379v-.04a3.236,3.236,0,0,1-.367-.58v-.053c-.047-.1-.1-.207-.147-.327l-.06-.16-.107-.26a.379.379,0,0,0,0-.093,14.126,14.126,0,0,1-.6-6.364v-.9a2.54,2.54,0,0,0-.04-.44v-.08l-.04-.26v-.113a.492.492,0,0,0-.053-.267.293.293,0,0,0,0-.067c-.067-.307-.147-.666-.233-.96v-.073l-.1-.32h0c-.1-.34-.213-.666-.333-1.026v-.067a.936.936,0,0,0-.113-.313v-.04c-.12-.327-.247-.666-.367-.946l-.033-.087-.107-.267-.033-.08-.253-.593h0l-1.953,6.031s-1.08,4.492-.5,5.551-.666,5.471-1.486,5.551l.766,5.551a84.882,84.882,0,0,1,.74,9.23c.053.353.107.666.147.88.533,2.846-.746,7.257-.746,7.257-6.531,7.724-14.315.6-14.315.6s-.906-4.085,0-4.9.5-3.759.5-3.759-.413-7.271-.493-12.575,4.338-10,4.338-10l.247.22c.806-2.079,1.726-4.5,1.533-5.591-.333-1.879.913-21.718.913-21.718a117.642,117.642,0,0,1-.293-15.994h0c-.107-.9-.207-1.786-.307-2.666-.5-4.265-.906-7.91-1.066-9.823h0v-.227c-.04-.513-.06-.88-.053-1.053,0-.666,0-1.426-.067-2.259-.153-2.293-.513-4.845-.513-4.845l-1.733-10.536s-1.333-5.145-3.232-8l-.227-.36h0c-.073-.127-.147-.267-.227-.413l-.033-.06c-.073-.14-.153-.286-.227-.44l-.033-.06c-.267-.526-.553-1.133-.853-1.8,0-.053-.047-.1-.067-.153l-.227-.506a.523.523,0,0,0-.087-.2c-.033-.067-.14-.34-.213-.506a1.914,1.914,0,0,1-.087-.207c-.087-.2-.18-.406-.267-.62l-.127-.306c-.06-.153-.127-.307-.193-.46l-.16-.406c-.047-.1-.087-.2-.127-.3l-.18-.46c0-.067-.06-.14-.087-.207-.473-1.18-.926-2.346-1.333-3.405h0c-.127-.333-.253-.666-.367-.96-4.238.26-7.117.493-7.117.493s-1.333-9.55-.906-15.834a58.836,58.836,0,0,0-1.046-12.662c-.06-.327-.113-.62-.167-.886l-.113.093c-2.073,1.633-3.559-3.759-3.559-3.759s.56-5.031,1.333-11.129l.08-.606a31.345,31.345,0,0,1-3.619.553s-.666-.06-1.579-.173a43.714,43.714,0,0,1-7.957,3.6l-4.405-8.13a33.084,33.084,0,0,0-2.9-4.818c-1.333-1.633-6.038-6.857-5.958-7.837s-1.573-6.617-3.225-9.15S676.249,500.859,676.329,500.453Zm18.366,6.2c1.739.733,3.392,4.818,3.472,6.044s1.906,6.611,3.805,7.264c1.753.6,5.1,3.679,5.631,4.172.546.047,1.166.12,1.813.227.726-5.151,1.446-9.416,1.906-10.276,1.333-2.452-1.459-10.289-1.459-10.289s-.273-7.917-2-9.8-1.333-6.617-1.333-6.617-.413-1.959-.58-2.852-2.459,0-2.479,0h0s-4.465,2.446-5.131,6.118-5.545,10.043-5.545,10.043.746,2.206,0,3.332S692.956,505.924,694.7,506.657Z" transform="translate(-551.153 -152.838)" fill="url(#linear-gradient)"/>
  <path id="Path_371" data-name="Path 371" d="M720.328,454.617A13.328,13.328,0,0,0,707,448.339v9.536h5.791l4.532-1.146Z" transform="translate(-457.144 -170.578)" fill="#4c4981"/>
  <path id="Path_372" data-name="Path 372" d="M720.328,454.617A13.328,13.328,0,0,0,707,448.339v9.536h5.791l4.532-1.146Z" transform="translate(-457.144 -170.578)" opacity="0.1"/>
  <path id="Path_373" data-name="Path 373" d="M677.05,441.693l7.1,4.971s.06-.993.24-2.352c.353-2.572,1.146-6.431,2.859-7.177,2.606-1.146,31.615-12.062,21.325-15.734s-26.077,8.363-26.077,8.363-.813.28-2.113,2.966c-.666,1.413-1.579,3.819-2.266,5.784C677.483,440.287,677.05,441.693,677.05,441.693Z" transform="translate(-427.627 -161.407)" fill="#ae6e79"/>
  <path id="Path_374" data-name="Path 374" d="M714.852,431.89l-.806-.38L711.78,434.1l1.853,3.952,3.159-1.266-.733-3.159Z" transform="translate(-522.128 -143.946)" fill="#4c4981"/>
  <path id="Path_375" data-name="Path 375" d="M794.6,811s2.039-.24,2.852,2.939,2.039,12,2.039,12,.486,5.378,1.466,6.6,1.953,8.883-4.971,9.856-9.943-3.725-9.943-3.725l.247-21.372Z" transform="translate(-591.145 -291.602)" fill="#444053"/>
  <path id="Path_376" data-name="Path 376" d="M821.526,812.44s-4.358,4.665-4.278,9.956.493,12.549.493,12.549.4,2.939-.493,3.752,0,4.891,0,4.891,7.664,7.111,14.1-.6c0,0,1.253-4.4.733-7.244s-1.973-15.6-1.973-15.6Z" transform="translate(-642.23 -292.085)" fill="#444053"/>
  <path id="Path_377" data-name="Path 377" d="M788.57,663.965s4.4,12.3,6.278,15.154,3.172,8,3.172,8l1.713,10.509a58.64,58.64,0,0,1,.573,7.091c-.08,2.366,4.238,36.833,4.238,36.833l6.844,8.723s3.012,6.111,2.526,8.663.326,6.6,1.333,7.824c0,0,.16,8,.406,9.776s-.9,6.851,0,7.744,12.875.493,13.2-.98-1.466-8.557-1.466-8.557l-1.06-6.844s-2.119-3.745-1.633-4.971-.893-4.072-.973-4.318-2.286-4.238-1.879-5.784-2.566-34.427-2.566-34.427l-8.39-58.918Z" transform="translate(-620.07 -241.059)" fill="#ae6e79"/>
  <path id="Path_378" data-name="Path 378" d="M788.57,663.972s.666,1.853,1.579,4.285c1.453,3.839,3.545,9.123,4.7,10.869,1.873,2.852,3.179,8,3.179,8l1.713,10.516a59.112,59.112,0,0,1,.566,7.091c0,.933.626,6.884,1.426,13.742,1.233,10.483,2.812,23.091,2.812,23.091l6.844,8.723s.347.666.78,1.719c.86,2,2.073,5.245,1.746,6.917-.486,2.526.326,6.6,1.333,7.824,0,0,.167,8,.406,9.776s-.9,6.844,0,7.744,12.875.493,13.2-.973-1.466-8.557-1.466-8.557l-1.06-6.851s-2.119-3.745-1.626-4.971-.9-4.072-.98-4.318-2.286-4.238-1.879-5.784c.313-1.18-1.333-20.486-2.1-29.642-.26-2.879-.427-4.751-.427-4.751L812.1,667.73l-.586-4.085-.586-4.145Z" transform="translate(-620.07 -241.066)" opacity="0.1"/>
  <path id="Path_379" data-name="Path 379" d="M784.98,788.552c-.073.9,11.5,2.206,13.148,1.226s0-13.122,0-13.122l-.753-5.538c.806-.087,2.032-4.485,1.466-5.545s.487-5.538.487-5.538l1.919-6,1.173-3.672c1.906-4.205,4.665-16.2,6.378-25.157,1.08-5.625,1.766-10.056,1.613-10.623-.406-1.466.667-12.142.667-12.142s1.333-10.843,3.092-14.261c1.193-2.266,3.519-10.776,4.958-16.267.733-2.819,1.24-4.845,1.24-4.845s-12.315-1.033-19.786-1.393c-3.432-.167-5.845-.187-5.565.093s.353,1.773.34,3.932c-.033,5.591-.813,15.427-1.639,18.073-1.14,3.665-2.279,14.661-1.793,15.727s.327,8.15.327,8.15a36.656,36.656,0,0,0-1.439,8.843,119.547,119.547,0,0,0,.28,15.921s-1.22,19.806-.893,21.678-2.606,7.744-2.606,8.883-.813,8.883-.813,8.883S785.034,787.659,784.98,788.552Z" transform="translate(-609.15 -243.086)" fill="#ae6e79"/>
  <path id="Path_380" data-name="Path 380" d="M801.87,475.651l1.4,1.513.913.986,5.331,5.731,13.775,1.553,7.331-1.959,1.813-.486s0-3.679-.327-8.09c-.466-5.658-1.579-12.529-4.238-14.4a10.589,10.589,0,0,1-3.1-3.925,22.1,22.1,0,0,1-1.333-3.292c-.053-.147-.093-.287-.14-.433A36.8,36.8,0,0,1,822,446.8s-1.759-.973-4.205-2.106c-6.378-2.979-17.393-7.091-13.561,2.106a35.976,35.976,0,0,1,1.439,4.132c.06.207.113.413.16.613,1.279,5.118.433,8.224-.52,9.936h0a6.228,6.228,0,0,1-.553.846,4.447,4.447,0,0,1-.926.94l-1.586,10.069-.133.833Z" transform="translate(-632.47 -168.228)" fill="#ae6e79"/>
  <path id="Path_381" data-name="Path 381" d="M816.171,447.541c.727,1.746-.353-1.426,0,0,2.906,2.066,9.75,7.95,13.595,7.95,2.6,0,3.379-.473,5.6-1.479a36.371,36.371,0,0,1-1.433-6.471S810.873,434.826,816.171,447.541Z" transform="translate(-644.412 -168.474)" opacity="0.1"/>
  <path id="Path_382" data-name="Path 382" d="M799.68,425.407a17.78,17.78,0,0,0,15.907,17.667c.613.06,1.233.1,1.859.1a17.767,17.767,0,1,0-17.767-17.767Z" transform="translate(-633.792 -157.049)" fill="#ae6e79"/>
  <path id="Path_383" data-name="Path 383" d="M790.79,530.483l2.532,6.6s2.059.087,5.271.187c10.843.347,34.733.786,35.8-2a7.083,7.083,0,0,0,.373-2.193c.14-4.245-1.839-10.763-1.839-10.763s-1.14-13.042-1.14-13.608.98-9.7.98-9.7l-1.959-7.331-5.458-3.832s-2.446,3.752-3.912,4.072a10.167,10.167,0,0,0-3.425,2.126s-4.8,2.932-6.358,1.3-13.608-8.8-13.608-8.8l-6.358,7.011Z" transform="translate(-627.427 -183.369)" opacity="0.1"/>
  <path id="Path_384" data-name="Path 384" d="M790.819,532l2.532,6.6s2.059.093,5.271.193h.313c1.386.047,2.972.093,4.665.127,8.617.2,20.486.253,26.69-.667,2.333-.333,3.859-.813,4.112-1.466a5.889,5.889,0,0,0,.293-1.213c.04-.307.067-.666.08-.98.14-4.245-1.839-10.763-1.839-10.763s-1.14-13.042-1.14-13.608.98-9.7.98-9.7l-1.959-7.331-3.752-2.626-1.706-1.2a25.563,25.563,0,0,1-1.873,2.466,4.983,4.983,0,0,1-2.039,1.606,10.2,10.2,0,0,0-3.425,2.126s-4.8,2.932-6.357,1.3c-1.18-1.246-8.51-5.731-11.9-7.777-1.04-.633-1.713-1.026-1.713-1.026l-.853.946-5.5,6.064Z" transform="translate(-627.457 -183.876)" fill="#fff"/>
  <path id="Path_385" data-name="Path 385" d="M716.64,450.609l7.1,4.971s.06-.993.24-2.352a14.366,14.366,0,0,1-6.251-5.8C717.073,449.2,716.64,450.609,716.64,450.609Z" transform="translate(-467.217 -170.322)" opacity="0.1"/>
  <path id="Path_386" data-name="Path 386" d="M711.278,467.809l1.546-.413s2.532,2.666,4,3.019a23.335,23.335,0,0,1,4.558,2.359l3.592,2.852s2.666.413,1.873-1.466,1.466-4.238,1.466-4.238,4.565-9.37,4.565-11.329,3.772-10.183,3.772-10.183,4.732,9.21,13.368,6.278c0,0-6.278,14.095-6.437,17.6s-4.318,13.282-4.318,13.282-1.553,7.257-9.943,6.851c0,0-11.576,2.153-14.1,0s-4.8-3.845-6-4.092a4.946,4.946,0,0,1-2.279-1.626v-9.69Z" transform="translate(-486.793 -170.649)" fill="#4c4981"/>
  <path id="Path_387" data-name="Path 387" d="M744.47,491.33s-2.039,7.584-.733,8.4Z" transform="translate(-505.477 -184.966)" opacity="0.1"/>
  <path id="Path_388" data-name="Path 388" d="M790.8,562.042c10.843.347,34.733.78,35.8-2a7.084,7.084,0,0,0,.373-2.193l-35.42,1.866Z" transform="translate(-619.634 -207.157)" opacity="0.1"/>
  <path id="Path_389" data-name="Path 389" d="M785,663.965s.666,1.853,1.579,4.285c4.5-.273,10.456-.56,16.114-.6,2,0,3.958,0,5.811.067a43.777,43.777,0,0,1,9.5,1.053,25.184,25.184,0,0,0,8.464,1.093c.733-2.819,1.239-4.845,1.239-4.845s-12.315-1.033-19.786-1.393l-.586-4.145Z" transform="translate(-616.5 -241.059)" opacity="0.1"/>
  <path id="Path_390" data-name="Path 390" d="M772.93,600.678l1.386,2.932s.193.873.44,2.259a57.757,57.757,0,0,1,1.026,12.662c-.406,6.278.9,15.807.9,15.807s29.989-2.526,38.785,0,13.128,0,13.128,0-1.066-9.45,1.546-14.341c1.779-3.332,3.032-18.206,3.072-27.989,0-4.512-.227-7.93-.793-8.623-1.793-2.2-9.45-24.2-9.45-24.2l-1.746.093-4.665.247-26.523,1.4-4.165.22-.44,1.333Z" transform="translate(-613.966 -207.6)" fill="#444053"/>
  <path id="Path_391" data-name="Path 391" d="M865.07,600.959l-.247,2.612s13.135-4.278,12.469-9.536,0-4.665,0-4.665l-10.556.893Z" transform="translate(-719.308 -217.665)" fill="#4c4981"/>
  <path id="Path_392" data-name="Path 392" d="M865.07,600.959l-.247,2.612s13.135-4.278,12.469-9.536,0-4.665,0-4.665l-10.556.893Z" transform="translate(-719.308 -217.665)" opacity="0.1"/>
  <path id="Path_393" data-name="Path 393" d="M758.085,493.429a11.7,11.7,0,0,1-4.625,2.406,3.011,3.011,0,0,0,1.333-.666c.94-.666,1.833-1.393,2.739-2.1a8.6,8.6,0,0,1,2.546-1.759A14.038,14.038,0,0,1,758.085,493.429Z" transform="translate(-527.855 -184.96)" opacity="0.1"/>
  <path id="Path_394" data-name="Path 394" d="M752.634,498.01a5.887,5.887,0,0,0-1.013,1.606,9.71,9.71,0,0,0,.073,5.045l2.106-5.078c.367-.866.733-1.733,1.173-2.559.193-.353,1.406-1.826,1.266-2.133C755.866,494.025,753.027,497.524,752.634,498.01Z" transform="translate(-522.604 -186.109)" opacity="0.1"/>
  <path id="Path_395" data-name="Path 395" d="M836.092,540.943a6.784,6.784,0,0,1-3.832-1.793c2.166.273,4.218,1.126,6.351,1.573a9.437,9.437,0,0,0,5.918-.547A14.552,14.552,0,0,1,836.092,540.943Z" transform="translate(-664.82 -200.919)" opacity="0.1"/>
  <path id="Path_396" data-name="Path 396" d="M819.79,516.224a1.487,1.487,0,0,0,1.1-.273q2.439-1.4,4.811-2.919a31.954,31.954,0,0,0,4.712-3.252C827.18,512.7,824.168,515.165,819.79,516.224Z" transform="translate(-642.393 -191.121)" opacity="0.1"/>
  <path id="Path_397" data-name="Path 397" d="M840.5,544.584a10.143,10.143,0,0,1-2.546-.207A3.412,3.412,0,0,1,835.86,543a1.2,1.2,0,0,1,.886.14,14.954,14.954,0,0,0,8.184.98A11.817,11.817,0,0,1,840.5,544.584Z" transform="translate(-667.62 -202.194)" opacity="0.1"/>
  <path id="Path_398" data-name="Path 398" d="M788.224,601.817a26.752,26.752,0,0,0,5.2,1.02,31.471,31.471,0,0,0,4.118-.08l6.664-.42,3.332-.213c.393,0,2,0,1.206-.793-.4-.386-2.626-.14-3.2-.16q-1.659-.053-3.332-.06c-2.206,0-4.418,0-6.624.133C793.122,601.363,790.69,601.55,788.224,601.817Z" transform="translate(-599.912 -221.588)" opacity="0.1"/>
  <path id="Path_399" data-name="Path 399" d="M784.85,606.81c1.133-.047,2.592.626,3.759.773a25.014,25.014,0,0,0,3.932.153,21.926,21.926,0,0,0,7.577-1.546C795.033,606.45,789.935,606.6,784.85,606.81Z" transform="translate(-588.814 -223.282)" opacity="0.1"/>
  <path id="Path_400" data-name="Path 400" d="M792.974,612.253a10.9,10.9,0,0,0-1.453.4c-2.812.8-5.8.093-8.663-.613a5.084,5.084,0,0,0,3.285,1.826,15.235,15.235,0,0,0,6.4.233c.667-.133,2.339-.373,2.666-1.066C795.753,612.013,793.6,612.153,792.974,612.253Z" transform="translate(-582.663 -225.234)" opacity="0.1"/>
  <path id="Path_401" data-name="Path 401" d="M827.488,619.516a21.725,21.725,0,0,0-2.492.666c-3.166.786-6.451-.293-9.63-1.02a44.825,44.825,0,0,0-11.656-1.08,11.538,11.538,0,0,1,2.5.82c.9.273,1.813.526,2.726.753,1.793.44,3.612.8,5.445,1.06a55.976,55.976,0,0,0,11.176.486c1.706-.093,4.665.08,6.124-.78A6.752,6.752,0,0,0,827.488,619.516Z" transform="translate(-632.944 -227.239)" opacity="0.1"/>
  <path id="Path_402" data-name="Path 402" d="M774.147,467.532s-.16,7.5,1.06,10.929c.387,1.066.986,3.032,1.639,5.238.713,2.446,1.493,5.185,2.093,7.331s1,3.585,1,3.585,2.752,22.418,3.465,33.1a2.61,2.61,0,0,0,.04.56c.04.6.107,1.226.207,1.873,1.586,10.609,10.736,26.97,13.808,28.276a9.14,9.14,0,0,1,2.586,1.779c0-4.512-.227-7.93-.793-8.623-1.793-2.2-9.45-24.2-9.45-24.2l-1.746.093c.04-.307.067-.666.08-.98.14-4.245-1.839-10.763-1.839-10.763s-1.14-13.042-1.14-13.608.98-9.7.98-9.7l-1.959-7.331-3.752-2.626c-.466-5.658-1.579-12.529-4.238-14.4a10.589,10.589,0,0,1-3.1-3.925c-.527.073.433-.393.433-.393Z" transform="translate(-580.797 -175.763)" opacity="0.1"/>
  <path id="Path_403" data-name="Path 403" d="M742.4,462.989a4.852,4.852,0,0,1,4.125.467c1.879,1.333,5.545,1.22,6.524.98s11.162-1.553,12-1.226,2.446-1.14,3.505.82,1.546,3.012,2.606,3.5,2.939,2.039,2.666,2.366,2.666,2.279,2.666,2.279L770.542,491.5s3.832,24.444,5.7,26.563,18.5,29.582,12.549,34.474a118.425,118.425,0,0,1-14.914,10c-.666.327-3.012-4.072-6.271-5.458s-13.368-19.726-13.995-30.155-3.505-33.654-3.505-33.654-3.505-12.715-4.725-16.141-1.06-10.929-1.06-10.929Z" transform="translate(-550.482 -175.425)" fill="#4c4981"/>
  <path id="Path_404" data-name="Path 404" d="M837.381,571.752l1.386,2.932s.193.873.44,2.259a1.248,1.248,0,0,0,.666-.3c2.039-1.633,13.995-13.935,14.588-24.857.42-8.057.22-15,.087-18.093-.04-.973-.08-1.559-.08-1.686h0s-9.29-11.249-8.23-15.234,3.505-25.324,3.505-25.324l.36-2.8.62-4.732L852.2,472.47l-1.533.36a4.446,4.446,0,0,1-.926.94l-1.586,10.069-5.5,6.064-.9,36.919,2.532,6.6s2.059.093,5.271.193h.313Z" transform="translate(-678.417 -178.675)" opacity="0.1"/>
  <path id="Path_405" data-name="Path 405" d="M845.115,510.565s2.279-.9,2.439,0,.573,2.846.573,2.846-.407,4.732,1.333,6.6,2,9.776,2,9.776,2.746,7.824,1.446,10.269c-.473.886-1.206,5.331-1.939,10.663-.466,3.332-.926,6.991-1.333,10.336-.74,6.078-1.293,11.109-1.293,11.109s1.473,5.378,3.512,3.745,13.995-13.935,14.581-24.857c.4-7.67.24-14.335.107-17.62-.053-1.393-.107-2.179-.107-2.179s-9.29-11.249-8.23-15.241,3.505-25.324,3.505-25.324l.427-3.3.46-3.545.107-.78,1.473-11.329h0c-.26.06-9.4,2.126-10.609,3.332S844.9,478,844.9,478a6.517,6.517,0,0,0-4.625,4.745c-.073.227-.127.466-.18.713-.98,4.732-.666,5.3-1.333,6.118S845.115,510.565,845.115,510.565Z" transform="translate(-691.283 -178.431)" fill="#4c4981"/>
  <path id="Path_406" data-name="Path 406" d="M852.137,600.586c3.332-.666,8.277-2.206,8.164-5.6-.1-3.179-3.925-4.325-6.824-4.732C853.01,593.569,852.55,597.241,852.137,600.586Z" transform="translate(-693.84 -217.965)" opacity="0.1"/>
  <path id="Path_407" data-name="Path 407" d="M852.888,598.533c.133.287.667.533,1.426.753a38.442,38.442,0,0,0,5.418.886s11.329-.9,11.169-6.038c-.12-3.685-5.238-4.665-8.11-4.885a18.663,18.663,0,0,0-1.913-.08S852.4,597.48,852.888,598.533Z" transform="translate(-704.927 -217.604)" fill="#ae6e79"/>
  <path id="Path_408" data-name="Path 408" d="M864.14,598.533c.133.287.666.533,1.426.753,2.952-3.952,7.071-9.023,9.09-9.47l-.613-.566a18.665,18.665,0,0,0-1.913-.08S863.654,597.48,864.14,598.533Z" transform="translate(-716.179 -217.604)" opacity="0.1"/>
  <path id="Path_409" data-name="Path 409" d="M888.579,497.69l-3.332.493a57.926,57.926,0,0,1-4,6.111,6.664,6.664,0,0,0-1.466,3.912s-4.892,7.251-6.438,8.064-3.912,6.358-3.912,6.358-3.832,2.526-3.832,5.378a47.9,47.9,0,0,1-.733,7.091c-.087.406.567,5.465,2.2,8s3.265,8.117,3.179,9.116,4.565,6.2,5.864,7.824a33.127,33.127,0,0,1,2.852,4.811l4.318,8.15s9.13-13.448,12.469-14.181c0,0-3.745-3.585-5.618-4.238s-3.672-6-3.752-7.251-1.713-5.3-3.419-6-2.612-1.466-1.879-2.612,0-3.332,0-3.332,4.812-6.358,5.465-10,5.051-6.111,5.051-6.111l2.526-6.2Z" transform="translate(-737.765 -187.088)" fill="#4c4981"/>
  <path id="Path_410" data-name="Path 410" d="M895.818,542.092a10.576,10.576,0,0,0-6.578-2.492,8.019,8.019,0,0,1,4.305,1.686,10.156,10.156,0,0,1,1.193,1.519c.387.553,3.532,4.552,4,3.918C899.517,545.8,896.451,542.632,895.818,542.092Z" transform="translate(-757.127 -201.069)" opacity="0.1"/>
  <path id="Path_411" data-name="Path 411" d="M886.954,531.058a2.819,2.819,0,0,1-2.326-1.646,9.235,9.235,0,0,1-.726-2.892,43.122,43.122,0,0,0-1.006-4.951,2.293,2.293,0,0,1,.14-2,6.76,6.76,0,0,1,.72-1.479c.6.666.773,2.219,1.02,3.112.307,1.106.586,2.219.853,3.332C885.768,525.067,886.874,531.058,886.954,531.058Z" transform="translate(-740.879 -193.893)" opacity="0.1"/>
  <path id="Path_412" data-name="Path 412" d="M806.1,461.319a6.868,6.868,0,0,0,1.126,1.16c1.333,1.06,3.1,1.953,3.265,3.625a3.9,3.9,0,0,0,.2,1.606c.427.733,1.473.666,2.306.526a4,4,0,0,0,1.953-.72c.873-.746.953-2.079,1.619-3.019a4.112,4.112,0,0,1,3.332-1.473c1.246-.04,2.486.24,3.732.293a10.26,10.26,0,0,0,2.392-.16,7.57,7.57,0,0,0,.773-.16,9.955,9.955,0,0,0,1.626-.553,7.171,7.171,0,0,0,.793-.373,10.527,10.527,0,0,0,2.3-1.6,5.716,5.716,0,0,0,2.133-4.325c-.06-1.02-.52-1.959-.666-2.966-.5-2.879,1.413-5.6,3.485-7.657.826-.82,1.706-1.613,2.532-2.446a12.188,12.188,0,0,0,2.979-4.252,12.66,12.66,0,0,0,.533-5.331,36.794,36.794,0,0,1-.153-5.478c.613-6.478,6.144-11.442,11.676-14.141l.247-.127a17.76,17.76,0,1,0-23.891,25.99c.06.207.113.413.16.613,1.28,5.118.433,8.224-.52,9.936h0c-.26.06-9.4,2.126-10.609,3.332s-8.663,2.932-8.663,2.932a6.517,6.517,0,0,0-4.658,4.765Z" transform="translate(-657.139 -157.054)" opacity="0.1"/>
  <path id="Path_413" data-name="Path 413" d="M855.154,405.1c-.367-.42-.92-.633-1.293-1.04-1.153-1.253,0-3.3-.42-4.951-.453-1.833-2.706-2.632-4.585-2.439s-3.639,1.06-5.518,1.273c-2.919.327-5.744-.94-8.59-1.679s-6.284-.78-8.244,1.4-1.826,5.891-4.265,7.47c-1.126.726-2.546.806-3.765,1.333a7.736,7.736,0,0,0-3.185,3.046,15.953,15.953,0,0,0-2.412,10.2c.207,1.933.766,3.812.993,5.744a16.727,16.727,0,0,1-.4,6c-.513,2-1.626,4.158-3.619,4.8a6.1,6.1,0,0,0-1.333.46c-1.153.72-1,2.412-.706,3.732L809,445.916c-1.14.866-2.912.493-4,1.406a3.331,3.331,0,0,0-.933,1.466,8,8,0,0,0,2.392,8.757c1.333,1.06,3.1,1.953,3.266,3.619a3.758,3.758,0,0,0,.2,1.606c.42.733,1.473.666,2.306.526a4,4,0,0,0,1.946-.72c.88-.746.953-2.079,1.619-3.019a4.125,4.125,0,0,1,3.332-1.473c1.253-.04,2.486.24,3.739.3a11.049,11.049,0,0,0,7.857-2.839,5.736,5.736,0,0,0,2.139-4.332c-.06-1.013-.52-1.959-.666-2.966-.493-2.872,1.413-5.6,3.485-7.657s4.5-3.958,5.518-6.7c1.266-3.392.04-7.177.38-10.776.613-6.484,6.138-11.442,11.676-14.148C854.487,408.337,856.586,406.731,855.154,405.1Z" transform="translate(-656.838 -153.1)" fill="#444053"/>
  <path id="Path_414" data-name="Path 414" d="M805.4,461.5c.88-.753.953-2.079,1.619-3.019A4.139,4.139,0,0,1,810.355,457c1.253-.04,2.492.24,3.739.3a11.015,11.015,0,0,0,7.884-2.846,5.716,5.716,0,0,0,2.133-4.325c-.06-1.02-.52-1.966-.666-2.966-.5-2.879,1.413-5.6,3.485-7.664s4.5-3.959,5.518-6.7c1.26-3.385,0-7.171.373-10.776.62-6.484,6.144-11.442,11.676-14.148,1.293-.633,3.392-2.239,1.959-3.872-.36-.42-.913-.633-1.286-1.04-1.153-1.246,0-3.3-.427-4.945a2.718,2.718,0,0,0-.42-.913,3.554,3.554,0,0,1,3.006,2.379c.406,1.653-.733,3.7.42,4.951.373.407.926.62,1.293,1.033,1.433,1.633-.667,3.245-1.959,3.872-5.538,2.706-11.062,7.67-11.676,14.148-.34,3.605.886,7.391-.38,10.783-1.013,2.732-3.445,4.665-5.518,6.7s-4,4.778-3.485,7.657a25.532,25.532,0,0,1,.666,2.966,5.723,5.723,0,0,1-2.139,4.325,10.989,10.989,0,0,1-7.877,2.846c-1.253-.06-2.486-.333-3.739-.3a4.145,4.145,0,0,0-3.332,1.479c-.666.94-.74,2.272-1.619,3.019a4,4,0,0,1-1.946.713c-.833.153-1.886.207-2.306-.52a1.8,1.8,0,0,1-.187-.96A3.831,3.831,0,0,0,805.4,461.5Z" transform="translate(-650.671 -153.536)" opacity="0.1"/>
  <path id="Path_415" data-name="Path 415" d="M667.847,299.968h-46.1V254.545H667.88Zm-.666-68.487H622.418c0-70.586,67.094-66.461,67.094-111.118,0-24.6-20.132-44.3-44.73-44.3s-44.723,21.245-44.723,45H555.33A89.3,89.3,0,0,1,644.783,31.61c49.408,0,89.453,39.418,89.453,88.753,0,55.839-67.088,62.2-67.088,111.118Z" transform="translate(-369.976 -31.61)" fill="#64b5f6"/>
  <path id="Path_416" data-name="Path 416" d="M364.676,379.309H352.787V367.566h11.889Zm-.18-17.66H352.967c0-18.193,17.293-17.133,17.293-28.656a11.476,11.476,0,0,0-11.529-11.429,11.775,11.775,0,0,0-11.5,11.6H335.7a23.063,23.063,0,1,1,46.126-.18c-.036,14.394-17.33,16.034-17.33,28.642Z" transform="translate(128.798 -124.479)" fill="#64b5f6" opacity="0.1"/>
  <path id="Path_417" data-name="Path 417" d="M499.729,501.732H487.84V490.023h11.889Zm-.173-17.653H488.027c0-18.2,17.293-17.133,17.293-28.656A11.469,11.469,0,0,0,493.791,444a11.776,11.776,0,0,0-11.562,11.609H470.7a23.063,23.063,0,1,1,46.126-.18C516.842,469.824,499.556,471.47,499.556,484.079Z" transform="translate(-96.168 -165.327)" fill="#64b5f6" opacity="0.1"/>
  <path id="Path_418" data-name="Path 418" d="M585.879,294.578h-8.617v-8.47h8.617Zm-.127-12.8H577.4c0-13.182,12.535-12.415,12.535-20.759a8.317,8.317,0,0,0-8.357-8.277,8.53,8.53,0,0,0-8.357,8.41H564.86a16.714,16.714,0,0,1,33.427-.133C598.274,271.446,585.752,272.639,585.752,281.776Z" transform="translate(-240.379 -102.584)" fill="#64b5f6" opacity="0.1"/>
  <path id="Path_419" data-name="Path 419" d="M811.279,323.575h-4.872v-4.8h4.872Zm-.073-7.231h-4.752c0-7.451,7.084-7.017,7.084-11.736a4.665,4.665,0,0,0-4.718-4.665,4.825,4.825,0,0,0-4.725,4.752H799.37a9.45,9.45,0,0,1,18.893-.073C818.29,310.48,811.206,311.18,811.206,316.345Z" transform="translate(-616.635 -119.626)" fill="#64b5f6" opacity="0.1"/>
  <path id="Path_420" data-name="Path 420" d="M923.052,651.046h-4.872v-4.8h4.872Zm-.073-7.231h-4.725c0-7.457,7.091-7.017,7.091-11.736a4.7,4.7,0,0,0-4.725-4.665,4.818,4.818,0,0,0-4.725,4.752H911.17a9.45,9.45,0,0,1,18.893-.073c.027,5.884-7.057,6.557-7.057,11.722Z" transform="translate(-802.94 -228.866)" fill="#64b5f6" opacity="0.1"/>
</svg>
