<svg id="Group_21" data-name="Group 21" xmlns="http://www.w3.org/2000/svg" width="228.45" height="147.372" viewBox="0 0 228.45 147.372">
  <g id="Group_20" data-name="Group 20">
    <path id="Path_550" data-name="Path 550" d="M595.557,144.852c-13.28,24.887-27.414,51.077-61.232,51.077s-88.715-44.72-61.232-51.077c27.7-6.406,48.911-33.72,61.232-51.076C571.815,40.966,629.549,81.152,595.557,144.852Z" transform="translate(-377.426 -69.368)" fill="#64b5f6"/>
    <circle id="Ellipse_146" data-name="Ellipse 146" cx="10.343" cy="10.343" r="10.343" transform="translate(48.094 19.841)" fill="#f2f2f2"/>
    <circle id="Ellipse_147" data-name="Ellipse 147" cx="15.787" cy="15.787" r="15.787" transform="translate(78.579 14.398)" fill="#f2f2f2"/>
    <path id="Path_551" data-name="Path 551" d="M493.709,307.712v-.363c.722,0,1.454-.015,2.177-.044l.015.363C495.173,307.7,494.435,307.712,493.709,307.712Zm-2.191-.042c-.725-.028-1.462-.072-2.188-.129l.029-.362c.721.057,1.453.1,2.173.128Zm6.571-.134-.029-.362c.72-.058,1.449-.131,2.166-.217l.044.36c-.722.087-1.456.161-2.181.219Zm-10.94-.212c-.724-.087-1.454-.189-2.171-.3l.058-.358c.712.114,1.437.216,2.156.3Zm15.291-.314-.058-.358c.712-.115,1.432-.247,2.142-.391l.072.355c-.714.146-1.44.278-2.156.394Zm-19.618-.382c-.714-.145-1.434-.306-2.139-.478l.086-.353c.7.172,1.415.332,2.125.475Zm23.913-.493-.087-.352c.7-.173,1.41-.362,2.1-.563l.1.349c-.7.2-1.41.393-2.117.567Zm-28.17-.55c-.7-.2-1.4-.421-2.093-.65l.115-.344c.685.228,1.384.445,2.079.646Zm32.38-.669-.115-.344c.685-.229,1.375-.475,2.051-.732l.129.339c-.68.259-1.375.507-2.065.737ZM474.4,304.2c-.681-.258-1.367-.534-2.038-.82l.142-.334c.667.284,1.349.558,2.025.814Zm40.636-.837-.142-.334c.663-.283,1.33-.584,1.98-.893l.156.328C516.375,302.775,515.7,303.078,515.036,303.363Zm-44.678-.885c-.659-.313-1.32-.643-1.964-.982l.169-.321c.64.336,1.3.664,1.951.975Zm48.627-.993-.169-.321c.639-.336,1.279-.69,1.9-1.05l.182.314c-.628.363-1.272.719-1.916,1.058Zm-52.514-1.049c-.632-.366-1.264-.748-1.878-1.137l.194-.307c.609.386,1.237.766,1.865,1.129Zm56.3-1.143-.194-.307c.608-.385,1.218-.789,1.813-1.2l.206.3c-.6.414-1.213.821-1.825,1.209Zm-60.009-1.2c-.6-.415-1.2-.846-1.779-1.283l.218-.29c.577.434,1.171.863,1.767,1.275Zm63.61-1.285-.218-.29c.575-.433,1.151-.884,1.712-1.343l.23.281c-.565.461-1.145.916-1.724,1.351Zm-67.116-1.351c-.563-.46-1.125-.939-1.67-1.421l.241-.271c.541.479,1.1.954,1.659,1.412Zm70.508-1.42-.241-.271c.541-.479,1.079-.976,1.6-1.476l.251.262c-.524.5-1.066,1-1.61,1.486Zm-73.789-1.487c-.523-.5-1.045-1.024-1.55-1.549l.262-.252c.5.522,1.02,1.04,1.54,1.539ZM532.928,291l-.262-.252c.5-.52,1-1.058,1.478-1.6l.271.241c-.483.545-.984,1.087-1.487,1.61Zm-79.987-1.611c-.484-.545-.962-1.107-1.421-1.668l.281-.23c.456.558.931,1.115,1.411,1.657Zm82.9-1.668-.281-.23c.459-.561.911-1.137,1.345-1.714l.29.218c-.437.58-.893,1.161-1.354,1.725Zm-85.67-1.722c-.437-.581-.869-1.178-1.282-1.775l.3-.207c.411.593.839,1.187,1.274,1.764Zm88.309-1.781-.3-.206c.412-.6.817-1.208,1.2-1.817l.307.194c-.389.614-.8,1.229-1.212,1.829Zm-90.8-1.819c-.389-.613-.771-1.243-1.135-1.871l.314-.182c.362.624.741,1.25,1.127,1.859Zm93.15-1.887-.314-.182c.363-.628.718-1.27,1.054-1.909l.321.169C541.549,279.228,541.192,279.875,540.826,280.507Zm-95.344-1.9c-.338-.642-.668-1.3-.98-1.956l.328-.156c.31.651.638,1.3.974,1.943Zm97.388-1.986-.328-.156c.311-.654.612-1.323.9-1.989l.334.142C543.487,275.29,543.183,275.964,542.87,276.622ZM443.6,274.659c-.286-.668-.561-1.35-.819-2.027l.339-.129c.256.672.529,1.349.813,2.013Zm100.992-2.078-.339-.129c.257-.679.5-1.371.733-2.056l.344.115C545.1,271.2,544.853,271.9,544.594,272.581Zm-102.549-2.013c-.231-.69-.451-1.394-.654-2.092l.349-.1c.2.694.42,1.393.649,2.078Zm103.938-2.151-.349-.1c.2-.693.389-1.4.562-2.1l.352.086c-.174.708-.364,1.421-.566,2.118Zm-105.159-2.059c-.174-.707-.336-1.426-.482-2.138l.356-.073c.144.707.305,1.422.479,2.124Zm106.2-2.2-.356-.072c.143-.707.275-1.428.39-2.142l.358.058C547.3,262.724,547.172,263.449,547.028,264.161Zm-107.081-2.1c-.116-.716-.22-1.447-.308-2.17l.36-.044c.087.719.19,1.444.306,2.156Zm107.779-2.231-.36-.043c.086-.718.159-1.447.216-2.166l.362.029c-.057.724-.131,1.458-.218,2.181Zm-108.307-2.12c-.059-.725-.1-1.461-.133-2.188l.363-.015c.029.722.074,1.453.132,2.173Zm108.655-2.249-.363-.014c.028-.723.043-1.456.043-2.177v-.12h.363v.119c0,.727-.014,1.464-.043,2.192ZM439.6,253.334h-.363v-.061c0-.708.014-1.425.041-2.13l.363.014c-.027.7-.041,1.413-.041,2.117Zm108.1-2.357c-.03-.721-.075-1.452-.134-2.173l.362-.03c.059.726.1,1.462.135,2.188Zm-107.934-1.994-.362-.028c.057-.727.13-1.461.215-2.181l.36.043C439.9,247.533,439.828,248.262,439.771,248.984Zm107.58-2.345c-.088-.716-.191-1.441-.308-2.155l.358-.059c.118.719.222,1.449.31,2.17Zm-107.065-1.978-.358-.057c.115-.719.246-1.444.39-2.157l.356.072C440.53,243.226,440.4,243.947,440.286,244.661Zm106.362-2.319c-.146-.709-.307-1.423-.481-2.123l.352-.087c.175.7.338,1.424.484,2.138Zm-105.5-1.949-.353-.086c.173-.706.362-1.419.564-2.119l.349.1c-.2.695-.388,1.4-.56,2.1ZM545.6,238.116c-.2-.693-.421-1.392-.651-2.077l.344-.116c.232.69.452,1.394.656,2.091Zm-103.25-1.907-.344-.114c.23-.691.477-1.388.735-2.071l.34.128c-.256.679-.5,1.371-.73,2.057Zm101.863-2.22c-.258-.675-.532-1.352-.815-2.012l.333-.143c.285.665.561,1.346.821,2.026Zm-100.319-1.863-.334-.142c.285-.67.588-1.345.9-2l.328.155c-.31.654-.611,1.324-.894,1.99ZM542.5,230c-.311-.651-.639-1.3-.976-1.941l.321-.17c.339.642.67,1.3.982,1.955Zm-96.739-1.814-.321-.169c.338-.645.695-1.292,1.059-1.923l.314.181c-.362.627-.716,1.27-1.052,1.91Zm94.709-2.029c-.363-.625-.743-1.25-1.13-1.858l.306-.195c.389.612.772,1.241,1.137,1.87Zm-92.529-1.747-.307-.194c.389-.616.8-1.231,1.21-1.83l.3.206c-.411.6-.815,1.207-1.2,1.818Zm90.2-1.923c-.412-.593-.841-1.186-1.276-1.762l.29-.219c.438.58.87,1.177,1.284,1.774Zm-87.721-1.664-.29-.218c.437-.582.892-1.163,1.352-1.727l.281.229c-.457.56-.909,1.137-1.343,1.715Zm85.1-1.808c-.458-.558-.933-1.115-1.413-1.655l.271-.241c.483.543.962,1.1,1.423,1.666Zm-82.345-1.567-.272-.24c.482-.544.982-1.087,1.486-1.612l.262.251c-.5.522-1,1.061-1.476,1.6Zm79.453-1.686c-.5-.521-1.021-1.038-1.542-1.538l.251-.262c.524.5,1.047,1.023,1.552,1.548Zm-76.439-1.456-.252-.262c.524-.5,1.065-1,1.609-1.488l.241.271c-.54.48-1.078.977-1.6,1.478Zm73.3-1.556c-.542-.479-1.1-.954-1.66-1.41l.229-.281c.563.459,1.126.937,1.671,1.419Zm-70.04-1.334-.23-.281c.563-.461,1.143-.917,1.722-1.354l.219.29c-.576.434-1.151.887-1.711,1.344ZM526.106,210c-.579-.435-1.174-.863-1.769-1.273l.206-.3c.6.413,1.2.844,1.781,1.281Zm-63.19-1.2-.207-.3c.6-.415,1.212-.822,1.824-1.211l.195.306c-.608.386-1.218.791-1.812,1.2Zm59.6-1.273c-.612-.386-1.24-.766-1.866-1.127l.181-.314c.63.364,1.263.745,1.879,1.134Zm-55.932-1.058-.182-.314c.628-.364,1.272-.72,1.914-1.06l.169.321c-.639.337-1.278.691-1.9,1.053Zm52.155-1.12c-.641-.336-1.3-.663-1.952-.973l.155-.328c.659.312,1.32.641,1.965.98Zm-48.312-.907-.156-.328c.654-.312,1.325-.615,1.992-.9l.143.334c-.663.284-1.329.585-1.979.9Zm44.369-.959c-.667-.283-1.349-.556-2.026-.812l.128-.34c.682.257,1.368.533,2.039.818Zm-40.377-.75-.129-.339c.679-.259,1.373-.508,2.064-.739l.115.344c-.685.23-1.375.477-2.049.734Zm36.293-.791c-.686-.227-1.386-.444-2.08-.643l.1-.349c.7.2,1.4.419,2.094.648Zm-32.166-.593-.1-.348c.7-.2,1.41-.395,2.117-.569l.087.352c-.7.174-1.409.364-2.1.566Zm27.981-.608c-.7-.171-1.416-.33-2.125-.473l.072-.356c.714.144,1.434.3,2.14.476Zm-23.755-.437-.073-.355c.711-.146,1.437-.279,2.156-.4l.058.358C484.2,200.021,483.482,200.154,482.776,200.3Zm19.487-.422c-.714-.114-1.439-.215-2.157-.3l.043-.36c.722.086,1.453.187,2.171.3Zm-15.19-.278-.044-.36c.722-.088,1.456-.162,2.181-.221l.029.362c-.72.059-1.449.132-2.166.22Zm10.867-.234c-.719-.056-1.451-.1-2.174-.126l.014-.363c.728.028,1.464.07,2.188.127Zm-6.528-.119-.015-.363c.726-.03,1.463-.046,2.191-.047v.363c-.723,0-1.456.017-2.177.047Z" transform="translate(-356.137 -173.772)" fill="#3f3d56"/>
    <rect id="Rectangle_7" data-name="Rectangle 7" width="51.716" height="0.363" transform="translate(32.488 99.866)" fill="#3f3d56"/>
    <rect id="Rectangle_8" data-name="Rectangle 8" width="30.667" height="0.363" transform="translate(191.992 99.866)" fill="#3f3d56"/>
    <rect id="Rectangle_9" data-name="Rectangle 9" width="42.462" height="0.363" transform="translate(46.279 106.942)" fill="#3f3d56"/>
    <rect id="Rectangle_10" data-name="Rectangle 10" width="21.957" height="0.363" transform="translate(188.363 106.942)" fill="#3f3d56"/>
    <rect id="Rectangle_11" data-name="Rectangle 11" width="29.578" height="0.363" transform="translate(166.769 126.359)" fill="#3f3d56"/>
    <rect id="Rectangle_12" data-name="Rectangle 12" width="83.472" height="0.363" transform="translate(32.488 130.895)" fill="#3f3d56"/>
    <rect id="Rectangle_13" data-name="Rectangle 13" width="24.497" height="0.363" transform="translate(20.149 30.003)" fill="#3f3d56"/>
    <path id="Path_552" data-name="Path 552" d="M239.688,161.05c-.028-.363-.042-.733-.042-1.1a14.335,14.335,0,1,1,28.671,0h-.363a13.972,13.972,0,1,0-27.945,0c0,.357.014.718.041,1.072Z" transform="translate(-195.182 -130.854)" fill="#3f3d56"/>
    <path id="Path_553" data-name="Path 553" d="M427.972,137.607h-.363a20.686,20.686,0,0,0-41.373,0h-.363a21.049,21.049,0,1,1,42.1,0Z" transform="translate(-313.101 -107.423)" fill="#3f3d56"/>
    <circle id="Ellipse_148" data-name="Ellipse 148" cx="5.081" cy="5.081" r="5.081" transform="translate(53.719 94.966)" fill="#3f3d56"/>
    <circle id="Ellipse_149" data-name="Ellipse 149" cx="5.081" cy="5.081" r="5.081" transform="translate(67.692 25.104)" fill="#3f3d56"/>
    <circle id="Ellipse_150" data-name="Ellipse 150" cx="3.448" cy="3.448" r="3.448" transform="translate(84.93 127.811)" fill="#64b5f6"/>
    <circle id="Ellipse_151" data-name="Ellipse 151" cx="3.448" cy="3.448" r="3.448" transform="translate(196.347 103.495)" fill="#64b5f6"/>
    <circle id="Ellipse_152" data-name="Ellipse 152" cx="35.022" cy="35.022" r="35.022" transform="translate(83.297 43.431)" fill="#3f3d56"/>
    <ellipse id="Ellipse_153" data-name="Ellipse 153" cx="18.6" cy="25.586" rx="18.6" ry="25.586" transform="translate(87.289 52.867)" fill="#fff"/>
    <ellipse id="Ellipse_154" data-name="Ellipse 154" cx="5.191" cy="8.166" rx="5.191" ry="8.166" transform="translate(99.953 70.288)" fill="#3f3d56"/>
    <rect id="Rectangle_14" data-name="Rectangle 14" width="0.363" height="64.899" transform="translate(214.589 34.74)" fill="#3f3d56"/>
    <ellipse id="Ellipse_155" data-name="Ellipse 155" cx="7.077" cy="16.15" rx="7.077" ry="16.15" transform="translate(207.763 61.777)" fill="#3f3d56"/>
    <ellipse id="Ellipse_156" data-name="Ellipse 156" cx="7.077" cy="16.15" rx="7.077" ry="16.15" transform="translate(207.763 24.941)" fill="#3f3d56"/>
    <path id="Path_554" data-name="Path 554" d="M1071.539,144.466l-.348-.1c.022-.073,2.156-7.385-1.348-12.092-1.979-2.658-5.374-4.006-10.092-4.006V127.9c4.84,0,8.333,1.4,10.384,4.154C1073.748,136.909,1071.56,144.391,1071.539,144.466Z" transform="translate(-856.524 -116.57)" fill="#3f3d56"/>
    <circle id="Ellipse_157" data-name="Ellipse 157" cx="4.537" cy="4.537" r="4.537" transform="translate(198.691 6.976)" fill="#f2f2f2"/>
    <path id="Path_555" data-name="Path 555" d="M327.382,451.673a2.178,2.178,0,1,1,2.178-2.178A2.178,2.178,0,0,1,327.382,451.673Zm0-3.992A1.815,1.815,0,1,0,329.2,449.5a1.815,1.815,0,0,0-1.815-1.815Z" transform="translate(-264.177 -374.151)" fill="#3f3d56"/>
    <path id="Path_556" data-name="Path 556" d="M1105.787,674.313h-4.718v-4.718h4.718Zm-4.355-.363h3.993v-3.992h-3.992Z" transform="translate(-889.843 -553.398)" fill="#3f3d56"/>
    <path id="Path_557" data-name="Path 557" d="M315.6,350.927h-4.718v-4.718H315.6Zm-4.355-.363h3.992v-3.992h-3.992Z" transform="translate(-252.629 -292.616)" fill="#3f3d56"/>
    <path id="Path_558" data-name="Path 558" d="M196.029,544.657c.006,12.2-7.246,16.465-16.193,16.47q-.312,0-.62-.007-.622-.013-1.231-.056c-8.076-.568-14.352-5.043-14.358-16.391-.006-11.744,15-26.571,16.121-27.667h0l.065-.063S196.023,532.456,196.029,544.657Z" transform="translate(-133.878 -430.296)" fill="#64b5f6"/>
    <path id="Path_559" data-name="Path 559" d="M217.138,559.261l5.922-8.282-5.936,9.191-.015.951q-.622-.013-1.231-.056l.632-12.207-.005-.094.011-.018.06-1.154-5.96-9.208,5.977,8.344.015.245.478-9.223-5.1-9.516,5.165,7.895.493-19.122,0-.064V517l-.076,15.08,5.071-5.981-5.093,7.279-.13,8.258,4.736-7.927-4.755,9.142-.072,4.592,6.874-11.035-6.9,12.637Z" transform="translate(-171.771 -430.297)" fill="#3f3d56"/>
    <path id="Path_560" data-name="Path 560" d="M58.776,641.581l-.194,6.388h3.1l2.71-2.517-1.549-5.033Z" transform="translate(-47.241 -516.441)" fill="#a0616a"/>
    <path id="Path_561" data-name="Path 561" d="M117.582,674.419v11.228l6.195-.968-.387-10.26Z" transform="translate(-94.82 -543.859)" fill="#a0616a"/>
    <path id="Path_562" data-name="Path 562" d="M49.541,450.66,51.09,473.5s-.774,2.71-.194,3.485.581.774.194,1.549-1.162.968-.581,1.549a4.3,4.3,0,0,1,.774.968l1.936,14.906s-1.162,3.1,5.42-1.549l.387-12.583s-.774-2.517,0-2.9,1.162-.387.968-1.161,0-.774,0-1.355.387-.774.387-1.355a10.9,10.9,0,0,0-.387-1.936l2.71-12.583,2.129,14.132s-.968,3.1,0,4.259l-.774,22.069s5.42,2.71,7.744,0l1.549-17.617a21.916,21.916,0,0,0,.387-4.453c-.194-1.161-.774-.968-.387-1.742a10.9,10.9,0,0,0,.387-3.1l1.549-13.551-.194-19.746H50.509Z" transform="translate(-41.878 -368.885)" fill="#2f2e41"/>
    <path id="Path_563" data-name="Path 563" d="M47.4,726.328l-3.485-1.161s-3.678,6.969-4.065,7.163-3.291,5.614.774,5.42,7.356-5.42,7.356-5.42,4.259-4.84,3.678-6.388a6.2,6.2,0,0,0-2.29-2.6S48.756,727.49,47.4,726.328Z" transform="translate(-32.963 -596.736)" fill="#2f2e41"/>
    <path id="Path_564" data-name="Path 564" d="M120,779.256s-.774-2.323-1.162-1.936-2.71,6.776-.968,6.969,7.744,1.355,8.518,2.129,8.518.387,7.937-2.129-5.227-3.872-5.227-3.872l-3.828-4.17s-4.3.492-3.915,1.653C121.358,777.9,121.358,779.45,120,779.256Z" transform="translate(-96.466 -639.404)" fill="#2f2e41"/>
    <circle id="Ellipse_158" data-name="Ellipse 158" cx="6.195" cy="6.195" r="6.195" transform="translate(18.794 23.796)" fill="#a0616a"/>
    <path id="Path_565" data-name="Path 565" d="M107.259,239.787s-.194,6.195-1.936,7.744,4.646,6.582,10.067,3.485c0,0-2.517-5.42,0-9.873Z" transform="translate(-86.626 -206.796)" fill="#a0616a"/>
    <path id="Path_566" data-name="Path 566" d="M79.9,277.773H78.853s-6.416,2.161-8.783-2.4l-3.528.081-6,34.652s8.324-.968,10.647,0,13.358-1.742,13.358-1.742Z" transform="translate(-50.749 -235.49)" fill="#d0cde1"/>
    <circle id="Ellipse_159" data-name="Ellipse 159" cx="0.581" cy="0.581" r="0.581" transform="translate(17.052 64.836)" fill="none" stroke="#3f3d56" stroke-miterlimit="10" stroke-width="1"/>
    <circle id="Ellipse_160" data-name="Ellipse 160" cx="0.581" cy="0.581" r="0.581" transform="translate(15.309 72.193)" fill="none" stroke="#3f3d56" stroke-miterlimit="10" stroke-width="1"/>
    <path id="Path_567" data-name="Path 567" d="M108.4,178.735l-1.027-.411a7,7,0,0,1,5.133-2.158l-.84-.925a3.571,3.571,0,0,1,3.92,1.336,18.219,18.219,0,0,1,2.824,3.97h1.1l-.459,1.01,1.606,1.01-1.648-.181a5.591,5.591,0,0,1-.156,2.617l.044.8a24.554,24.554,0,0,1-1.911-3.367v1.028s-1.027-.925-1.027-1.541l-.56.719-.28-1.13-3.453,1.13.56-.925-2.147.308.84-1.13s-2.427,1.336-2.52,2.466a6.062,6.062,0,0,1-1.307,2.569l-.56-1.028S105.691,180.276,108.4,178.735Z" transform="translate(-87.736 -154.621)" fill="#2f2e41"/>
    <path id="Path_568" data-name="Path 568" d="M30.1,261.939l-3.576,1.906-7.163.774s1.936,23.811-1.355,26.909c0,0-11.228,12.97-7.163,15.1s11.422,6.388,13.745,3.1S32.13,267,30.1,261.939Z" transform="translate(-9.959 -224.659)" fill="#3f3d56"/>
    <path id="Path_569" data-name="Path 569" d="M152.922,275.787s8.812,4.453,9.006,4.84-2.9,17.229-2.9,17.229,1.162,24.973-.387,25.36-3.485-19.552-3.485-19.552S152.627,277.142,152.922,275.787Z" transform="translate(-125.227 -235.827)" fill="#3f3d56"/>
    <path id="Path_570" data-name="Path 570" d="M17.269,484.174s-1.742,10.841,3.1,10.26.774-10.647.774-10.647Z" transform="translate(-15.608 -403.56)" fill="#a0616a"/>
    <path id="Path_571" data-name="Path 571" d="M173.83,439.337s-4.04-2.189-5.5.551,6.085,7.193,7.634,2.353C175.96,442.24,175.379,438.949,173.83,439.337Z" transform="translate(-137.517 -367.047)" fill="#a0616a"/>
    <path id="Path_572" data-name="Path 572" d="M177.832,299.787h1.549s.581.194.968,2.517,2.129,15.874,2.129,15.874,1.549,1.549,1.162,2.323-.774.387-.581,1.162a6.189,6.189,0,0,1,.194,1.355l-3.1,10.454s1.742-5.227-2.323-6.195c0,0-.774-.968-.387-1.355s.194-.581.194-.774a1.341,1.341,0,0,1,0-.968,7.253,7.253,0,0,0,.194-1.549s-.774-.387-.581-.774a23.185,23.185,0,0,0,0-3.678l-2.71-4.84Z" transform="translate(-142.68 -255.181)" fill="#3f3d56"/>
    <path id="Path_573" data-name="Path 573" d="M22.639,276.368l-.968-.581s-3.485,1.936-4.453,9.486a104.135,104.135,0,0,1-3.291,15.1l-1.108,17.2,5.367-.547,2.9-18.778,3.291-9.486Z" transform="translate(-12.266 -235.827)" fill="#3f3d56"/>
  </g>
</svg>
