<svg xmlns="http://www.w3.org/2000/svg" xmlns:xlink="http://www.w3.org/1999/xlink" width="250.628" height="177.266" viewBox="0 0 250.628 177.266">
  <defs>
    <linearGradient id="linear-gradient" x1="0.5" y1="1" x2="0.5" gradientUnits="objectBoundingBox">
      <stop offset="0" stop-color="gray" stop-opacity="0.251"/>
      <stop offset="0.54" stop-color="gray" stop-opacity="0.122"/>
      <stop offset="1" stop-color="gray" stop-opacity="0.102"/>
    </linearGradient>
    <linearGradient id="linear-gradient-2" x1="0.5" y1="1" x2="0.5" y2="0" xlink:href="#linear-gradient"/>
  </defs>
  <g id="Group_24" data-name="Group 24" transform="translate(0.005 0.006)">
    <ellipse id="Ellipse_161" data-name="Ellipse 161" cx="22.067" cy="3.544" rx="22.067" ry="3.544" transform="translate(61.504 170.071)" fill="#64b5f6" opacity="0.1"/>
    <ellipse id="Ellipse_162" data-name="Ellipse 162" cx="27.536" cy="3.544" rx="27.536" ry="3.544" transform="translate(175.987 170.171)" fill="#64b5f6" opacity="0.1"/>
    <path id="Path_574" data-name="Path 574" d="M59.471,396.83H82.455v31.327h-21.3c-.057.322-.111.645-.17.969H82.455v25.265c-.039-.011-.072-.025-.109-.039-.607-.24-1.209-.494-1.812-.765l-.385-.174q-.906-.428-1.812-.906c-.211-.111-.421-.226-.63-.344a37.688,37.688,0,0,1-9.031-7.057c-.077-.075-.149-.154-.226-.226-.367-.4-.727-.8-1.076-1.214l-.385-.453c-.412-.505-.811-1.024-1.2-1.549-.057-.077-.111-.154-.17-.226a33.717,33.717,0,0,1-3.9-7.043c-.032-.075-.059-.156-.088-.226q-.467-1.2-.827-2.423c-.1-.342-.2-.679-.29-1.035-.032-.1-.059-.206-.084-.308A61.92,61.92,0,0,1,59,414.986v-1.812c0-2.095.025-4.2.061-6.309,0-.546.023-1.089.034-1.637q.048-2.086.136-4.172c.014-.387.032-.772.052-1.157a6.553,6.553,0,0,1,.034-.666C59.371,398.427,59.417,397.627,59.471,396.83Z" transform="translate(-55.965 -320.244)" fill="#64b5f6" opacity="0.1"/>
    <path id="Path_575" data-name="Path 575" d="M119.507,188.384H106.9a95.576,95.576,0,0,1,6.706-9.231c1.873-2.3,3.85-4.543,5.9-6.7Z" transform="translate(-93.018 -146.679)" fill="#64b5f6" opacity="0.1"/>
    <path id="Path_576" data-name="Path 576" d="M84.312,247.09v32.942H61.4c0-.1.016-.193.023-.288.02-.26.041-.521.063-.779.025-.3.052-.609.082-.906s.061-.659.1-.987.066-.661.1-.99.072-.657.113-.983.077-.657.12-.983c.034-.272.07-.541.106-.813.052-.383.106-.768.165-1.148a1.059,1.059,0,0,1,.025-.17,78.333,78.333,0,0,1,1.687-8.271,61.167,61.167,0,0,1,2.842-8.379A62.9,62.9,0,0,1,71.1,247.1Z" transform="translate(-57.822 -204.415)" fill="#64b5f6" opacity="0.1"/>
    <path id="Path_577" data-name="Path 577" d="M186.8,135.214v31.329h49.091V135.214Zm0,32.3v26.9c.281.059.559.115.836.163.376.072.75.138,1.132.195.072.011.147.023.226.029.149.025.3.045.453.066.378.052.754.1,1.132.129.179.018.36.034.541.048l.437.034h0c.238.018.473.032.707.038.145,0,.29.014.439.018h1.615c.195,0,.39,0,.582-.018h.014a3.054,3.054,0,0,0,.405-.018.954.954,0,0,0,.113,0,2.341,2.341,0,0,0,.335-.016h.079l.759-.059c.249-.023.5-.052.754-.079l.516-.061a45.169,45.169,0,0,0,6.216-1.323c4.579-1.277,9.059-3.064,13.636-4.373,5.918-1.687,12.456-2.516,18.174-.453V167.51Zm49.091-67.174V58.627a63.11,63.11,0,0,0-15.95,1.871c-12.431,3.123-23.584,9.9-33.141,18.548v21.288h2.464v.967H186.8v32.946h49.091V101.3H199.38v-.967Zm63.055-14.088a20.334,20.334,0,0,1-8.9-2.586c-5.288-2.876-9.512-7.317-14.231-11.065A65.339,65.339,0,0,0,241.374,58.91v41.425h70.08l.174-.183Zm6.384-1.132,6.769,7.428V83.167a26.857,26.857,0,0,0-6.76,1.939Zm6.769,115.98V167.51H297.676c-.039-.143-.077-.288-.122-.433.043.145.079.29.12.433h-56.29V191.8c.534.4,1.062.813,1.585,1.237h0c.564.453,1.121.931,1.68,1.4l.564.467c.269.226.541.453.815.666q.815.661,1.646,1.3c.274.226.555.43.833.643a113.507,113.507,0,0,0,13.957,9.129q1.637.906,3.3,1.769c.741.378,1.486.754,2.233,1.119q1.685.822,3.4,1.585h0a124.746,124.746,0,0,0,33.064,9.632q3.8.562,7.634.883V201.093h.226ZM241.383,101.3v32.944h70.725V101.3Zm0,33.911v31.329h70.725V135.214ZM317.6,83.126V93.585l8.64-9.48q-4.294-.693-8.64-.99Zm0,52.1v31.318h68.789V135.214Zm68.538,68.357.242-36.072H317.6v54.481a123.357,123.357,0,0,0,13.294-.159h.077q3.17-.2,6.312-.58h.048a116.232,116.232,0,0,0,32.43-8.653m29.894-72.227c-.258-.609-.528-1.214-.8-1.812-.512-1.132-1.053-2.233-1.61-3.334h-5.367v31.316h13.57a67.695,67.695,0,0,0-5.784-26.182Zm-7.779,27.149v31.026A44.446,44.446,0,0,0,401.25,185.9a43.481,43.481,0,0,0,4.181-18.382Zm0-41.425v8.153h4.864a88.315,88.315,0,0,0-4.858-8.164ZM345.22,89.273c-.358-.136-.716-.274-1.076-.408a98.2,98.2,0,0,0-11.62-3.492L319.3,99.883h0l-.254.269.17.186h47.055a100.644,100.644,0,0,0-21.048-11.076Zm22.434,12.041H318.562l-.965.883v32.049h68.8V118.722A98.013,98.013,0,0,0,367.66,101.3Z" transform="translate(-154.823 -58.63)" fill="#64b5f6" opacity="0.1"/>
    <path id="Path_578" data-name="Path 578" d="M84.312,320.46v16.326H61.4c0-.1.016-.193.023-.288.02-.26.041-.521.063-.779.025-.3.052-.609.082-.906s.061-.659.1-.987.066-.661.1-.99.072-.657.113-.983.077-.657.12-.983c.034-.272.07-.541.106-.813.052-.383.106-.768.165-1.148a1.059,1.059,0,0,1,.025-.17,78.331,78.331,0,0,1,1.687-8.271Z" transform="translate(-57.822 -261.169)" fill="#64b5f6" opacity="0.1"/>
    <path id="Path_579" data-name="Path 579" d="M59.471,396.83H82.455v31.327h-21.3c-.057.322-.111.645-.17.969H82.455v25.265c-.039-.011-.072-.025-.109-.039-.607-.24-1.209-.494-1.812-.765l-.385-.174q-.906-.428-1.812-.906c-.211-.111-.421-.226-.63-.344a37.688,37.688,0,0,1-9.031-7.057c-.077-.075-.149-.154-.226-.226-.367-.4-.727-.8-1.076-1.214l-.385-.453c-.412-.505-.811-1.024-1.2-1.549-.057-.077-.111-.154-.17-.226a33.717,33.717,0,0,1-3.9-7.043c-.032-.075-.059-.156-.088-.226q-.467-1.2-.827-2.423c-.1-.342-.2-.679-.29-1.035-.032-.1-.059-.206-.084-.308A61.92,61.92,0,0,1,59,414.986v-1.812c0-2.095.025-4.2.061-6.309,0-.546.023-1.089.034-1.637q.048-2.086.136-4.172c.014-.387.032-.772.052-1.157a6.553,6.553,0,0,1,.034-.666C59.371,398.427,59.417,397.627,59.471,396.83Z" transform="translate(-55.965 -320.244)" fill="#64b5f6" opacity="0.1"/>
    <path id="Path_580" data-name="Path 580" d="M156.842,176.637v28.227H139.56V176.637h2.464V167.08h10.114v9.557Z" transform="translate(-107.583 -129.247)" fill="#64b5f6" opacity="0.1"/>
    <rect id="Rectangle_15" data-name="Rectangle 15" width="17.279" height="31.327" transform="translate(31.979 76.584)" fill="#64b5f6" opacity="0.1"/>
    <path id="Path_581" data-name="Path 581" d="M186.8,539.44h17.282v26.044a45.09,45.09,0,0,1-6.216,1.32l-.516.063c-.254.029-.505.054-.754.079s-.507.043-.759.059h-.079c-.109,0-.226.014-.333.016h-.116c-.136,0-.272.014-.408.018h0c-.193.011-.385.014-.582.016h-1.6l-.437-.016c-.226,0-.471-.025-.707-.041h0l-.435-.032-.541-.05c-.38-.034-.759-.077-1.132-.129l-.453-.063-.226-.032c-.378-.059-.752-.122-1.132-.195-.279-.048-.555-.106-.836-.163Z" transform="translate(-154.823 -430.558)" fill="#64b5f6" opacity="0.1"/>
    <rect id="Rectangle_16" data-name="Rectangle 16" width="14.249" height="31.558" transform="translate(143.036 44.056)" fill="#64b5f6" opacity="0.1"/>
    <path id="Path_582" data-name="Path 582" d="M451.308,338.19v31.329H380.58V356.006h37.673v7.972h18.8V338.19Z" transform="translate(-294.02 -261.606)" fill="#64b5f6" opacity="0.1"/>
    <path id="Path_583" data-name="Path 583" d="M498.772,571.552h-.226V592.1q-3.827-.324-7.632-.881a124.752,124.752,0,0,1-33.078-9.652q-4.559-2.052-8.932-4.479a113.959,113.959,0,0,1-13.959-9.129q-1.667-1.277-3.291-2.613c-.75-.618-1.495-1.252-2.249-1.868-.523-.423-1.051-.84-1.585-1.239V537.963h56.288c-.038-.145-.077-.29-.118-.433.043.143.084.288.122.433h14.433v33.576C498.622,571.541,498.7,571.548,498.772,571.552Z" transform="translate(-341.26 -429.08)" fill="#64b5f6" opacity="0.1"/>
    <path id="Path_584" data-name="Path 584" d="M872.505,203.6H863.22v-2.885h4.162V192.12q.541.2,1.078.405v8.189h4.045Z" transform="translate(-678.057 -161.894)" fill="#64b5f6" opacity="0.1"/>
    <path id="Path_585" data-name="Path 585" d="M818.4,280.032H772.821l.016.011-.02-.011H764.36V248.474h2.4V271.8h10.95V257.985h9.045v-10.9h9.285v10.9h9.045v13.814H818.4Z" transform="translate(-601.585 -204.415)" fill="#64b5f6" opacity="0.1"/>
    <path id="Path_586" data-name="Path 586" d="M764.36,396.82v31.329H818.4V396.82Zm68.714,68.207.075-24.8H818.4v-11.1H764.36V483.6a123.375,123.375,0,0,0,13.294-.159h.077q3.171-.2,6.312-.58h.047a116.232,116.232,0,0,0,32.43-8.653" transform="translate(-601.585 -320.236)" fill="#64b5f6" opacity="0.1"/>
    <path id="Path_587" data-name="Path 587" d="M1093.321,539.44h12.607a43.622,43.622,0,0,1-4.183,18.38,44.466,44.466,0,0,1-9.376,12.648V550.539h.951Z" transform="translate(-855.312 -430.558)" fill="#64b5f6" opacity="0.1"/>
    <path id="Path_588" data-name="Path 588" d="M1109.184,445.732H1096.57V419.55h6.826A67.778,67.778,0,0,1,1109.184,445.732Z" transform="translate(-858.561 -337.819)" fill="#64b5f6" opacity="0.1"/>
    <rect id="Rectangle_17" data-name="Rectangle 17" width="7.634" height="9.894" transform="translate(149.653 52.83)" fill="#64b5f6" opacity="0.1"/>
    <rect id="Rectangle_18" data-name="Rectangle 18" width="7.634" height="2.278" transform="translate(149.653 73.338)" fill="#64b5f6" opacity="0.1"/>
    <rect id="Rectangle_19" data-name="Rectangle 19" width="7.634" height="6.647" transform="translate(149.653 76.584)" fill="#64b5f6" opacity="0.1"/>
    <rect id="Rectangle_20" data-name="Rectangle 20" width="7.634" height="9.894" transform="translate(149.653 93.847)" fill="#64b5f6" opacity="0.1"/>
    <rect id="Rectangle_21" data-name="Rectangle 21" width="7.634" height="9.894" transform="translate(149.653 114.356)" fill="#64b5f6" opacity="0.1"/>
    <path id="Path_589" data-name="Path 589" d="M714.052,661.763a1.252,1.252,0,0,1,.226.014h-.226v2.3H706.42V654.17h7.632Z" transform="translate(-556.767 -519.305)" fill="#64b5f6" opacity="0.1"/>
    <path id="Path_590" data-name="Path 590" d="M714.052,744.71v7.643q-3.827-.324-7.632-.881V744.71Z" transform="translate(-556.767 -589.341)" fill="#64b5f6" opacity="0.1"/>
    <rect id="Rectangle_22" data-name="Rectangle 22" width="32.718" height="0.727" transform="translate(86.56 107.186)" fill="#64b5f6" opacity="0.1"/>
    <rect id="Rectangle_23" data-name="Rectangle 23" width="32.718" height="2.786" transform="translate(86.56 108.88)" fill="#64b5f6" opacity="0.1"/>
    <rect id="Rectangle_24" data-name="Rectangle 24" width="32.718" height="4.479" transform="translate(86.56 120.797)" fill="#64b5f6" opacity="0.1"/>
    <path id="Path_591" data-name="Path 591" d="M465.942,652.15v4.48H440.352q-1.667-1.273-3.293-2.614c-.75-.618-1.492-1.252-2.249-1.866Z" transform="translate(-346.667 -517.743)" fill="#64b5f6" opacity="0.1"/>
    <path id="Path_592" data-name="Path 592" d="M532.551,712.217v4.475h-2.7q-4.554-2.054-8.93-4.482Z" transform="translate(-413.276 -564.201)" fill="#64b5f6" opacity="0.1"/>
    <rect id="Rectangle_25" data-name="Rectangle 25" width="6.441" height="6.441" transform="translate(176.071 79.621)" fill="#64b5f6" opacity="0.1"/>
    <rect id="Rectangle_26" data-name="Rectangle 26" width="6.441" height="6.441" transform="translate(36.617 49.612)" fill="#64b5f6" opacity="0.1"/>
    <rect id="Rectangle_27" data-name="Rectangle 27" width="6.441" height="6.441" transform="translate(36.617 64.572)" fill="#64b5f6" opacity="0.1"/>
    <rect id="Rectangle_28" data-name="Rectangle 28" width="6.441" height="6.441" transform="translate(36.617 79.532)" fill="#64b5f6" opacity="0.1"/>
    <rect id="Rectangle_29" data-name="Rectangle 29" width="6.441" height="6.441" transform="translate(36.617 94.49)" fill="#64b5f6" opacity="0.1"/>
    <rect id="Rectangle_30" data-name="Rectangle 30" width="6.441" height="6.441" transform="translate(36.617 109.451)" fill="#64b5f6" opacity="0.1"/>
    <rect id="Rectangle_31" data-name="Rectangle 31" width="6.441" height="6.441" transform="translate(36.617 124.411)" fill="#64b5f6" opacity="0.1"/>
    <rect id="Rectangle_32" data-name="Rectangle 32" width="6.441" height="6.441" transform="translate(200.658 79.621)" fill="#64b5f6" opacity="0.1"/>
    <rect id="Rectangle_33" data-name="Rectangle 33" width="6.441" height="6.441" transform="translate(176.071 95.507)" fill="#64b5f6" opacity="0.1"/>
    <rect id="Rectangle_34" data-name="Rectangle 34" width="6.441" height="6.441" transform="translate(200.658 95.507)" fill="#64b5f6" opacity="0.1"/>
    <rect id="Rectangle_35" data-name="Rectangle 35" width="6.441" height="6.441" transform="translate(176.071 111.392)" fill="#64b5f6" opacity="0.1"/>
    <rect id="Rectangle_36" data-name="Rectangle 36" width="6.441" height="6.441" transform="translate(200.658 111.392)" fill="#64b5f6" opacity="0.1"/>
    <rect id="Rectangle_37" data-name="Rectangle 37" width="6.441" height="6.441" transform="translate(176.071 127.278)" fill="#64b5f6" opacity="0.1"/>
    <rect id="Rectangle_38" data-name="Rectangle 38" width="6.441" height="6.441" transform="translate(200.658 127.278)" fill="#64b5f6" opacity="0.1"/>
    <rect id="Rectangle_39" data-name="Rectangle 39" width="6.441" height="6.441" transform="translate(176.071 143.165)" fill="#64b5f6" opacity="0.1"/>
    <rect id="Rectangle_40" data-name="Rectangle 40" width="6.441" height="6.441" transform="translate(200.658 143.165)" fill="#64b5f6" opacity="0.1"/>
    <path id="Path_593" data-name="Path 593" d="M775.83,706.483V702.33h6.438v3.562Z" transform="translate(-599.76 -543.281)" fill="#64b5f6" opacity="0.1"/>
    <path id="Path_594" data-name="Path 594" d="M65.24,357v3.685H87.282V357Zm2.2,3.454h-1.8v-3.227H67.45Zm2.194,0H67.819v-3.227h1.812Zm2.19,0H70.009v-3.227h1.812Zm2.194,0H72.206v-3.227h1.812Zm2.192,0H74.4v-3.227h1.812Zm2.194,0H76.59v-3.227H78.4Zm2.194,0H78.785v-3.227H80.6Zm2.192,0H80.977v-3.227h1.812Zm2.192,0H83.169v-3.227h1.812Zm2.192,0H85.362v-3.227h1.812Z" transform="translate(-60.792 -289.434)" fill="#64b5f6" opacity="0.1"/>
    <path id="Path_595" data-name="Path 595" d="M65.24,404.34v3.685H87.282V404.34Zm2.2,3.451h-1.8v-3.218H67.45Zm2.194,0H67.819v-3.218h1.812Zm2.19,0H70.009v-3.218h1.812Zm2.194,0H72.206v-3.218h1.812Zm2.192,0H74.4v-3.218h1.812Zm2.194,0H76.59v-3.218H78.4Zm2.194,0H78.785v-3.218H80.6Zm2.192,0H80.977v-3.218h1.812Zm2.192,0H83.169v-3.218h1.812Zm2.192,0H85.362v-3.218h1.812Z" transform="translate(-60.792 -326.053)" fill="#64b5f6" opacity="0.1"/>
    <path id="Path_596" data-name="Path 596" d="M65.24,451.7v3.691H87.282V451.7Zm2.2,3.451h-1.8v-3.22H67.45Zm2.194,0H67.819v-3.22h1.812Zm2.19,0H70.009v-3.22h1.812Zm2.194,0H72.206v-3.22h1.812Zm2.192,0H74.4v-3.22h1.812Zm2.194,0H76.59v-3.22H78.4Zm2.194,0H78.785v-3.22H80.6Zm2.192,0H80.977v-3.22h1.812Zm2.192,0H83.169v-3.22h1.812Zm2.192,0H85.362v-3.22h1.812Z" transform="translate(-60.792 -362.688)" fill="#64b5f6" opacity="0.1"/>
    <path id="Path_597" data-name="Path 597" d="M65.24,499.06v3.68H87.282v-3.68Zm2.2,3.451h-1.8v-3.223H67.45Zm2.194,0H67.819v-3.223h1.812Zm2.19,0H70.009v-3.223h1.812Zm2.194,0H72.206v-3.223h1.812Zm2.192,0H74.4v-3.223h1.812Zm2.194,0H76.59v-3.223H78.4Zm2.194,0H78.785v-3.223H80.6Zm2.192,0H80.977v-3.223h1.812Zm2.192,0H83.169v-3.223h1.812Zm2.192,0H85.362v-3.223h1.812Z" transform="translate(-60.792 -399.322)" fill="#64b5f6" opacity="0.1"/>
    <path id="Path_598" data-name="Path 598" d="M65.66,546.41c.088.347.188.693.292,1.035v-.8h1.812v3.22h-.969c.029.075.059.156.088.227H87.607V546.41Zm4.3,3.451H68.151v-3.22h1.812Zm2.19,0H70.341v-3.22h1.812Zm2.194,0H72.531v-3.22h1.812Zm2.192,0H74.728v-3.22h1.812Zm2.194,0H76.922v-3.22h1.812Zm2.194,0H79.117v-3.22h1.812Zm2.192,0H81.309v-3.22h1.812Zm2.192,0H83.5v-3.22h1.812Zm2.192,0H85.693v-3.22H87.5Z" transform="translate(-61.117 -435.949)" fill="#64b5f6" opacity="0.1"/>
    <path id="Path_599" data-name="Path 599" d="M88.26,593.77c.057.073.111.154.17.226h1.2v1.547c.129.154.256.308.387.453v-2.009h1.812v3.232h-.734c.072.075.143.154.226.227H105.1V593.77Zm5.755,3.449H92.2V594h1.812Zm2.194,0H94.4V594h1.812Zm2.194,0H96.592V594H98.4Zm2.192,0H98.784V594H100.6Zm2.192,0h-1.812V594h1.812Zm2.192,0h-1.812V594h1.812Z" transform="translate(-78.599 -472.584)" fill="#64b5f6" opacity="0.1"/>
    <path id="Path_600" data-name="Path 600" d="M141.65,641.12c.206.118.417.226.63.344v-.113h1.812v1.019l.385.179v-1.2h1.812v1.959a.575.575,0,0,0,.109.041V641.12Z" transform="translate(-119.898 -509.211)" fill="#64b5f6" opacity="0.1"/>
    <path id="Path_601" data-name="Path 601" d="M334.505,276.7Zm-13.95,66.839ZM306,309.529c.043.145.079.29.12.433h0C306.084,309.819,306.046,309.674,306,309.529Zm28.505-32.838ZM197.72,242.78v.967h10.116v-.967ZM320.555,343.537ZM306,309.529c.043.145.079.29.12.433h0C306.084,309.819,306.046,309.674,306,309.529Zm28.505-32.838Zm-13.95,66.839Zm-14.555-34c.043.145.079.29.12.433h0C306.084,309.819,306.046,309.674,306,309.529Z" transform="translate(-163.27 -201.081)" fill="#64b5f6" opacity="0.1"/>
    <path id="Path_602" data-name="Path 602" d="M343.907,268.013s-.892-.125-.892-1.424a20.364,20.364,0,0,0-.639-3.728h0c0-.011-.553-4.228-1.316-4.9s-1.744-4.606-1.744-4.606a9.286,9.286,0,0,0-.51-2.6,22.051,22.051,0,0,1-1.486-3.191c-.682-1.606-3.524-2.718-3.524-2.718s-5.138-2.98-6.595-3.952h0a2.236,2.236,0,0,1-.369-.279c-.254-.333-1.359-.34-1.359-.34a22.252,22.252,0,0,1-.263-2.326,1.769,1.769,0,0,0-.011-.245,7.836,7.836,0,0,0,3.445-4.262c.027-.086.05-.177.075-.263a.736.736,0,0,0,.442-.4,8.3,8.3,0,0,1,.3-.906,3.412,3.412,0,0,1,.838-.736,3.17,3.17,0,0,0,.872-2.579c-.023-.759-.145-1.524-.1-2.278l.014-.19c.014-.113.029-.226.05-.335.111-.562.353-1.092.489-1.649a2.121,2.121,0,0,0-.168-1.665,2.893,2.893,0,0,0-2.281-.917c-.962-.082-1.823.025-2.439-.775a8.7,8.7,0,0,0-.969-1.171c-.127-.118-1.359-.87-1.359-.919a5.505,5.505,0,0,0-3.839-.294c-.639.186-1.241.489-1.889.641-1.4.331-3.005-.027-4.192.772a4.927,4.927,0,0,0-1.429,1.875q-.453.867-.919,1.732a11.224,11.224,0,0,0-1.221,2.964,4.705,4.705,0,0,0-.082.693h0v.369a1.219,1.219,0,0,0,.014.226c.014.07.011.093.018.14s.018.154.032.226.041.2.068.3c.011.043.027.084.041.125.023.077.05.152.079.226.016.038.032.079.05.118a2.118,2.118,0,0,0,.116.226c.018.032.032.061.05.091a3.011,3.011,0,0,0,.208.3c.485.6,1.2.99,1.726,1.556v.254a7.752,7.752,0,0,0,3.528,6.33c0,.086.011.174.016.26a12.96,12.96,0,0,1-.025,2.018.951.951,0,0,0-.752-.335,1.083,1.083,0,0,0-.29.025l-.02-.016h0v.02c-.5.122-1.112.641-1.7,2.115,0,0-1.785,2.011-3.143,1.927s-4.8,2.093-4.8,2.093-3.356,2.179-4.076,4.4a31,31,0,0,1-1.445,3.687l-4.149,8.549h0l-.765,6.783a31.477,31.477,0,0,1,.34,3.476c-.084.46,1.742,4.606,1.742,4.606s6.031,10.6,8.495,11.14l.177-.125a1.448,1.448,0,0,0,.333.125l.507-.358a5.526,5.526,0,0,1-.039,1.2c-.34,1.046.127,7.874.72,9.213s.383,18.887.383,18.887l-.084,1.549a.657.657,0,0,0,.02.136l-.02.367.061.032a4.363,4.363,0,0,1-.061,1.474,16.393,16.393,0,0,0-.3,2.6s-1.7,10.843-.892,13.022,1.488,4.566,1.488,4.566.849,2.718.041,3.182-3.107,1.243-2.634,2.376c.43,1.046,2.063,3.85,2.305,4.26l-.02.215-.333,3.608a4.528,4.528,0,0,0,.383,1.377,2.373,2.373,0,0,0,2.421,1.513c.226-.016.489-.043.743-.077a32.1,32.1,0,0,0,5.5-1.431,2.241,2.241,0,0,1-.43-.356h0a1.243,1.243,0,0,1-.378-.906,26.521,26.521,0,0,0-1.5-4.556c-.048-.111-.072-.174-.072-.174s2.8-2.931,2.337-5.528c0,0-3.1-1.812-2.081-2.806a31.643,31.643,0,0,0,2.847-3.85s.084-10.678,0-12.272a13.2,13.2,0,0,1,.156-3.313c.034-.165.075-.326.118-.485a29.572,29.572,0,0,0,4.267.324c.521,0,1.051,0,1.585-.032q0,.227.02.489c.118,2.645.337,7.283.516,9.007.254,2.471,1.655,9.129,1.655,9.129s-2.675,1.717.467,5.947a5.733,5.733,0,0,1-.208,1.755h0a19.206,19.206,0,0,0-.537,2.21,3.9,3.9,0,0,0,.027,2.022c.51,1,3.567.919,3.567.919h0l.075-.014a4.383,4.383,0,0,1,3.236.976c1.162.933,5.571.523,7.958.227.935-.118,1.56-.227,1.56-.227a.9.9,0,0,0,.032-.326h0c-.025-.587-.485-1.873-3.6-3.021,0,0-2.93-1.97-2.89-3.687h-.4a3.2,3.2,0,0,1,.405,0s-1.148-4.19-.679-4.529-.935-4.982-.935-4.982-.8-7.79-.847-8.336a4.757,4.757,0,0,1,.211-1.381l-.211-4.271s-.041-1.42,0-1.882a9.4,9.4,0,0,0-.1-1.2c-.02-.159-.041-.324-.063-.487,1.1-.279,1.812-.537,1.812-.537l-.127-14.868c.933-1.812,1.105-5.786,1.1-8.606,0-1.812-.082-3.152-.082-3.152l1.275-2.081s.294-2.491-.172-3.037a.523.523,0,0,1,.057-.713,2.369,2.369,0,0,1,.279-.19s-.014-.02-.029-.05a2.256,2.256,0,0,1,.283-.2s-.453-.7-.048-1c.38.258.72.453.978.611-.018.165-.036.26-.036.26l.109-.227.4.227s2-3.979,1.954-4.566a13.315,13.315,0,0,1,1.359-3.057,3.059,3.059,0,0,1,.935-1.841c.765-.544.593-4.482.593-4.482a9.654,9.654,0,0,1,.722-2.89C344.881,269.143,343.907,268.013,343.907,268.013Zm-38.218-1.746.038.949-.389-.627Z" transform="translate(-238.999 -182.036)" fill="url(#linear-gradient)"/>
    <path id="Path_603" data-name="Path 603" d="M468.793,493.373l-.489,2.083s-3.918-2-4.624-4.541a2.874,2.874,0,0,1,1.182-3.506l3.651,1.547Z" transform="translate(-368.876 -390.311)" fill="#fff"/>
    <path id="Path_604" data-name="Path 604" d="M468.793,493.373l-.489,2.083s-3.918-2-4.624-4.541a2.874,2.874,0,0,1,1.182-3.506l3.651,1.547Z" transform="translate(-368.876 -390.311)" opacity="0.1"/>
    <path id="Path_605" data-name="Path 605" d="M359.434,798.67a28.156,28.156,0,0,1-6.115,1.5,2.327,2.327,0,0,1-2.376-1.5,4.554,4.554,0,0,1-.374-1.37l.324-3.589.172-1.911,5.292-1.375.75,2.292.07.174a26.527,26.527,0,0,1,1.472,4.529,1.236,1.236,0,0,0,.371.895A2.154,2.154,0,0,0,359.434,798.67Z" transform="translate(-281.505 -624.699)" fill="#fff"/>
    <path id="Path_606" data-name="Path 606" d="M443.441,796.033a.906.906,0,0,1-.032.324s-7.75,1.293-9.335,0a4.2,4.2,0,0,0-3.261-.956s-3,.082-3.5-.906a3.931,3.931,0,0,1-.025-2.011,19.157,19.157,0,0,1,.525-2.2l.12-.1.713-.573L437,789.37h.063c-.041,1.708,2.835,3.667,2.835,3.667C442.954,794.169,443.4,795.448,443.441,796.033Z" transform="translate(-340.761 -623.887)" fill="#fff"/>
    <path id="Path_607" data-name="Path 607" d="M443.445,806.669a.925.925,0,0,1-.034.324s-7.747,1.293-9.333,0a4.2,4.2,0,0,0-3.259-.956s-3,.082-3.5-.906a3.928,3.928,0,0,1-.027-2.011c1.155.115,2.978.4,3.694,1.089a8.2,8.2,0,0,0,4.042,2.167C435.911,806.433,441.181,806.6,443.445,806.669Z" transform="translate(-340.766 -634.523)" opacity="0.1"/>
    <path id="Path_608" data-name="Path 608" d="M360.718,825.659a28.158,28.158,0,0,1-6.115,1.5,2.32,2.32,0,0,1-2.373-1.506,4.92,4.92,0,0,0,2.874.337,25.639,25.639,0,0,1,5.209-.679A2.231,2.231,0,0,0,360.718,825.659Z" transform="translate(-282.789 -651.688)" opacity="0.1"/>
    <path id="Path_609" data-name="Path 609" d="M392.872,306.588c-2.989-1.162-6.835-5-5.875-6.794a4.013,4.013,0,0,0,.374-1.44,13.151,13.151,0,0,0,.027-2.038A27.911,27.911,0,0,0,387,293s9.333.211,8.789,1.585a5.14,5.14,0,0,0-.14,1.886c.043.784.156,1.669.274,2.419.163,1.028.326,1.812.326,1.812s-.571.8-.906.842S397.161,308.243,392.872,306.588Z" transform="translate(-309.566 -239.928)" fill="#cf6f80"/>
    <path id="Path_610" data-name="Path 610" d="M358.254,792.886l-.07.077c-2.79-3.374-6.164.831-6.164.831l-.05-.088.172-1.911,5.293-1.375.75,2.292Z" transform="translate(-282.588 -624.699)" opacity="0.1"/>
    <path id="Path_611" data-name="Path 611" d="M439.266,789.577a5.36,5.36,0,0,0-3.125.917c-1.087.96-6.341.208-6.115,0a.745.745,0,0,0,.118-.344l.713-.573,8.352-.247C439.241,789.482,439.266,789.577,439.266,789.577Z" transform="translate(-342.961 -623.856)" opacity="0.1"/>
    <path id="Path_612" data-name="Path 612" d="M353.853,658.133a6.3,6.3,0,0,0-.344,1.162,13.3,13.3,0,0,0-.156,3.3c.084,1.585,0,12.209,0,12.209a32.5,32.5,0,0,1-2.79,3.832c-1,1,2.038,2.792,2.038,2.792.453,2.582-2.292,5.5-2.292,5.5-2.79-3.374-6.164.833-6.164.833s-1.834-3.17-2.292-4.3,1.791-1.916,2.582-2.376-.039-3.171-.039-3.171-.668-2.376-1.461-4.543.874-12.956.874-12.956a16.717,16.717,0,0,1,.292-2.584,4.322,4.322,0,0,0,.061-1.468c-.014-.165-.029-.3-.041-.4s-.02-.136-.02-.136l.032-.054,1.132-2.111S354.4,656.8,353.853,658.133Z" transform="translate(-274.714 -518.911)" fill="#64b5f6"/>
    <path id="Path_613" data-name="Path 613" d="M430.9,691.948a5.407,5.407,0,0,0-3.125.906c-1.087.949-6.341.208-6.115,0s.208-1.751.208-1.751c-3.082-4.208-.453-5.915-.453-5.915s-1.377-6.624-1.626-9.081c-.174-1.717-.389-6.33-.505-8.964-.05-1.132-.079-1.911-.079-1.911l2.518-.507.324-.066,6.074-1.218s.168,1.132.281,2.059a9.626,9.626,0,0,1,.1,1.194c-.041.453,0,1.871,0,1.871l.206,4.251a4.828,4.828,0,0,0-.206,1.375c.041.541.831,8.291.831,8.291s1.375,4.624.906,4.957S430.9,691.948,430.9,691.948Z" transform="translate(-334.6 -526.476)" fill="#64b5f6"/>
    <path id="Path_614" data-name="Path 614" d="M396.3,294.585a5.14,5.14,0,0,0-.14,1.886,7.757,7.757,0,0,1-8.248-.154,27.9,27.9,0,0,0-.4-3.318S396.843,293.206,396.3,294.585Z" transform="translate(-310.079 -239.928)" opacity="0.1"/>
    <path id="Path_615" data-name="Path 615" d="M389.325,251.43a7.67,7.67,0,0,1-.38,2.4,7.75,7.75,0,0,1-15.114-2.217v-.186a7.749,7.749,0,1,1,15.5,0Z" transform="translate(-299.497 -201.777)" fill="#cf6f80"/>
    <path id="Path_616" data-name="Path 616" d="M392.872,324.874c-2.989-1.162-6.835-5-5.875-6.794a4.013,4.013,0,0,0,.374-1.44L391.463,320,394,322.08l1.925-4.9c.163,1.028.326,1.812.326,1.812s-.571.8-.906.842S397.161,326.53,392.872,324.874Z" transform="translate(-309.566 -258.214)" opacity="0.1"/>
    <path id="Path_617" data-name="Path 617" d="M346.625,279.877l-3.417,57.409-4.457.292L327.21,304.29,329.1,264.77l.4-8.35,5.132,4.215,2.534,2.077,1.982-5.043,3.685,3.211Z" transform="translate(-252.737 -198.354)" fill="#64b5f6"/>
    <path id="Path_618" data-name="Path 618" d="M361.749,658.194a6.3,6.3,0,0,0-.344,1.162,32.837,32.837,0,0,1-9.344-2.919l-.061-.032.02-.365.011-.19,1.132-2.111S362.293,656.865,361.749,658.194Z" transform="translate(-282.611 -518.973)" opacity="0.1"/>
    <path id="Path_619" data-name="Path 619" d="M421.734,671.293a22.916,22.916,0,0,1-2.5.285c-.05-1.132-.079-1.911-.079-1.911l2.518-.507Z" transform="translate(-334.554 -530.901)" opacity="0.1"/>
    <path id="Path_620" data-name="Path 620" d="M438.055,665.549a17.578,17.578,0,0,1-6.323.6l-.032-1.436,6.074-1.218S437.941,664.611,438.055,665.549Z" transform="translate(-344.262 -526.515)" opacity="0.1"/>
    <path id="Path_621" data-name="Path 621" d="M331.364,396.841c-9.285,1.585-17.789-2.96-17.789-2.96l.082-1.54s.211-17.458-.374-18.8-1.039-8.126-.709-9.167-1.207-16.663-1.207-16.663l-.249-6.341L302,337.679l4.076-8.5a30.653,30.653,0,0,0,1.418-3.669c.709-2.206,4-4.373,4-4.373s3.374-2.165,4.708-2.083,3.082-1.916,3.082-1.916c1.291-3.291,2.459-1.8,2.459-1.8a2.941,2.941,0,0,1-.063.487c-.453,3.612,7.324,15.026,7.435,15.228h0l.741,18.04.75,22.83Z" transform="translate(-243.934 -256.949)" opacity="0.1"/>
    <path id="Path_622" data-name="Path 622" d="M330.24,396.795c-9.285,1.585-17.791-2.96-17.791-2.96l.084-1.54s.211-17.458-.376-18.8-1.039-8.126-.707-9.167-1.207-16.663-1.207-16.663l-.251-6.341-9.122-3.707,4.076-8.5a31.142,31.142,0,0,0,1.418-3.669c.707-2.206,4-4.373,4-4.373s3.374-2.165,4.706-2.083,3.082-1.916,3.082-1.916c1.293-3.291,2.718-1.8,2.718-1.8,0,.156-.136.227-.063.487,1,3.5,7.075,15.026,7.186,15.228h0l.75,18.04.75,22.83Z" transform="translate(-243.06 -256.902)" fill="#fff"/>
    <path id="Path_623" data-name="Path 623" d="M390.294,333.3c-1-.417-6.289-6.457-6.289-6.457v-1.375c-.192-.453-1.336-.177-2.265.14l.4-8.35.453.376C383.583,321.137,390.178,333.1,390.294,333.3Z" transform="translate(-305.616 -258.694)" opacity="0.1"/>
    <path id="Path_624" data-name="Path 624" d="M391.4,331.091c-1-.417-6.291-6.457-6.291-6.457v-1.375c-.192-.453-1.336-.177-2.265.14l.4-8.35.453.376C384.688,318.927,391.285,330.891,391.4,331.091Z" transform="translate(-306.467 -256.984)" fill="#fff"/>
    <path id="Path_625" data-name="Path 625" d="M351.37,516.616c.125,0,6.457-.666,6.457-.666s3.834,7.539,3.583,9.373-.707,3.458-2.249,3.17-8.3.227-8.3.227Z" transform="translate(-281.729 -412.387)" opacity="0.1"/>
    <path id="Path_626" data-name="Path 626" d="M350.26,514.406c.125,0,6.457-.666,6.457-.666s3.832,7.541,3.583,9.373-.709,3.458-2.249,3.17-8.3.227-8.3.227Z" transform="translate(-280.87 -410.678)" fill="#fff"/>
    <path id="Path_627" data-name="Path 627" d="M361.243,501.05s5.811,3.123,5.936,4.076-2.958-.417-3.623-.582a8.291,8.291,0,0,0-1.334-.208l-4.441.12Z" transform="translate(-287.082 -400.862)" fill="#cf6f80"/>
    <circle id="Ellipse_163" data-name="Ellipse 163" cx="0.611" cy="0.611" r="0.611" transform="translate(82.445 73.773)" opacity="0.1"/>
    <circle id="Ellipse_164" data-name="Ellipse 164" cx="0.611" cy="0.611" r="0.611" transform="translate(82.445 73.524)" fill="#3f3d56"/>
    <circle id="Ellipse_165" data-name="Ellipse 165" cx="0.611" cy="0.611" r="0.611" transform="translate(83.57 100.243)" opacity="0.1"/>
    <circle id="Ellipse_166" data-name="Ellipse 166" cx="0.611" cy="0.611" r="0.611" transform="translate(83.57 99.991)" fill="#3f3d56"/>
    <circle id="Ellipse_167" data-name="Ellipse 167" cx="0.611" cy="0.611" r="0.611" transform="translate(83.054 87.008)" opacity="0.1"/>
    <circle id="Ellipse_168" data-name="Ellipse 168" cx="0.611" cy="0.611" r="0.611" transform="translate(83.054 86.759)" fill="#3f3d56"/>
    <path id="Path_628" data-name="Path 628" d="M438.309,363.278s.417.625,0,.917.041,1,.041,1-1.039.609-.582,1.157.168,3.023.168,3.023l-1.25,2.07s.075,1.334.079,3.137c0,2.813-.165,6.767-1.08,8.57l.127,14.79a20.132,20.132,0,0,1-8.042,1.112l-.544-23.734s.793-13.459,1.085-16.041a26.882,26.882,0,0,0,.208-4.042,45.167,45.167,0,0,0-.544-5.915s-.453-8.123-.5-10.372c-.02-1.076.036-4.215.1-7.2.07-3.263.149-6.341.149-6.341l-.827-6.54s.827-.084,1.076.249a2.389,2.389,0,0,0,.362.279h0c1.427.965,6.468,3.931,6.468,3.931s2.79,1.11,3.458,2.7a23.522,23.522,0,0,0,1.456,3.171,9.786,9.786,0,0,1,.5,2.582s.96,3.918,1.71,4.581,1.3,4.885,1.3,4.885l-6.624,5.209s-.582,8.665-.707,9S438.309,363.278,438.309,363.278Z" transform="translate(-340.549 -259.93)" fill="#fff"/>
    <path id="Path_629" data-name="Path 629" d="M438.507,363.032s.414.625,0,.917.038,1,.038,1-1.033.616-.58,1.164.168,3.023.168,3.023l-1.25,2.07s.075,1.334.082,3.137c0,2.813-.165,6.767-1.08,8.569l.125,14.791a20.166,20.166,0,0,1-8.044,1.112l-.541-23.734s.793-13.459,1.085-16.041a26.63,26.63,0,0,0,.206-4.042,45.447,45.447,0,0,0-.541-5.915s-.453-8.123-.5-10.372c-.02-1.076.038-4.215.1-7.2.07-3.263.149-6.341.149-6.341l-1.092-6.629s1.092,0,1.343.337a2.148,2.148,0,0,0,.362.279h0c1.427.965,6.47,3.931,6.47,3.931s2.788,1.11,3.456,2.7a23.154,23.154,0,0,0,1.458,3.171,9.672,9.672,0,0,1,.5,2.582s.96,3.918,1.71,4.581S443.419,341,443.419,341l-6.624,5.209s-.582,8.665-.709,9S438.507,363.032,438.507,363.032Z" transform="translate(-340.494 -259.684)" fill="#fff"/>
    <path id="Path_630" data-name="Path 630" d="M431.432,328.785l.6,1.744-3.148,3.171c.07-3.261.149-6.341.149-6.341l-1.092-6.629s1.092,0,1.343.337a2.065,2.065,0,0,0,.362.276h0l2.677,7.723Z" transform="translate(-341.353 -261.378)" opacity="0.1"/>
    <path id="Path_631" data-name="Path 631" d="M430.322,326.575l.6,1.744-3.148,3.171c.07-3.263.149-6.341.149-6.341l-1.094-6.629s1.094,0,1.343.337a2.263,2.263,0,0,0,.362.279h0l2.679,7.72Z" transform="translate(-340.494 -259.669)" fill="#fff"/>
    <path id="Path_632" data-name="Path 632" d="M389.325,251.43a7.671,7.671,0,0,1-.38,2.4.324.324,0,0,1-.245-.061,10,10,0,0,0-2.3-5.58,5.864,5.864,0,0,0-1.246-1.291,2.437,2.437,0,0,0-1.689-.478c-.679.093-1.28.555-1.966.614-.906.075-1.717-.553-2.616-.584a2.57,2.57,0,0,0-1.923.892,5.275,5.275,0,0,0-1.03,1.911,11.183,11.183,0,0,0-.575,3.3c-.011.634-.073,1.429-.661,1.66a3.383,3.383,0,0,0-.854-2.584l-.014-.014v-.186a7.749,7.749,0,1,1,15.5,0Z" transform="translate(-299.497 -201.777)" opacity="0.1"/>
    <path id="Path_633" data-name="Path 633" d="M376.7,221.837a5.336,5.336,0,0,0-3.764-.294c-.627.186-1.218.487-1.855.639-1.359.328-2.944-.027-4.11.768a4.916,4.916,0,0,0-1.4,1.864l-.906,1.726a11.2,11.2,0,0,0-1.2,2.944,3.759,3.759,0,0,0,.577,3.039c.48.609,1.189.992,1.71,1.565a3.4,3.4,0,0,1,.852,2.582c.591-.226.648-1.024.661-1.658a11.184,11.184,0,0,1,.575-3.3,5.257,5.257,0,0,1,1.03-1.911,2.575,2.575,0,0,1,1.923-.892c.906.032,1.719.657,2.616.582.679-.057,1.282-.521,1.966-.611a2.428,2.428,0,0,1,1.689.478,5.8,5.8,0,0,1,1.243,1.291,9.971,9.971,0,0,1,2.3,5.58c.256.188.625-.057.752-.347a8.283,8.283,0,0,1,.292-.906,3.34,3.34,0,0,1,.82-.729,3.206,3.206,0,0,0,.856-2.566,12.784,12.784,0,0,1-.032-2.79c.106-.562.346-1.087.478-1.642a2.147,2.147,0,0,0-.163-1.655,2.788,2.788,0,0,0-2.237-.906c-.944-.082-1.789.023-2.392-.772a8.674,8.674,0,0,0-.951-1.164C377.913,222.634,376.7,221.886,376.7,221.837Z" transform="translate(-291.413 -184.488)" fill="#512e4e"/>
    <path id="Path_634" data-name="Path 634" d="M302.876,419.505l-2.367-4.375-.75,6.751a31.289,31.289,0,0,1,.333,3.458,33.247,33.247,0,0,0,1.708,4.581s5.918,10.54,8.334,11.083l8.164-5.834-2.165-2.749s-.75-.292-.938,0c0,0-4.02-6.916-4.436-7.417a2.5,2.5,0,0,1-.335-1.5s-.625-.666-.417-1.291-1.207-2.792-1.207-2.792l1.291-1.207Z" transform="translate(-242.201 -334.4)" opacity="0.1"/>
    <path id="Path_635" data-name="Path 635" d="M298.925,412.93l-.625.5-.75,6.751a31.289,31.289,0,0,1,.333,3.458,33.233,33.233,0,0,0,1.71,4.581s5.915,10.54,8.332,11.083l8.166-5.834-2.167-2.749s-.75-.292-.938,0c0,0-4.02-6.916-4.436-7.417a2.491,2.491,0,0,1-.333-1.5s-.625-.666-.417-1.291-1.209-2.792-1.209-2.792l1.291-1.207Z" transform="translate(-240.492 -332.698)" fill="#fff"/>
    <path id="Path_636" data-name="Path 636" d="M458.752,515.933c.453.55.168,3.021.168,3.021l-1.25,2.07s.075,1.336.079,3.137l-2.1.657a1.248,1.248,0,0,1-1.619-1.23l.362-11.688,4.9,1.875c-.417.29.041,1,.041,1S458.295,515.383,458.752,515.933Z" transform="translate(-361.533 -409.255)" opacity="0.1"/>
    <path id="Path_637" data-name="Path 637" d="M459.854,514.831c.453.55.168,3.023.168,3.023l-1.25,2.07s.075,1.334.082,3.137l-2.14.668a1.223,1.223,0,0,1-1.585-1.2l.365-11.724,4.905,1.875c-.419.29.038,1,.038,1S459.4,514.283,459.854,514.831Z" transform="translate(-362.384 -408.404)" fill="#fff"/>
    <path id="Path_638" data-name="Path 638" d="M469.772,497.771s-.333,2.127-1.166,2.251-1.207,3.44-2.038,3.322-.281-3.082-.251-3.657-.906-2.958-.206-3.5,2.915,0,2.915,0Z" transform="translate(-370.678 -396.915)" fill="#cf6f80"/>
    <path id="Path_639" data-name="Path 639" d="M468.625,420.861l1.572-3.171a20.582,20.582,0,0,1,.625,3.707c0,1.291.874,1.418.874,1.418s.958,1.132.453,1.957a9.5,9.5,0,0,0-.709,2.876s.165,3.916-.584,4.457a3.033,3.033,0,0,0-.906,1.834,13.285,13.285,0,0,0-1.334,3.041c.043.584-1.916,4.541-1.916,4.541s.958-4.917-4.624-7.041c0,0-.043-1.669.374-2.127s1.067-.666.659-2.978a27.007,27.007,0,0,1-.118-5.63,35.454,35.454,0,0,1,1.25-4.015Z" transform="translate(-367.757 -336.38)" opacity="0.1"/>
    <path id="Path_640" data-name="Path 640" d="M470.922,415.69l1.372.453a20.516,20.516,0,0,1,.627,3.707c0,1.291.874,1.418.874,1.418s.958,1.132.453,1.957a9.472,9.472,0,0,0-.707,2.876s.165,3.916-.584,4.457a3.074,3.074,0,0,0-.917,1.834,13.292,13.292,0,0,0-1.332,3.041c.043.584-1.918,4.541-1.918,4.541s.96-4.917-4.624-7.041c0,0-.041-1.669.376-2.127s1.067-.666.659-2.978a27,27,0,0,1-.118-5.63,35.454,35.454,0,0,1,1.25-4.015Z" transform="translate(-369.374 -334.833)" fill="#fff"/>
    <path id="Path_641" data-name="Path 641" d="M360.15,776.034s2.188-1.375,3.623-.376S360.15,776.034,360.15,776.034Z" transform="translate(-288.915 -612.999)" opacity="0.1"/>
    <path id="Path_642" data-name="Path 642" d="M435.21,759.748a4.429,4.429,0,0,1,3.562,1.5C440.4,763,435.21,759.748,435.21,759.748Z" transform="translate(-346.977 -600.964)" opacity="0.1"/>
    <g id="Group_23" data-name="Group 23" transform="translate(71.967 41.817)" opacity="0.1">
      <path id="Path_643" data-name="Path 643" d="M393.542,257.818a3.362,3.362,0,0,0-.822.731,8.3,8.3,0,0,0-.29.906c-.127.294-.5.534-.752.349a10.014,10.014,0,0,0-2.3-5.582,5.8,5.8,0,0,0-1.243-1.291,2.434,2.434,0,0,0-1.692-.478c-.679.093-1.277.555-1.964.611-.906.077-1.719-.55-2.618-.582a2.564,2.564,0,0,0-1.92.895,5.246,5.246,0,0,0-1.03,1.909,11.2,11.2,0,0,0-.575,3.3c-.014.632-.073,1.42-.657,1.655a3.1,3.1,0,0,1,0,.5c.589-.226.648-1.024.661-1.658a11.183,11.183,0,0,1,.575-3.3,5.257,5.257,0,0,1,1.03-1.911,2.57,2.57,0,0,1,1.92-.892c.906.032,1.721.657,2.618.582.679-.057,1.282-.521,1.963-.611a2.435,2.435,0,0,1,1.692.478,5.8,5.8,0,0,1,1.243,1.291,9.987,9.987,0,0,1,2.3,5.58c.256.188.625-.057.752-.346a8.79,8.79,0,0,1,.29-.906,3.35,3.35,0,0,1,.822-.729,3.205,3.205,0,0,0,.856-2.566v-.086A2.973,2.973,0,0,1,393.542,257.818Z" transform="translate(-374.443 -250.372)"/>
      <path id="Path_644" data-name="Path 644" d="M365.766,263.8c-.521-.573-1.232-.956-1.71-1.563a3.316,3.316,0,0,1-.659-1.855,3.488,3.488,0,0,0,.659,2.353c.478.609,1.189.992,1.71,1.565a3.4,3.4,0,0,1,.854,2.02A3.4,3.4,0,0,0,365.766,263.8Z" transform="translate(-363.385 -256.512)"/>
      <path id="Path_645" data-name="Path 645" d="M451.571,243.748c-.134.555-.371,1.083-.48,1.642a5.232,5.232,0,0,0-.07,1.132,4.393,4.393,0,0,1,.07-.643c.109-.562.346-1.087.48-1.642a2.785,2.785,0,0,0,.075-.938A3.139,3.139,0,0,1,451.571,243.748Z" transform="translate(-431.17 -243.3)"/>
    </g>
    <ellipse id="Ellipse_169" data-name="Ellipse 169" cx="22.067" cy="3.544" rx="22.067" ry="3.544" transform="translate(8.363 165.155)" fill="#64b5f6" opacity="0.1"/>
    <rect id="Rectangle_41" data-name="Rectangle 41" width="1.42" height="31.97" transform="translate(29.721 100.804)" fill="#535461"/>
    <path id="Path_646" data-name="Path 646" d="M156.71,637.1l-.088,1.44-.127,2.038-.052.847-.125,2.038-.054.847-.127,2.038-1.431,23.115a3.918,3.918,0,0,1-3.909,3.673h-7.442a3.916,3.916,0,0,1-3.907-3.673l-1.424-23.131-.127-2.038-.052-.847-.127-2.038-.052-.847-.127-2.038-.091-1.44a2.038,2.038,0,0,1,2.038-2.154h15.221a2.025,2.025,0,0,1,2,2.17Z" transform="translate(-116.646 -504.423)" fill="#3f3d56"/>
    <path id="Path_647" data-name="Path 647" d="M109.671,592.24l-.127,2.031H90.707l-.127-2.031Z" transform="translate(-69.695 -458.123)" fill="#9d9cb5"/>
    <path id="Path_648" data-name="Path 648" d="M110.1,604.95l-.125,2.034H91.5l-.127-2.034Z" transform="translate(-70.306 -467.954)" fill="#9d9cb5"/>
    <path id="Path_649" data-name="Path 649" d="M110.535,617.68l-.125,2.031H92.287l-.127-2.031Z" transform="translate(-70.918 -477.801)" fill="#9d9cb5"/>
    <path id="Path_650" data-name="Path 650" d="M65.981,535.083A36.919,36.919,0,0,1,77.7,550.424,36.848,36.848,0,0,1,59.465,544.1,36.863,36.863,0,0,1,47.75,528.76,36.821,36.821,0,0,1,65.981,535.083Z" transform="translate(-47.263 -422.296)" fill="#64b5f6"/>
    <path id="Path_651" data-name="Path 651" d="M47.72,528.76s10.345,5.741,13.663,10.494,16.294,11.169,16.294,11.169" transform="translate(-47.24 -422.296)" fill="none" stroke="#535461" stroke-miterlimit="10" stroke-width="2"/>
    <path id="Path_652" data-name="Path 652" d="M117.924,491.7a20.107,20.107,0,0,1,6.382,8.348A18.226,18.226,0,0,1,108,488.26,20.052,20.052,0,0,1,117.924,491.7Z" transform="translate(-93.869 -390.968)" fill="#64b5f6"/>
    <path id="Path_653" data-name="Path 653" d="M108,488.26s5.63,3.125,7.435,5.711,8.871,6.078,8.871,6.078" transform="translate(-93.869 -390.968)" fill="none" stroke="#535461" stroke-miterlimit="10" stroke-width="2"/>
    <path id="Path_654" data-name="Path 654" d="M187.454,513.653a27.735,27.735,0,0,0-6.264,13.108,25.207,25.207,0,0,0,18.72-20.581A27.757,27.757,0,0,0,187.454,513.653Z" transform="translate(-150.484 -404.83)" fill="#64b5f6"/>
    <path id="Path_655" data-name="Path 655" d="M199.914,506.19s-6.735,5.825-8.447,9.838-10.277,10.741-10.277,10.741" transform="translate(-150.484 -404.838)" fill="none" stroke="#535461" stroke-miterlimit="10" stroke-width="2"/>
    <path id="Path_656" data-name="Path 656" d="M873.3,324.081s-3.739-18.6-2.308-20.916c0,0,.052-2.151-.034-4.894v-.315a6.972,6.972,0,0,0,.786.453,6.359,6.359,0,0,0,4.28.553L874.89,297.7a2.091,2.091,0,0,1-.614-1.026,2.149,2.149,0,0,1,.245-1.11c1.076-2.718,1.132-6.135-.94-8.209-1.751-1.744-2.176-3.995-4.076-5.587a11.776,11.776,0,0,1-2.872-4.529,25.479,25.479,0,0,1-1.572-4.287c-.272-1.157-.38-2.355-.754-3.485a4.436,4.436,0,0,0-2.167-2.733,8.18,8.18,0,0,1-1.178-.519,5.088,5.088,0,0,1-1.085-1.275c-1.714-2.265-7.455-.931-10.173-.011a5.724,5.724,0,0,0-2.011,1.114l.025-.041c.02-.034.045-.068.068-.1a3.573,3.573,0,0,0-.761.849,20.387,20.387,0,0,0-.892,2.038c-.4.8-2.616,3.048-1.662,3.952a.8.8,0,0,0,.227.145,1.959,1.959,0,0,0,1.132.113l-.041.1a6.62,6.62,0,0,0-.491,2.511,6.8,6.8,0,0,0,6.857,6.737,6.921,6.921,0,0,0,2.1-.324c.016.086.029.172.045.258a.806.806,0,0,0,.016.1h0l-.12.168a.222.222,0,0,0-.02-.029l-3.556,4.969c-.544.383-3.673,2.647-3.85,4.346-.186,1.859-.371,4.036-.371,4.036l-.025.467a1.4,1.4,0,0,1-1.132.306c-1.11-.181-1.11,4.076-1.11,4.076s-.738.679-1.246.091-1.848,1.406-1.848,1.406l-8.4.362h0l-.193.011-.453-1.4a.591.591,0,0,0-.741-.378.679.679,0,0,0-.1.043l-.032.018-.059.041-.029.027a.451.451,0,0,0-.045.048l-.027.032-.014.014h0a.571.571,0,0,0-.081.507l.389,1.2c-1.621.326-3.279,1.246-1.927,3.777l-6.853-1.266,2.217,1.862,11.446,2.362c-.152.272-.052.666.421,1.221,2.038,2.394,5.752,3.044,7.247,3.211a12.863,12.863,0,0,0,1.47,2.491l-.129,2.385s-3.784,18.176-4.477,19.1a10.775,10.775,0,0,0,.958-1.261c-1.1,3.734-2.634,8.846-3.037,9.611-.648,1.223-1.248,6.171-.51,6.488a6.214,6.214,0,0,0,1.8-.02v.41l-.041,15.533s.186,9.527-.324,10.436a8.883,8.883,0,0,0-.645,2.813,27.607,27.607,0,0,1-3.653,5.268.246.246,0,0,1-.036.032l-.05-.353s-1.941,2.45-6.235,2.312c0,0-2.584,1.68,1.248,1.771s8.726-.136,8.726-.136,3.417-5.209,6.28-4.529V390.2h.876v-4.011a3.594,3.594,0,0,0,1.56-2.362,2.872,2.872,0,0,0-1.024-2.656A1.7,1.7,0,0,1,846,379.93l-.032.027a2.4,2.4,0,0,0-.029-.245c-.251-2.038-.566-6.244.546-9.355,1.524-4.267,1.986-10.209.876-13.746a31.592,31.592,0,0,1-.881-3.445c-.027-.147-.052-.288-.075-.419a17.856,17.856,0,0,1,2.249.453c2.57.709,8.194.84,12.995.8.011.131.025.27.041.408a14.834,14.834,0,0,0,.534,2.835c.6,1.812.879,9.8.879,9.8s.777,6.567.353,9.24c-.227,1.486-.453,2.978-.582,4.477v.029s-1.273,3.623-2.2,5.591c-.023.05-.048.1-.07.147a2.944,2.944,0,0,0-.727.161s-1.248,2.491-2.491,2.9-.831,1.769,1.984,1.27,7.066-.906,7.066-.906l.183-2.541.865-1.083-.227,2.534.922-.181-.122-3.082,1.415-1.771s1.71-1.522-.831-4.516v.066c-.027-.043-.052-.088-.082-.131v-.014c-.421-.652-.756-1.868-.143-4.027,1.11-3.9,1.755-7.439,1.755-7.439s2.478-9.482-.5-13.968h.131a7.544,7.544,0,0,1-.641-1.993q-.023-.122-.041-.251a16.342,16.342,0,0,0,6.13-1.386C875.239,350.165,874.177,327.664,873.3,324.081Zm-27.975-15.694v.045l-.453.023Zm-1.554.215a.5.5,0,0,0-.2.1,2.011,2.011,0,0,0-.356.931l-.707-.159s-.5-.106-1.209-.226l-.337-.34C841.885,308.828,842.85,308.715,843.769,308.6Z" transform="translate(-646.535 -217.257)" fill="url(#linear-gradient-2)"/>
    <path id="Path_657" data-name="Path 657" d="M971.59,741.983l-.269,3.209.9-.181-.136-3.481Z" transform="translate(-750.978 -573.604)" fill="#1d2366"/>
    <path id="Path_658" data-name="Path 658" d="M886.635,669.261c-1.089,3.1-.781,7.29-.537,9.324.091.752.174,1.209.174,1.209s-1.628,3.71-1.764,3.85-4.792,2.983-4.792,2.983l-3.254,1.9s-3.3-1.447-1.719-1.945A2.4,2.4,0,0,0,875.6,686a27.334,27.334,0,0,0,3.576-5.249,9.029,9.029,0,0,1,.634-2.8c.5-.9.317-10.4.317-10.4l.039-15.479V650.05l6.194.045a14,14,0,0,0,.267,2.038,31.164,31.164,0,0,0,.863,3.433C888.578,659.1,888.125,665.01,886.635,669.261Z" transform="translate(-686.638 -516.118)" fill="#ffb0b1"/>
    <path id="Path_659" data-name="Path 659" d="M886.272,777.275s-1.628,3.71-1.764,3.85-4.792,2.983-4.792,2.983l-3.254,1.9s-3.3-1.447-1.719-1.945a2.4,2.4,0,0,0,.854-.582l.14.99,1.085-.045,9.285-8.354C886.188,776.817,886.272,777.275,886.272,777.275Z" transform="translate(-686.638 -613.599)" opacity="0.1"/>
    <path id="Path_660" data-name="Path 660" d="M866.51,777l-9.337,8.411-1.085.045-.226-1.585a7.5,7.5,0,0,1-6.115,2.305s-2.532,1.674,1.221,1.764,8.545-.136,8.545-.136,3.347-5.209,6.149-4.529v3.934h.861v-3.97a3.576,3.576,0,0,0,1.526-2.355,2.885,2.885,0,0,0-1-2.645A1.705,1.705,0,0,1,866.51,777Z" transform="translate(-666.989 -614.318)" fill="#1d2366"/>
    <path id="Path_661" data-name="Path 661" d="M994.825,673.522c-.6,2.151-.274,3.363.138,4.013v.014a7.418,7.418,0,0,1,1.083,2.643l.036.2-4.249,6.194-2.305.906s-3.707-1.266-3.03-1.628a3.473,3.473,0,0,0,.738-1.209c.906-1.959,2.156-5.573,2.156-5.573v-.029c.131-1.492.34-2.98.571-4.461.414-2.665-.346-9.208-.346-9.208s-.272-7.956-.861-9.765a14.943,14.943,0,0,1-.528-2.817c-.122-1.132-.149-2.065-.149-2.065s2.441-3.4,6.916.272a4.922,4.922,0,0,1,.935,1.015c3.091,4.4.6,14.086.6,14.086S995.91,669.634,994.825,673.522Z" transform="translate(-773.353 -515.542)" fill="#ffb0b1"/>
    <path id="Path_662" data-name="Path 662" d="M996.112,776.635l-4.249,6.194-2.305.906s-3.707-1.266-3.03-1.628a3.473,3.473,0,0,0,.738-1.209,2.93,2.93,0,0,1,2.382,1.481l1.988-.317s2.622-5.154,3.211-5.469.091-2.353.091-2.353v-.519c.016.018.029.039.047.057v.014a7.417,7.417,0,0,1,1.083,2.643Z" transform="translate(-773.376 -611.781)" opacity="0.1"/>
    <path id="Path_663" data-name="Path 663" d="M979.345,782.96a2.768,2.768,0,0,0-3.3-1.311s-1.221,2.491-2.441,2.894-.813,1.762,1.945,1.266,6.916-.906,6.916-.906l.181-2.534,2.8-3.571s1.671-1.515-.815-4.5v.519s.5,2.038-.091,2.353-3.2,5.471-3.2,5.471Z" transform="translate(-762.936 -612.23)" fill="#1d2366"/>
    <path id="Path_664" data-name="Path 664" d="M906.341,650.075a14.014,14.014,0,0,0,.267,2.038,28.412,28.412,0,0,0-6.468-.066V650.03Z" transform="translate(-706.616 -516.103)" opacity="0.1"/>
    <path id="Path_665" data-name="Path 665" d="M1001.894,652.58s-3.623.177-7.944.213c-.122-1.132-.15-2.065-.15-2.065s2.441-3.4,6.916.272a4.922,4.922,0,0,1,.935,1.015A5.514,5.514,0,0,0,1001.894,652.58Z" transform="translate(-779.065 -515.534)" opacity="0.1"/>
    <path id="Path_666" data-name="Path 666" d="M922.3,516.676s-15.871.768-20.708-.589-9.632-.181-10.354-.5-.136-5.245.5-6.466,4.113-13.565,4.113-13.565l3.347-17.451,3.526-.972.249-.07,6.144-1.694,4.5-1.243s8.952,34.951,8.184,37.528a6.6,6.6,0,0,0-.131,3.032A7.568,7.568,0,0,0,922.3,516.676Z" transform="translate(-699.476 -380.038)" fill="#1d2366"/>
    <path id="Path_667" data-name="Path 667" d="M870.3,439s-3.171,3.4-.77,5.29,3.979.181,3.979.181Z" transform="translate(-682.244 -352.864)" fill="#c7daf5"/>
    <path id="Path_668" data-name="Path 668" d="M870.3,439s-3.171,3.4-.77,5.29,3.979.181,3.979.181Z" transform="translate(-682.244 -352.864)" opacity="0.1"/>
    <path id="Path_669" data-name="Path 669" d="M965.943,319.23s-.371.353-.931.874c-.8.745-1.977,1.834-3.023,2.747-1.449,1.261-2.645,2.188-2.217,1.4a6.106,6.106,0,0,0,.134-3.456c-.016-.086-.03-.172-.045-.256a23.736,23.736,0,0,0-.7-2.8,48.443,48.443,0,0,1,3.637-4.219c.482-.453.82-.639.84-.324a10.517,10.517,0,0,0,.734,2.351c.011.032.023.061.036.093.263.679.559,1.377.82,1.979C965.626,318.542,965.943,319.23,965.943,319.23Z" transform="translate(-752.27 -255.428)" fill="#ffb0b1"/>
    <path id="Path_670" data-name="Path 670" d="M964.407,315.647a6.721,6.721,0,0,1-4.5,5.154,23.552,23.552,0,0,0-.745-3.055s4.409-5.7,4.477-4.543A10.774,10.774,0,0,0,964.407,315.647Z" transform="translate(-752.27 -255.437)" opacity="0.1"/>
    <path id="Path_671" data-name="Path 671" d="M931.549,351.254l.571-.8s.378,2.305,1.769,1.289,1.458,7.652,1.458,7.652L933.854,381.7l-10.784-.645.306-10.782,1.221-5.435,3.019-7.9,1.8-2.611Z" transform="translate(-724.353 -284.368)" opacity="0.1"/>
    <path id="Path_672" data-name="Path 672" d="M935.37,359.962l-1.359,20.176-.143,2.138-6.013-.36-.226-.014-4.529-.272.306-10.784,1.221-5.435,3.019-7.9,1.8-2.611,2.138-3.087.571-.8s.378,2.305,1.769,1.289l.029-.02h0C935.307,351.418,935.37,359.962,935.37,359.962Z" transform="translate(-724.376 -284.801)" fill="#1d2366"/>
    <path id="Path_673" data-name="Path 673" d="M882.775,406.26a1.65,1.65,0,0,1-1.628.949c-1.087-.183-1.085,4.076-1.085,4.076s-.722.679-1.221.091-1.812,1.4-1.812,1.4l-8.23.362s3.662,1.674,2.944,6.737c0,0,12.433-.77,12.841-1.945S882.775,406.26,882.775,406.26Z" transform="translate(-682.373 -327.539)" fill="#fff"/>
    <path id="Path_674" data-name="Path 674" d="M882.775,406.26a1.65,1.65,0,0,1-1.628.949c-1.087-.183-1.085,4.076-1.085,4.076s-.722.679-1.221.091-1.812,1.4-1.812,1.4l-8.23.362s3.662,1.674,2.944,6.737c0,0,12.433-.77,12.841-1.945S882.775,406.26,882.775,406.26Z" transform="translate(-682.373 -327.539)" opacity="0.03"/>
    <path id="Path_675" data-name="Path 675" d="M777.66,389.76l2.169,1.852,17.859,3.753-2.215-2.26Z" transform="translate(-601.175 -301.497)" fill="#fff"/>
    <path id="Path_676" data-name="Path 676" d="M916.5,349.917a45.706,45.706,0,0,0-1.855,4.8c-.591,1.687-1.085,3.171-1.085,3.171s-1.153,7.505-1.742,8.862-.27,6.647-.27,6.647l-2.194,13.065a65.16,65.16,0,0,1-2.53,10.762,19.6,19.6,0,0,1-3.254,5.877c.679-.919,4.382-19.023,4.382-19.023l1.223-22.832s.179-2.17.36-4.024,3.85-4.387,3.85-4.387l3.537-5.03C917.278,348.276,917.04,349.1,916.5,349.917Z" transform="translate(-709.269 -282.318)" fill="#fff"/>
    <path id="Path_677" data-name="Path 677" d="M891.9,469.613s-5.209-.227-7.732-3.257S890,465.147,890,465.147l2.172.5Z" transform="translate(-693.894 -372.67)" fill="#ffb0b1"/>
    <path id="Path_678" data-name="Path 678" d="M962.17,420.618a6.6,6.6,0,0,0-.131,3.032,43.167,43.167,0,0,1-11.76-1.132,26.421,26.421,0,0,1-4.115,2.577l-1.626-20.155c-1.039-2.718-1.447-16.956-1.447-16.956s.093-.745.227-1.862a.215.215,0,0,1,.011-.084c.405-3.118,1.209-8.973,1.6-9.763.544-1.087-1.671-3.979-1.671-3.979l1.008-8.594.122-1.037c2.124-.949,3.753-3.979,3.753-3.979l1.25-2.19h0c1.359-.872,1.429,7.673,1.429,7.673l-1.359,20.176,4.5-1.243S962.938,418.041,962.17,420.618Z" transform="translate(-739.839 -288.996)" opacity="0.1"/>
    <path id="Path_679" data-name="Path 679" d="M968.929,403.574c-6.194,3.075-17.451.226-17.451.226a26.421,26.421,0,0,1-4.115,2.577l-1.628-20.155c-1.037-2.718-1.445-16.956-1.445-16.956s1.309-10.624,1.852-11.708a1.744,1.744,0,0,0-.106-1.3,16.391,16.391,0,0,1-.992-7.584l.435-3.694.12-1.035c2.127-.951,3.755-3.981,3.755-3.981l1.132-1.984,2.083-3.655.987-1.73.168.152,1.279,1.16,1.359,1.132c1.773,1.495,4.837,4.126,6.418,5.736,1.39,1.418,1.83,6.932,1.957,11.083.084,2.733.034,4.876.034,4.876-1.4,2.308,2.265,20.835,2.265,20.835C967.89,381.154,968.929,403.574,968.929,403.574Z" transform="translate(-740.767 -270.56)" fill="#fff"/>
    <path id="Path_680" data-name="Path 680" d="M935.492,363.849s-4.251,8.092-3.757,11.167,1.9,6.556,1.221,7.369a2.5,2.5,0,0,1-1.991.994,6.544,6.544,0,0,0-2.491,1.447,23.607,23.607,0,0,0-3.171.77,19.74,19.74,0,0,1-3.707.994s-4.3-.136-4.7.272-.813,2.847.045,4.792,1.812,3.4,2.532,3.662,5.29-1.266,9-1.628,7.732-3.3,7.732-3.3,4.432-1.585,5.209-4.251-.949-17.316-.949-17.316S939.154,361.994,935.492,363.849Z" transform="translate(-719.219 -294.485)" opacity="0.03"/>
    <path id="Path_681" data-name="Path 681" d="M933.114,360.851s-4.251,8.094-3.753,11.167,1.9,6.556,1.218,7.371a2.491,2.491,0,0,1-1.988.994,6.543,6.543,0,0,0-2.491,1.447,23.808,23.808,0,0,0-3.171.768,19.934,19.934,0,0,1-3.707.994s-4.3-.136-4.7.272-.815,2.849.045,4.792,1.812,3.4,2.532,3.662,5.29-1.266,9-1.626,7.732-3.3,7.732-3.3,4.43-1.585,5.2-4.249-.949-17.318-.949-17.318S936.776,359,933.114,360.851Z" transform="translate(-717.385 -292.167)" opacity="0.03"/>
    <path id="Path_682" data-name="Path 682" d="M934.917,362.06s-4.251,8.094-3.753,11.167,1.9,6.556,1.221,7.369a2.491,2.491,0,0,1-1.991,1,6.575,6.575,0,0,0-2.491,1.445,23.293,23.293,0,0,0-3.17.77,19.788,19.788,0,0,1-3.707.994s-4.3-.136-4.7.272-.813,2.849.045,4.792,1.812,3.4,2.532,3.662,5.29-1.266,9-1.628,7.732-3.3,7.732-3.3,4.432-1.585,5.209-4.251-.937-17.316-.937-17.316S938.577,360.216,934.917,362.06Z" transform="translate(-718.778 -293.103)" fill="#fff"/>
    <path id="Path_683" data-name="Path 683" d="M991.172,458.31s-3.4-.679-2.215.453,1.175,2.124,2.622,2.079S991.172,458.31,991.172,458.31Z" transform="translate(-775.125 -367.644)" opacity="0.1"/>
    <path id="Path_684" data-name="Path 684" d="M1023.57,566.58s-1.535,1.039,1.4,3.435S1023.57,566.58,1023.57,566.58Z" transform="translate(-801.782 -451.551)" opacity="0.1"/>
    <path id="Path_685" data-name="Path 685" d="M1011.775,604.31c0,.136-.544,4.982,1.49,6.194S1011.775,604.31,1011.775,604.31Z" transform="translate(-792.918 -480.737)" opacity="0.1"/>
    <path id="Path_686" data-name="Path 686" d="M856.236,436.59c-1.64.057-5.182.557-3.345,3.984,1.624,3.032,4.353,1.005,5.888-.532A5.786,5.786,0,0,0,856.236,436.59Z" transform="translate(-669.669 -351)" fill="#ffb0b1"/>
    <path id="Path_687" data-name="Path 687" d="M881.39,451Z" transform="translate(-692.112 -362.146)" fill="#ffb0b1"/>
    <path id="Path_688" data-name="Path 688" d="M880.74,451.47l.068-.07Z" transform="translate(-691.609 -362.456)" fill="#ffb0b1"/>
    <path id="Path_689" data-name="Path 689" d="M960.424,335.638c-1.739,1.189-3.2,2.192-3.483,2.4-.779.578-2.265,3.968-3.223,5.7-.763,1.393-3.243,1.751-4.178,1.839l.12-1.035c2.127-.951,3.755-3.981,3.755-3.981l4.2-7.369,1.447,1.316Z" transform="translate(-744.828 -271.016)" opacity="0.1"/>
    <path id="Path_690" data-name="Path 690" d="M960.424,335.038c-1.739,1.189-3.2,2.192-3.483,2.4-.779.575-2.265,3.965-3.223,5.7-.763,1.393-3.243,1.751-4.178,1.839l.12-1.035c2.127-.951,3.755-3.981,3.755-3.981l4.2-7.369,1.447,1.311S959.609,334.35,960.424,335.038Z" transform="translate(-744.828 -270.552)" fill="#dce7ff"/>
    <path id="Path_691" data-name="Path 691" d="M936.931,294.979a6.717,6.717,0,1,1-5.71-6.64A6.706,6.706,0,0,1,936.931,294.979Z" transform="translate(-724.682 -236.264)" fill="#ffb0b1"/>
    <path id="Path_692" data-name="Path 692" d="M950.319,317.569a5.969,5.969,0,0,1-2.167-2.328,6.132,6.132,0,0,0-1.275-2.14,5.663,5.663,0,0,0-2.083-.8,6.108,6.108,0,0,1-4.455-5.36,31.746,31.746,0,0,0,.163-3.492,3.867,3.867,0,0,0-.756-1.8,6.208,6.208,0,0,0-.655-.7c-.317-.3-.65-.589-.94-.906a3.515,3.515,0,0,1-.476-.645,3.1,3.1,0,0,1-.26-.6c-.453-1.386-.041-3.03-.539-4.432l-.027-.077a1.442,1.442,0,0,0-1.1-1.035c-.532-.038-.987.4-1.495.6-1.062.412-2.208-.29-3.094-1.006s-1.884-1.533-3.01-1.375a9.724,9.724,0,0,0-2.02.876,2.83,2.83,0,0,1-.478.138,6.715,6.715,0,0,1,12.947,2.5,6.648,6.648,0,0,1-.147,1.4c.011.032.023.061.036.093.263.679.559,1.377.82,1.979l1.28,1.16,1.359,1.132c1.773,1.495,4.837,4.126,6.418,5.736C949.753,307.905,950.188,313.417,950.319,317.569Z" transform="translate(-726.349 -236.263)" opacity="0.1"/>
    <path id="Path_693" data-name="Path 693" d="M921.061,270.6c.324-.659.485-1.4.872-2.022a4.818,4.818,0,0,1,2.579-1.837c2.661-.917,8.284-2.249,9.965,0a4.9,4.9,0,0,0,1.062,1.268,7.888,7.888,0,0,0,1.153.519,4.405,4.405,0,0,1,2.12,2.718c.365,1.119.473,2.319.74,3.472a25.543,25.543,0,0,0,1.54,4.273,11.768,11.768,0,0,0,2.81,4.511c1.855,1.585,2.265,3.83,3.986,5.569,2.038,2.065,1.972,5.474.922,8.18a2.246,2.246,0,0,0-.24,1.105,2.168,2.168,0,0,0,.6,1.024l1.114,1.257a6.265,6.265,0,0,1-6.846-3.157,6.123,6.123,0,0,0-1.277-2.14,5.648,5.648,0,0,0-2.081-.8,6.116,6.116,0,0,1-4.455-5.365,31.665,31.665,0,0,0,.163-3.488,3.849,3.849,0,0,0-.759-1.812c-.623-.813-1.563-1.359-2.07-2.265-.858-1.515-.206-3.483-.824-5.109a1.445,1.445,0,0,0-1.1-1.035c-.532-.039-.987.4-1.5.6-1.06.412-2.206-.288-3.091-1.005s-1.884-1.533-3.012-1.372a9.474,9.474,0,0,0-2.018.876c-.507.195-1.535.369-1.979-.059C918.5,273.639,920.669,271.4,921.061,270.6Z" transform="translate(-721.361 -218.658)" fill="#591d4b"/>
    <path id="Path_694" data-name="Path 694" d="M943.9,304.254a6.127,6.127,0,0,0-1.277-2.138,5.647,5.647,0,0,0-2.083-.8,6.116,6.116,0,0,1-4.454-5.363,32.276,32.276,0,0,0,.165-3.49,3.873,3.873,0,0,0-.759-1.8c-.625-.813-1.565-1.359-2.07-2.265-.858-1.513-.206-3.481-.827-5.109a1.45,1.45,0,0,0-1.1-1.035c-.53-.041-.99.405-1.5.6-1.06.412-2.208-.29-3.091-1.006s-1.886-1.533-3.012-1.375a9.65,9.65,0,0,0-2.018.876c-.507.195-1.538.371-1.982-.057-.933-.906,1.239-3.137,1.628-3.938a21.651,21.651,0,0,1,.874-2.022c.02-.034.043-.068.066-.1a3.6,3.6,0,0,0-.745.847,22,22,0,0,0-.872,2.022c-.392.8-2.564,3.039-1.628,3.938.453.43,1.472.254,1.979.059a9.323,9.323,0,0,1,2.018-.876c1.132-.161,2.129.657,3.012,1.372s2.038,1.418,3.094,1.006c.507-.2.951-.641,1.495-.6a1.442,1.442,0,0,1,1.1,1.035c.618,1.626-.034,3.594.824,5.109.507.89,1.447,1.447,2.07,2.265a3.849,3.849,0,0,1,.759,1.812,31.709,31.709,0,0,1-.163,3.488,6.105,6.105,0,0,0,4.454,5.365,5.681,5.681,0,0,1,2.081.8,5.989,5.989,0,0,1,1.277,2.14,6.265,6.265,0,0,0,6.846,3.157l-.525-.593A6.333,6.333,0,0,1,943.9,304.254Z" transform="translate(-721.194 -226.182)" opacity="0.1"/>
    <path id="Path_695" data-name="Path 695" d="M949.4,350.44a45.682,45.682,0,0,0-1.855,4.8c-.663-.258-1.266-1.9-1.266-1.9l3.537-5.032C950.18,348.8,949.942,349.625,949.4,350.44Z" transform="translate(-742.307 -282.704)" opacity="0.1"/>
    <path id="Path_696" data-name="Path 696" d="M950,349.848a45.7,45.7,0,0,0-1.855,4.8c-.664-.256-1.266-1.9-1.266-1.9l3.537-5.03C950.78,348.206,950.542,349.035,950,349.848Z" transform="translate(-742.771 -282.248)" fill="#dce7ff"/>
    <path id="Path_697" data-name="Path 697" d="M863.047,435.611l-1.961-6.185a.578.578,0,0,1,.376-.727h0a.58.58,0,0,1,.725.376l1.961,6.178-.195,1.293Z" transform="translate(-676.385 -344.876)" fill="#be8b87"/>
    <path id="Path_698" data-name="Path 698" d="M861.59,428.914h0a.58.58,0,0,1,.727.376l1.961,6.178-.147.969.143.149.195-1.293-1.972-6.178a.58.58,0,0,0-.725-.376h0a.58.58,0,0,0-.3.226A.789.789,0,0,1,861.59,428.914Z" transform="translate(-676.703 -344.907)" fill="#fff" opacity="0.1"/>
    <path id="Path_699" data-name="Path 699" d="M822.6,399.489l1.1-.349-.161,1.06-.034.233-.322-.335Z" transform="translate(-635.938 -308.753)" fill="#efc8c4"/>
    <path id="Path_700" data-name="Path 700" d="M872.42,461.746a.226.226,0,0,1,.07-.059.1.1,0,0,1,.106,0,.283.283,0,0,1,.039.061.2.2,0,0,0,.14.093l-.034.226Z" transform="translate(-685.173 -370.401)" fill="#727a9c"/>
    <path id="Path_701" data-name="Path 701" d="M861.13,441.7s3.934-.023,3.008,1.651a3.538,3.538,0,0,1-2.373,1.875Z" transform="translate(-676.44 -354.952)" fill="#ffb0b1"/>
    <path id="Path_702" data-name="Path 702" d="M576.34,110.05h-.17A19.37,19.37,0,0,0,560,118.9a19.371,19.371,0,0,0-16.172-8.853h-.17a19.25,19.25,0,0,0-19.066,19.238c0,6.3,2.758,15.234,8.137,22.588C542.975,165.887,560,178.146,560,178.146s17.023-12.256,27.269-26.27c5.381-7.353,8.137-16.29,8.137-22.588A19.25,19.25,0,0,0,576.34,110.05Zm-2.43,42.9a3.816,3.816,0,0,1-3.549-2.45h-4.04a1.277,1.277,0,0,1-1.2-.87l-1.241-3.739-3.927,13.722a1.271,1.271,0,0,1-1.218.917h-.079a1.255,1.255,0,0,1-1.178-1.051l-4.047-24.341-2.958,14.4a1.261,1.261,0,0,1-1.225.958h-5.691a1.266,1.266,0,1,1,0-2.53h4.695l4.19-19.365a1.27,1.27,0,0,1,2.491.1l4.133,24.83,3.519-12.277a1.246,1.246,0,0,1,1.184-.906h.025a1.264,1.264,0,0,1,1.2.87l2.244,6.751h3.075a3.8,3.8,0,1,1,3.605,4.982Z" transform="translate(-416.115 -98.41)" fill="#64b5f6"/>
  </g>
</svg>
